<ttFont>
        <CharString name=".notdef">
          273 endchar
        </CharString>
        <CharString name=".null">
          273 endchar
        </CharString>
        <CharString name="A">
          105 227 594 rmoveto
          -40 -146 -37 -115 -35 -83 rrcurveto
          -27 -19 -14 -37 vhcurveto
          -25 10 rlineto
          -19 -15 -12 -23 -10 hvcurveto
          -19 12 -13 25 -6 vhcurveto
          19 4 rlineto
          25 hlineto
          -16 -35 rlineto
          -35 -46 -18 -31 -17 vvcurveto
          -18 3 9 -9 13 hhcurveto
          25 36 52 104 48 hvcurveto
          13 44 15 87 18 vhcurveto
          4 hlineto
          21 -73 18 -55 17 -37 rrcurveto
          -46 6 13 -23 19 hhcurveto
          21 9 10 11 12 vvcurveto
          2 vlineto
          -44 132 -22 73 14 vvcurveto
          4 vlineto
          4 2 rlineto
          85 25 42 21 17 vvcurveto
          23 -1 -9 12 -15 hhcurveto
          -115 -42 -4 4 -31 231 rlineto
          60 -11 30 -23 vhcurveto
          -16 -190 rmoveto
          5 8 -49 -98 10 hvcurveto
          -9 -27 -11 -55 -11 vhcurveto
          endchar
        </CharString>
        <CharString name="AE">
          264 517 629 rmoveto
          -15 -29 -17 -33 -43 hvcurveto
          -65 -73 -41 -78 -15 -83 -23 167 rcurveline
          60 -11 30 -23 vhcurveto
          -25 -8 -40 -146 -37 -115 -35 -83 rlinecurve
          -27 -19 -14 -37 vhcurveto
          -25 10 rlineto
          -19 -15 -12 -23 -10 hvcurveto
          -19 12 -13 25 -6 vhcurveto
          19 4 rlineto
          25 hlineto
          -16 -35 rlineto
          -35 -46 -18 -31 -17 vvcurveto
          -18 3 9 -9 13 hhcurveto
          25 36 52 104 48 hvcurveto
          10 30 12 59 14 vhcurveto
          20 -4 27 5 20 -69 18 -52 17 -35 rlinecurve
          -46 6 13 -23 19 hhcurveto
          21 9 10 11 12 vvcurveto
          2 vlineto
          -13 37 -12 33 -9 29 rrcurveto
          -29 29 34 -15 39 hhcurveto
          51 45 22 43 41 hvcurveto
          6 vlineto
          13 -7 9 -14 7 vhcurveto
          -13 hlineto
          -27 -42 -32 -14 -23 hhcurveto
          -34 6 rlineto
          -48 27 -24 32 39 vvcurveto
          8 vlineto
          2 6 5 11 7 vhcurveto
          41 14 25 13 9 11 rrcurveto
          41 15 20 11 7 vvcurveto
          19 vlineto
          14 -11 -9 7 -8 hhcurveto
          -29 -7 -41 -18 -55 -27 rrcurveto
          19 vlineto
          25 110 38 78 53 45 rrcurveto
          41 21 21 17 12 vvcurveto
          21 -4 -8 11 -13 hhcurveto
          -281 -217 rmoveto
          5 8 -49 -98 10 hvcurveto
          -9 -27 -11 -55 -11 vhcurveto
          endchar
        </CharString>
        <CharString name="AEacute">
          264 517 629 rmoveto
          -15 -29 -17 -33 -43 hvcurveto
          -65 -73 -41 -78 -15 -83 -23 167 rcurveline
          60 -11 30 -23 vhcurveto
          -25 -8 -40 -146 -37 -115 -35 -83 rlinecurve
          -27 -19 -14 -37 vhcurveto
          -25 10 rlineto
          -19 -15 -12 -23 -10 hvcurveto
          -19 12 -13 25 -6 vhcurveto
          19 4 rlineto
          25 hlineto
          -16 -35 rlineto
          -35 -46 -18 -31 -17 vvcurveto
          -18 3 9 -9 13 hhcurveto
          25 36 52 104 48 hvcurveto
          10 30 12 59 14 vhcurveto
          20 -4 27 5 20 -69 18 -52 17 -35 rlinecurve
          -46 6 13 -23 19 hhcurveto
          21 9 10 11 12 vvcurveto
          2 vlineto
          -13 37 -12 33 -9 29 rrcurveto
          -29 29 34 -15 39 hhcurveto
          51 45 22 43 41 hvcurveto
          6 vlineto
          13 -7 9 -14 7 vhcurveto
          -13 hlineto
          -27 -42 -32 -14 -23 hhcurveto
          -34 6 rlineto
          -48 27 -24 32 39 vvcurveto
          8 vlineto
          2 6 5 11 7 vhcurveto
          41 14 25 13 9 11 rrcurveto
          41 15 20 11 7 vvcurveto
          19 vlineto
          14 -11 -9 7 -8 hhcurveto
          -29 -7 -41 -18 -55 -27 rrcurveto
          19 vlineto
          25 110 38 78 53 45 rrcurveto
          41 21 21 17 12 vvcurveto
          21 -4 -8 11 -13 hhcurveto
          -281 -217 rmoveto
          5 8 -49 -98 10 hvcurveto
          -9 -27 -11 -55 -11 vhcurveto
          7 617 rmoveto
          3 -23 10 -13 16 -1 35 11 21 11 7 11 11 3 55 18 97 34 7 28 rcurveline
          -2 23 -9 13 -17 1 -23 2 -68 -26 -113 -54 -19 -6 -10 -13 -1 -19 rrcurveto
          endchar
        </CharString>
        <CharString name="Aacute">
          105 227 594 rmoveto
          -40 -146 -37 -115 -35 -83 rrcurveto
          -27 -19 -14 -37 vhcurveto
          -25 10 rlineto
          -19 -15 -12 -23 -10 hvcurveto
          -19 12 -13 25 -6 vhcurveto
          19 4 rlineto
          25 hlineto
          -16 -35 rlineto
          -35 -46 -18 -31 -17 vvcurveto
          -18 3 9 -9 13 hhcurveto
          25 36 52 104 48 hvcurveto
          13 44 15 87 18 vhcurveto
          4 hlineto
          21 -73 18 -55 17 -37 rrcurveto
          -46 6 13 -23 19 hhcurveto
          21 9 10 11 12 vvcurveto
          2 vlineto
          -44 132 -22 73 14 vvcurveto
          4 vlineto
          4 2 rlineto
          85 25 42 21 17 vvcurveto
          23 -1 -9 12 -15 hhcurveto
          -115 -42 -4 4 -31 231 rlineto
          60 -11 30 -23 vhcurveto
          -16 -190 rmoveto
          5 8 -49 -98 10 hvcurveto
          -9 -27 -11 -55 -11 vhcurveto
          -90 453 rmoveto
          3 -23 10 -13 16 -1 35 11 21 11 7 11 11 3 55 18 97 34 7 28 rcurveline
          -2 23 -9 13 -17 1 -23 2 -68 -26 -113 -54 -19 -6 -10 -13 -1 -19 rrcurveto
          endchar
        </CharString>
        <CharString name="Abreve">
          105 227 594 rmoveto
          -40 -146 -37 -115 -35 -83 rrcurveto
          -27 -19 -14 -37 vhcurveto
          -25 10 rlineto
          -19 -15 -12 -23 -10 hvcurveto
          -19 12 -13 25 -6 vhcurveto
          19 4 rlineto
          25 hlineto
          -16 -35 rlineto
          -35 -46 -18 -31 -17 vvcurveto
          -18 3 9 -9 13 hhcurveto
          25 36 52 104 48 hvcurveto
          13 44 15 87 18 vhcurveto
          4 hlineto
          21 -73 18 -55 17 -37 rrcurveto
          -46 6 13 -23 19 hhcurveto
          21 9 10 11 12 vvcurveto
          2 vlineto
          -44 132 -22 73 14 vvcurveto
          4 vlineto
          4 2 rlineto
          85 25 42 21 17 vvcurveto
          23 -1 -9 12 -15 hhcurveto
          -115 -42 -4 4 -31 231 rlineto
          60 -11 30 -23 vhcurveto
          -16 -190 rmoveto
          5 8 -49 -98 10 hvcurveto
          -9 -27 -11 -55 -11 vhcurveto
          120 557 rmoveto
          -7 -63 -27 -31 -48 3 rrcurveto
          -22 -11 12 23 hvcurveto
          51 vlineto
          -37 1 -5 -20 2 -25 8 -29 rlinecurve
          8 -29 25 -14 42 1 14 -1 21 7 27 13 27 14 16 34 3 53 rrcurveto
          endchar
        </CharString>
        <CharString name="Acircumflex">
          105 227 594 rmoveto
          -40 -146 -37 -115 -35 -83 rrcurveto
          -27 -19 -14 -37 vhcurveto
          -25 10 rlineto
          -19 -15 -12 -23 -10 hvcurveto
          -19 12 -13 25 -6 vhcurveto
          19 4 rlineto
          25 hlineto
          -16 -35 rlineto
          -35 -46 -18 -31 -17 vvcurveto
          -18 3 9 -9 13 hhcurveto
          25 36 52 104 48 hvcurveto
          13 44 15 87 18 vhcurveto
          4 hlineto
          21 -73 18 -55 17 -37 rrcurveto
          -46 6 13 -23 19 hhcurveto
          21 9 10 11 12 vvcurveto
          2 vlineto
          -44 132 -22 73 14 vvcurveto
          4 vlineto
          4 2 rlineto
          85 25 42 21 17 vvcurveto
          23 -1 -9 12 -15 hhcurveto
          -115 -42 -4 4 -31 231 rlineto
          60 -11 30 -23 vhcurveto
          -16 -190 rmoveto
          5 8 -49 -98 10 hvcurveto
          -9 -27 -11 -55 -11 vhcurveto
          47 553 rmoveto
          -105 -146 rlineto
          -19 -7 -10 -7 -5 vvcurveto
          -11 10 -7 19 -4 vhcurveto
          27 -15 5 14 32 42 59 70 rlinecurve
          9 13 13 -14 18 -43 rrcurveto
          48 -57 24 -30 -1 vvcurveto
          26 2 rlineto
          16 2 8 5 8 vvcurveto
          -38 54 rlineto
          96 -64 -42 48 -20 hhcurveto
          endchar
        </CharString>
        <CharString name="Adieresis">
          105 227 594 rmoveto
          -40 -146 -37 -115 -35 -83 rrcurveto
          -27 -19 -14 -37 vhcurveto
          -25 10 rlineto
          -19 -15 -12 -23 -10 hvcurveto
          -19 12 -13 25 -6 vhcurveto
          19 4 rlineto
          25 hlineto
          -16 -35 rlineto
          -35 -46 -18 -31 -17 vvcurveto
          -18 3 9 -9 13 hhcurveto
          25 36 52 104 48 hvcurveto
          13 44 15 87 18 vhcurveto
          4 hlineto
          21 -73 18 -55 17 -37 rrcurveto
          -46 6 13 -23 19 hhcurveto
          21 9 10 11 12 vvcurveto
          2 vlineto
          -44 132 -22 73 14 vvcurveto
          4 vlineto
          4 2 rlineto
          85 25 42 21 17 vvcurveto
          23 -1 -9 12 -15 hhcurveto
          -115 -42 -4 4 -31 231 rlineto
          60 -11 30 -23 vhcurveto
          -16 -190 rmoveto
          5 8 -49 -98 10 hvcurveto
          -9 -27 -11 -55 -11 vhcurveto
          142 427 rmoveto
          1 9 -8 10 -16 11 rrcurveto
          -27 -15 -8 -17 -1 hvcurveto
          5 -22 9 -11 14 -1 23 1 13 10 2 18 rrcurveto
          -113 5 rmoveto
          1 14 -8 11 -19 8 -23 -5 -12 -10 -1 -16 1 -19 8 -10 13 -1 18 -1 13 9 9 20 rrcurveto
          endchar
        </CharString>
        <CharString name="Agrave">
          105 227 594 rmoveto
          -40 -146 -37 -115 -35 -83 rrcurveto
          -27 -19 -14 -37 vhcurveto
          -25 10 rlineto
          -19 -15 -12 -23 -10 hvcurveto
          -19 12 -13 25 -6 vhcurveto
          19 4 rlineto
          25 hlineto
          -16 -35 rlineto
          -35 -46 -18 -31 -17 vvcurveto
          -18 3 9 -9 13 hhcurveto
          25 36 52 104 48 hvcurveto
          13 44 15 87 18 vhcurveto
          4 hlineto
          21 -73 18 -55 17 -37 rrcurveto
          -46 6 13 -23 19 hhcurveto
          21 9 10 11 12 vvcurveto
          2 vlineto
          -44 132 -22 73 14 vvcurveto
          4 vlineto
          4 2 rlineto
          85 25 42 21 17 vvcurveto
          23 -1 -9 12 -15 hhcurveto
          -115 -42 -4 4 -31 231 rlineto
          60 -11 30 -23 vhcurveto
          -16 -190 rmoveto
          5 8 -49 -98 10 hvcurveto
          -9 -27 -11 -55 -11 vhcurveto
          173 470 rmoveto
          -1 15 -8 10 -17 5 -83 59 -57 33 -29 8 -15 -1 -9 -10 -2 -19 -19 -23 46 -34 110 -46 7 -9 19 -9 33 -9 13 1 9 10 3 19 rrcurveto
          endchar
        </CharString>
        <CharString name="Amacron">
          105 227 594 rmoveto
          -40 -146 -37 -115 -35 -83 rrcurveto
          -27 -19 -14 -37 vhcurveto
          -25 10 rlineto
          -19 -15 -12 -23 -10 hvcurveto
          -19 12 -13 25 -6 vhcurveto
          19 4 rlineto
          25 hlineto
          -16 -35 rlineto
          -35 -46 -18 -31 -17 vvcurveto
          -18 3 9 -9 13 hhcurveto
          25 36 52 104 48 hvcurveto
          13 44 15 87 18 vhcurveto
          4 hlineto
          21 -73 18 -55 17 -37 rrcurveto
          -46 6 13 -23 19 hhcurveto
          21 9 10 11 12 vvcurveto
          2 vlineto
          -44 132 -22 73 14 vvcurveto
          4 vlineto
          4 2 rlineto
          85 25 42 21 17 vvcurveto
          23 -1 -9 12 -15 hhcurveto
          -115 -42 -4 4 -31 231 rlineto
          60 -11 30 -23 vhcurveto
          -16 -190 rmoveto
          5 8 -49 -98 10 hvcurveto
          -9 -27 -11 -55 -11 vhcurveto
          -17 475 rmoveto
          -6 hlineto
          -38 9 rlineto
          -18 -8 -9 -11 -13 vvcurveto
          -20 22 -12 43 -5 vhcurveto
          33 41 3 7 48 hvcurveto
          63 31 10 21 hvcurveto
          21 -3 -10 10 -16 hhcurveto
          endchar
        </CharString>
        <CharString name="Aogonek">
          105 227 594 rmoveto
          -40 -146 -37 -115 -35 -83 rrcurveto
          -27 -19 -14 -37 vhcurveto
          -25 10 rlineto
          -19 -15 -12 -23 -10 hvcurveto
          -19 12 -13 25 -6 vhcurveto
          19 4 rlineto
          25 hlineto
          -16 -35 rlineto
          -35 -46 -18 -31 -17 vvcurveto
          -18 3 9 -9 13 hhcurveto
          25 36 52 104 48 hvcurveto
          13 44 15 87 18 vhcurveto
          4 hlineto
          21 -73 18 -55 17 -37 1 -11 2 -9 2 -9 rrcurveto
          -53 -31 -27 -37 -42 vvcurveto
          -33 23 -26 46 -19 vhcurveto
          70 15 44 23 19 29 19 29 -7 7 -32 -15 rrcurveto
          -82 -19 -41 -4 10 vvcurveto
          10 vlineto
          53 63 rlineto
          1 hlineto
          21 9 10 11 12 vvcurveto
          2 vlineto
          -44 132 -22 73 14 vvcurveto
          4 vlineto
          4 2 rlineto
          85 25 42 21 17 vvcurveto
          23 -1 -9 12 -15 hhcurveto
          -115 -42 -4 4 -31 231 rlineto
          60 -11 30 -23 vhcurveto
          -16 -190 rmoveto
          5 8 -49 -98 10 hvcurveto
          -9 -27 -11 -55 -11 vhcurveto
          endchar
        </CharString>
        <CharString name="Aring">
          105 262 774 rmoveto
          -12 -12 -2 -3 -12 hvcurveto
          -65 -28 -32 -41 -53 vvcurveto
          -6 vlineto
          -7 2 -10 5 -12 vhcurveto
          -23 15 24 -12 32 hhcurveto
          15 hlineto
          -38 -138 -36 -109 -33 -80 rrcurveto
          -27 -19 -14 -37 vhcurveto
          -25 10 rlineto
          -19 -15 -12 -23 -10 hvcurveto
          -19 12 -13 25 -6 vhcurveto
          19 4 rlineto
          25 hlineto
          -16 -35 rlineto
          -35 -46 -18 -31 -17 vvcurveto
          -18 3 9 -9 13 hhcurveto
          25 36 52 104 48 hvcurveto
          13 44 15 87 18 vhcurveto
          4 hlineto
          21 -73 18 -55 17 -37 rrcurveto
          -46 6 13 -23 19 hhcurveto
          21 9 10 11 12 vvcurveto
          2 vlineto
          -44 132 -22 73 14 vvcurveto
          4 vlineto
          4 2 rlineto
          85 25 42 21 17 vvcurveto
          23 -1 -9 12 -15 hhcurveto
          -115 -42 -4 4 -31 231 rlineto
          41 -5 27 -11 12 vhcurveto
          1 1 2 2 3 1 rrcurveto
          56 39 28 37 35 vvcurveto
          -3 12 rlineto
          37 -21 -31 18 -43 hhcurveto
          -83 -132 rmoveto
          30 9 25 19 20 vhcurveto
          23 3 12 5 6 vvcurveto
          9 5 4 10 26 18 -11 -21 9 vhcurveto
          -10 vlineto
          -63 -27 -34 -32 -42 hhcurveto
          -19 -9 12 23 hvcurveto
          57 -230 rmoveto
          5 8 -49 -98 10 hvcurveto
          -9 -27 -11 -55 -11 vhcurveto
          endchar
        </CharString>
        <CharString name="Atilde">
          105 227 594 rmoveto
          -40 -146 -37 -115 -35 -83 rrcurveto
          -27 -19 -14 -37 vhcurveto
          -25 10 rlineto
          -19 -15 -12 -23 -10 hvcurveto
          -19 12 -13 25 -6 vhcurveto
          19 4 rlineto
          25 hlineto
          -16 -35 rlineto
          -35 -46 -18 -31 -17 vvcurveto
          -18 3 9 -9 13 hhcurveto
          25 36 52 104 48 hvcurveto
          13 44 15 87 18 vhcurveto
          4 hlineto
          21 -73 18 -55 17 -37 rrcurveto
          -46 6 13 -23 19 hhcurveto
          21 9 10 11 12 vvcurveto
          2 vlineto
          -44 132 -22 73 14 vvcurveto
          4 vlineto
          4 2 rlineto
          85 25 42 21 17 vvcurveto
          23 -1 -9 12 -15 hhcurveto
          -115 -42 -4 4 -31 231 rlineto
          60 -11 30 -23 vhcurveto
          -16 -190 rmoveto
          5 8 -49 -98 10 hvcurveto
          -9 -27 -11 -55 -11 vhcurveto
          265 447 rmoveto
          -7 17 -4 21 -2 25 -30 55 -34 29 -37 2 -28 1 -23 -17 -19 -33 -18 -65 -18 -32 -19 1 rrcurveto
          -10 hlineto
          -44 27 -21 27 1 28 rrcurveto
          12 vlineto
          8 7 -32 33 -20 -4 -7 -41 rlinecurve
          4 -30 30 -67 39 -34 47 -3 rlinecurve
          29 -1 25 14 21 28 rrcurveto
          70 24 16 35 9 hhcurveto
          9 -1 35 -20 21 -30 7 -39 rlinecurve
          31 -23 16 -5 1 13 rrcurveto
          endchar
        </CharString>
        <CharString name="B">
          10 194 609 rmoveto
          -32 -29 -16 -31 -27 hvcurveto
          -4 hlineto
          15 -9 10 -18 7 vhcurveto
          -10 -10 -6 -11 -11 hvcurveto
          -5 -7 -151 -301 -7 hvcurveto
          -15 -13 -9 -11 -1 -7 rrcurveto
          -63 21 38 -31 53 hhcurveto
          16 26 7 14 36 hvcurveto
          111 73 55 80 88 vvcurveto
          15 vlineto
          73 -9 -34 37 -57 hhcurveto
          -47 -10 rlineto
          27 80 14 52 25 vvcurveto
          3 vlineto
          48 -6 -19 24 -31 hhcurveto
          -98 -322 rmoveto
          27 8 50 17 73 vhcurveto
          75 23 18 38 15 hhcurveto
          10 -23 hlineto
          -3 -57 -29 -80 -55 -103 rrcurveto
          34 -62 rmoveto
          68 47 40 34 31 hhcurveto
          4 hlineto
          29 15 -15 -31 -26 -8 -31 -15 -37 hvcurveto
          -85 -55 -56 -43 -57 hhcurveto
          -22 6 3 37 rlineto
          104 vlineto
          4 13 rlineto
          2 vlineto
          25 -2 rlineto
          endchar
        </CharString>
        <CharString name="C">
          133 146 519 rmoveto
          -21 -19 -8 -17 -19 hvcurveto
          -58 -87 -29 -95 -103 vvcurveto
          -13 vlineto
          9 -71 rlineto
          -83 31 56 -42 79 hhcurveto
          73 84 34 68 95 hvcurveto
          21 18 20 40 15 hvcurveto
          23 -3 -11 11 -17 hhcurveto
          -4 hlineto
          -89 -98 -84 -45 -70 hhcurveto
          -42 hlineto
          -62 12 -31 41 69 vvcurveto
          22 vlineto
          6 75 rlineto
          119 29 25 59 21 hhcurveto
          10 hlineto
          6 -7 rlineto
          -37 vlineto
          -4 -75 rlineto
          -13 10 -7 19 -1 vhcurveto
          6 hlineto
          25 14 13 34 54 vvcurveto
          65 -7 -27 33 -45 hhcurveto
          endchar
        </CharString>
        <CharString name="CR">
          273 endchar
        </CharString>
        <CharString name="Cacute">
          133 146 519 rmoveto
          -21 -19 -8 -17 -19 hvcurveto
          -58 -87 -29 -95 -103 vvcurveto
          -13 vlineto
          9 -71 rlineto
          -83 31 56 -42 79 hhcurveto
          73 84 34 68 95 hvcurveto
          21 18 20 40 15 hvcurveto
          23 -3 -11 11 -17 hhcurveto
          -4 hlineto
          -89 -98 -84 -45 -70 hhcurveto
          -42 hlineto
          -62 12 -31 41 69 vvcurveto
          22 vlineto
          6 75 rlineto
          119 29 25 59 21 hhcurveto
          10 hlineto
          6 -7 rlineto
          -37 vlineto
          -4 -75 rlineto
          -13 10 -7 19 -1 vhcurveto
          6 hlineto
          25 14 13 34 54 vvcurveto
          65 -7 -27 33 -45 hhcurveto
          -124 122 rmoveto
          3 -23 10 -13 16 -1 35 11 21 11 7 11 11 3 55 18 97 34 7 28 rcurveline
          -2 23 -9 13 -17 1 -23 2 -68 -26 -113 -54 -19 -6 -10 -13 -1 -19 rrcurveto
          endchar
        </CharString>
        <CharString name="Ccaron">
          133 146 519 rmoveto
          -21 -19 -8 -17 -19 hvcurveto
          -58 -87 -29 -95 -103 vvcurveto
          -13 vlineto
          9 -71 rlineto
          -83 31 56 -42 79 hhcurveto
          73 84 34 68 95 hvcurveto
          21 18 20 40 15 hvcurveto
          23 -3 -11 11 -17 hhcurveto
          -4 hlineto
          -89 -98 -84 -45 -70 hhcurveto
          -42 hlineto
          -62 12 -31 41 69 vvcurveto
          22 vlineto
          6 75 rlineto
          119 29 25 59 21 hhcurveto
          10 hlineto
          6 -7 rlineto
          -37 vlineto
          -4 -75 rlineto
          -13 10 -7 19 -1 vhcurveto
          6 hlineto
          25 14 13 34 54 vvcurveto
          65 -7 -27 33 -45 hhcurveto
          65 85 rmoveto
          23 46 44 88 70 hvcurveto
          40 48 rlineto
          8 -9 5 -18 1 vhcurveto
          -2 hlineto
          -17 -31 -30 -59 -45 hvcurveto
          -27 -31 -17 -18 -7 -4 -67 80 -42 41 -17 2 -11 2 rcurveline
          -21 -5 -11 -6 -9 vvcurveto
          -5 11 -6 21 -7 vhcurveto
          115 -132 rlineto
          endchar
        </CharString>
        <CharString name="Ccedilla">
          133 146 519 rmoveto
          -21 -19 -8 -17 -19 hvcurveto
          -58 -87 -29 -95 -103 vvcurveto
          -13 vlineto
          9 -71 29 -77 49 -41 69 -7 rlinecurve
          -1 -9 -1 -13 -17 vvcurveto
          -27 17 -22 34 -16 vhcurveto
          64 -14 32 -16 -17 vvcurveto
          -10 vlineto
          -43 -24 -26 -22 -29 hhcurveto
          -11 hlineto
          -6 5 rlineto
          28 -3 -8 14 -13 hhcurveto
          -15 -3 -7 -8 -13 vvcurveto
          -2 vlineto
          -42 20 -23 41 -5 vhcurveto
          29 5 rlineto
          64 33 32 38 45 vvcurveto
          29 -15 23 -29 18 vhcurveto
          -69 19 -35 15 9 vvcurveto
          7 vlineto
          22 38 61 11 70 32 77 55 rlinecurve
          21 18 20 40 15 hvcurveto
          23 -3 -11 11 -17 hhcurveto
          -4 hlineto
          -89 -98 -84 -45 -70 hhcurveto
          -42 hlineto
          -62 12 -31 41 69 vvcurveto
          22 vlineto
          6 75 rlineto
          119 29 25 59 21 hhcurveto
          10 hlineto
          6 -7 rlineto
          -37 vlineto
          -4 -75 rlineto
          -13 10 -7 19 -1 vhcurveto
          6 hlineto
          25 14 13 34 54 vvcurveto
          65 -7 -27 33 -45 hhcurveto
          endchar
        </CharString>
        <CharString name="Ccircumflex">
          133 146 519 rmoveto
          -21 -19 -8 -17 -19 hvcurveto
          -58 -87 -29 -95 -103 vvcurveto
          -13 vlineto
          9 -71 rlineto
          -83 31 56 -42 79 hhcurveto
          73 84 34 68 95 hvcurveto
          21 18 20 40 15 hvcurveto
          23 -3 -11 11 -17 hhcurveto
          -4 hlineto
          -89 -98 -84 -45 -70 hhcurveto
          -42 hlineto
          -62 12 -31 41 69 vvcurveto
          22 vlineto
          6 75 rlineto
          119 29 25 59 21 hhcurveto
          10 hlineto
          6 -7 rlineto
          -37 vlineto
          -4 -75 rlineto
          -13 10 -7 19 -1 vhcurveto
          6 hlineto
          25 14 13 34 54 vvcurveto
          65 -7 -27 33 -45 hhcurveto
          29 263 rmoveto
          -105 -146 rlineto
          -19 -7 -10 -7 -5 vvcurveto
          -11 10 -7 19 -4 vhcurveto
          27 -15 5 14 32 42 59 70 rlinecurve
          9 13 13 -14 18 -43 rrcurveto
          48 -57 24 -30 -1 vvcurveto
          26 2 rlineto
          16 2 8 5 8 vvcurveto
          -38 54 rlineto
          96 -64 -42 48 -20 hhcurveto
          endchar
        </CharString>
        <CharString name="Cdotaccent">
          133 146 519 rmoveto
          -21 -19 -8 -17 -19 hvcurveto
          -58 -87 -29 -95 -103 vvcurveto
          -13 vlineto
          9 -71 rlineto
          -83 31 56 -42 79 hhcurveto
          73 84 34 68 95 hvcurveto
          21 18 20 40 15 hvcurveto
          23 -3 -11 11 -17 hhcurveto
          -4 hlineto
          -89 -98 -84 -45 -70 hhcurveto
          -42 hlineto
          -62 12 -31 41 69 vvcurveto
          22 vlineto
          6 75 rlineto
          119 29 25 59 21 hhcurveto
          10 hlineto
          6 -7 rlineto
          -37 vlineto
          -4 -75 rlineto
          -13 10 -7 19 -1 vhcurveto
          6 hlineto
          25 14 13 34 54 vvcurveto
          65 -7 -27 33 -45 hhcurveto
          43 190 rmoveto
          -24 -18 -16 -32 -11 hvcurveto
          -31 6 13 -15 20 hhcurveto
          27 16 15 31 6 hvcurveto
          32 -3 -12 16 -20 hhcurveto
          endchar
        </CharString>
        <CharString name="D">
          80 115 584 rmoveto
          -19 -17 -4 -9 -17 hvcurveto
          -41 -27 -21 -32 -37 vvcurveto
          -23 3 11 -12 17 hhcurveto
          25 16 rlineto
          3 hlineto
          -87 21 -130 41 -174 vhcurveto
          -2 -6 -23 hlineto
          -23 -1 -11 -10 -17 vvcurveto
          3 hlineto
          -19 12 -11 25 -1 vhcurveto
          25 hlineto
          43 41 8 17 39 hvcurveto
          118 55 59 85 116 vvcurveto
          49 -13 51 -27 53 vhcurveto
          100 -87 -90 50 -95 hhcurveto
          12 -59 rmoveto
          15 12 -2 -4 8 hvcurveto
          138 -40 69 -79 -119 vvcurveto
          -111 -62 -72 -123 -33 vhcurveto
          -3 hlineto
          -41 164 -21 137 111 vvcurveto
          48 vlineto
          endchar
        </CharString>
        <CharString name="Dcaron">
          80 115 584 rmoveto
          -19 -17 -4 -9 -17 hvcurveto
          -41 -27 -21 -32 -37 vvcurveto
          -23 3 11 -12 17 hhcurveto
          25 16 rlineto
          3 hlineto
          -87 21 -130 41 -174 vhcurveto
          -2 -6 -23 hlineto
          -23 -1 -11 -10 -17 vvcurveto
          3 hlineto
          -19 12 -11 25 -1 vhcurveto
          25 hlineto
          43 41 8 17 39 hvcurveto
          118 55 59 85 116 vvcurveto
          49 -13 51 -27 53 vhcurveto
          100 -87 -90 50 -95 hhcurveto
          12 -59 rmoveto
          15 12 -2 -4 8 hvcurveto
          138 -40 69 -79 -119 vvcurveto
          -111 -62 -72 -123 -33 vhcurveto
          -3 hlineto
          -41 164 -21 137 111 vvcurveto
          48 vlineto
          98 172 rmoveto
          23 46 44 88 70 hvcurveto
          40 48 rlineto
          8 -9 5 -18 1 vhcurveto
          -2 hlineto
          -17 -31 -30 -59 -45 hvcurveto
          -27 -31 -17 -18 -7 -4 -67 80 -42 41 -17 2 -11 2 rcurveline
          -21 -5 -11 -6 -9 vvcurveto
          -5 11 -6 21 -7 vhcurveto
          115 -132 rlineto
          endchar
        </CharString>
        <CharString name="E">
          63 319 577 rmoveto
          -15 -30 -17 -33 -43 hvcurveto
          -86 -97 -43 -105 -113 vvcurveto
          -5 -17 -7 -35 -10 vhcurveto
          -23 4 rlineto
          -18 -7 -9 -10 -15 vvcurveto
          -15 15 -11 31 -5 vhcurveto
          63 13 rlineto
          -96 33 52 -48 71 hhcurveto
          51 45 22 43 41 hvcurveto
          6 vlineto
          13 -7 9 -14 7 vhcurveto
          -12 hlineto
          -27 -43 -32 -14 -23 hhcurveto
          -34 6 rlineto
          -48 27 -24 32 38 vvcurveto
          9 vlineto
          3 22 14 44 24 vhcurveto
          59 22 29 15 7 vvcurveto
          19 vlineto
          14 -11 -10 7 -8 hhcurveto
          -29 -7 -41 -18 -55 -27 rrcurveto
          18 vlineto
          25 110 38 78 53 46 rrcurveto
          42 21 21 16 13 vvcurveto
          21 -5 -8 10 -12 hhcurveto
          endchar
        </CharString>
        <CharString name="Eacute">
          63 319 577 rmoveto
          -15 -30 -17 -33 -43 hvcurveto
          -86 -97 -43 -105 -113 vvcurveto
          -5 -17 -7 -35 -10 vhcurveto
          -23 4 rlineto
          -18 -7 -9 -10 -15 vvcurveto
          -15 15 -11 31 -5 vhcurveto
          63 13 rlineto
          -96 33 52 -48 71 hhcurveto
          51 45 22 43 41 hvcurveto
          6 vlineto
          13 -7 9 -14 7 vhcurveto
          -12 hlineto
          -27 -43 -32 -14 -23 hhcurveto
          -34 6 rlineto
          -48 27 -24 32 38 vvcurveto
          9 vlineto
          3 22 14 44 24 vhcurveto
          59 22 29 15 7 vvcurveto
          19 vlineto
          14 -11 -10 7 -8 hhcurveto
          -29 -7 -41 -18 -55 -27 rrcurveto
          18 vlineto
          25 110 38 78 53 46 rrcurveto
          42 21 21 16 13 vvcurveto
          21 -5 -8 10 -12 hhcurveto
          -148 78 rmoveto
          3 -23 10 -13 16 -1 35 11 21 11 7 11 11 3 55 18 97 34 7 28 rcurveline
          -2 23 -9 13 -17 1 -23 2 -68 -26 -113 -54 -19 -6 -10 -13 -1 -19 rrcurveto
          endchar
        </CharString>
        <CharString name="Ebreve">
          63 319 577 rmoveto
          -15 -30 -17 -33 -43 hvcurveto
          -86 -97 -43 -105 -113 vvcurveto
          -5 -17 -7 -35 -10 vhcurveto
          -23 4 rlineto
          -18 -7 -9 -10 -15 vvcurveto
          -15 15 -11 31 -5 vhcurveto
          63 13 rlineto
          -96 33 52 -48 71 hhcurveto
          51 45 22 43 41 hvcurveto
          6 vlineto
          13 -7 9 -14 7 vhcurveto
          -12 hlineto
          -27 -43 -32 -14 -23 hhcurveto
          -34 6 rlineto
          -48 27 -24 32 38 vvcurveto
          9 vlineto
          3 22 14 44 24 vhcurveto
          59 22 29 15 7 vvcurveto
          19 vlineto
          14 -11 -10 7 -8 hhcurveto
          -29 -7 -41 -18 -55 -27 rrcurveto
          18 vlineto
          25 110 38 78 53 46 rrcurveto
          42 21 21 16 13 vvcurveto
          21 -5 -8 10 -12 hhcurveto
          -43 214 rmoveto
          -7 -63 -27 -31 -48 3 rrcurveto
          -22 -11 12 23 hvcurveto
          51 vlineto
          -37 1 -5 -20 2 -25 8 -29 rlinecurve
          8 -29 25 -14 42 1 14 -1 21 7 27 13 27 14 16 34 3 53 rrcurveto
          endchar
        </CharString>
        <CharString name="Ecaron">
          63 319 577 rmoveto
          -15 -30 -17 -33 -43 hvcurveto
          -86 -97 -43 -105 -113 vvcurveto
          -5 -17 -7 -35 -10 vhcurveto
          -23 4 rlineto
          -18 -7 -9 -10 -15 vvcurveto
          -15 15 -11 31 -5 vhcurveto
          63 13 rlineto
          -96 33 52 -48 71 hhcurveto
          51 45 22 43 41 hvcurveto
          6 vlineto
          13 -7 9 -14 7 vhcurveto
          -12 hlineto
          -27 -43 -32 -14 -23 hhcurveto
          -34 6 rlineto
          -48 27 -24 32 38 vvcurveto
          9 vlineto
          3 22 14 44 24 vhcurveto
          59 22 29 15 7 vvcurveto
          19 vlineto
          14 -11 -10 7 -8 hhcurveto
          -29 -7 -41 -18 -55 -27 rrcurveto
          18 vlineto
          25 110 38 78 53 46 rrcurveto
          42 21 21 16 13 vvcurveto
          21 -5 -8 10 -12 hhcurveto
          -110 120 rmoveto
          23 46 44 88 70 hvcurveto
          40 48 rlineto
          8 -9 5 -18 1 vhcurveto
          -2 hlineto
          -17 -31 -30 -59 -45 hvcurveto
          -27 -31 -17 -18 -7 -4 -67 80 -42 41 -17 2 -11 2 rcurveline
          -21 -5 -11 -6 -9 vvcurveto
          -5 11 -6 21 -7 vhcurveto
          115 -132 rlineto
          endchar
        </CharString>
        <CharString name="Ecircumflex">
          63 319 577 rmoveto
          -15 -30 -17 -33 -43 hvcurveto
          -86 -97 -43 -105 -113 vvcurveto
          -5 -17 -7 -35 -10 vhcurveto
          -23 4 rlineto
          -18 -7 -9 -10 -15 vvcurveto
          -15 15 -11 31 -5 vhcurveto
          63 13 rlineto
          -96 33 52 -48 71 hhcurveto
          51 45 22 43 41 hvcurveto
          6 vlineto
          13 -7 9 -14 7 vhcurveto
          -12 hlineto
          -27 -43 -32 -14 -23 hhcurveto
          -34 6 rlineto
          -48 27 -24 32 38 vvcurveto
          9 vlineto
          3 22 14 44 24 vhcurveto
          59 22 29 15 7 vvcurveto
          19 vlineto
          14 -11 -10 7 -8 hhcurveto
          -29 -7 -41 -18 -55 -27 rrcurveto
          18 vlineto
          25 110 38 78 53 46 rrcurveto
          42 21 21 16 13 vvcurveto
          21 -5 -8 10 -12 hhcurveto
          -88 227 rmoveto
          -105 -146 rlineto
          -19 -7 -10 -7 -5 vvcurveto
          -11 10 -7 19 -4 vhcurveto
          27 -15 5 14 32 42 59 70 rlinecurve
          9 13 13 -14 18 -43 rrcurveto
          48 -57 24 -30 -1 vvcurveto
          26 2 rlineto
          16 2 8 5 8 vvcurveto
          -38 54 rlineto
          96 -64 -42 48 -20 hhcurveto
          endchar
        </CharString>
        <CharString name="Edieresis">
          63 319 577 rmoveto
          -15 -30 -17 -33 -43 hvcurveto
          -86 -97 -43 -105 -113 vvcurveto
          -5 -17 -7 -35 -10 vhcurveto
          -23 4 rlineto
          -18 -7 -9 -10 -15 vvcurveto
          -15 15 -11 31 -5 vhcurveto
          63 13 rlineto
          -96 33 52 -48 71 hhcurveto
          51 45 22 43 41 hvcurveto
          6 vlineto
          13 -7 9 -14 7 vhcurveto
          -12 hlineto
          -27 -43 -32 -14 -23 hhcurveto
          -34 6 rlineto
          -48 27 -24 32 38 vvcurveto
          9 vlineto
          3 22 14 44 24 vhcurveto
          59 22 29 15 7 vvcurveto
          19 vlineto
          14 -11 -10 7 -8 hhcurveto
          -29 -7 -41 -18 -55 -27 rrcurveto
          18 vlineto
          25 110 38 78 53 46 rrcurveto
          42 21 21 16 13 vvcurveto
          21 -5 -8 10 -12 hhcurveto
          -18 76 rmoveto
          1 9 -8 10 -16 11 rrcurveto
          -27 -15 -8 -17 -1 hvcurveto
          5 -22 9 -11 14 -1 23 1 13 10 2 18 rrcurveto
          -113 5 rmoveto
          1 14 -8 11 -19 8 -23 -5 -12 -10 -1 -16 1 -19 8 -10 13 -1 18 -1 13 9 9 20 rrcurveto
          endchar
        </CharString>
        <CharString name="Edotaccent">
          63 319 577 rmoveto
          -15 -30 -17 -33 -43 hvcurveto
          -86 -97 -43 -105 -113 vvcurveto
          -5 -17 -7 -35 -10 vhcurveto
          -23 4 rlineto
          -18 -7 -9 -10 -15 vvcurveto
          -15 15 -11 31 -5 vhcurveto
          63 13 rlineto
          -96 33 52 -48 71 hhcurveto
          51 45 22 43 41 hvcurveto
          6 vlineto
          13 -7 9 -14 7 vhcurveto
          -12 hlineto
          -27 -43 -32 -14 -23 hhcurveto
          -34 6 rlineto
          -48 27 -24 32 38 vvcurveto
          9 vlineto
          3 22 14 44 24 vhcurveto
          59 22 29 15 7 vvcurveto
          19 vlineto
          14 -11 -10 7 -8 hhcurveto
          -29 -7 -41 -18 -55 -27 rrcurveto
          18 vlineto
          25 110 38 78 53 46 rrcurveto
          42 21 21 16 13 vvcurveto
          21 -5 -8 10 -12 hhcurveto
          -47 117 rmoveto
          -24 -18 -16 -32 -11 hvcurveto
          -31 6 13 -15 20 hhcurveto
          27 16 15 31 6 hvcurveto
          32 -3 -12 16 -20 hhcurveto
          endchar
        </CharString>
        <CharString name="Egrave">
          63 319 577 rmoveto
          -15 -30 -17 -33 -43 hvcurveto
          -86 -97 -43 -105 -113 vvcurveto
          -5 -17 -7 -35 -10 vhcurveto
          -23 4 rlineto
          -18 -7 -9 -10 -15 vvcurveto
          -15 15 -11 31 -5 vhcurveto
          63 13 rlineto
          -96 33 52 -48 71 hhcurveto
          51 45 22 43 41 hvcurveto
          6 vlineto
          13 -7 9 -14 7 vhcurveto
          -12 hlineto
          -27 -43 -32 -14 -23 hhcurveto
          -34 6 rlineto
          -48 27 -24 32 38 vvcurveto
          9 vlineto
          3 22 14 44 24 vhcurveto
          59 22 29 15 7 vvcurveto
          19 vlineto
          14 -11 -10 7 -8 hhcurveto
          -29 -7 -41 -18 -55 -27 rrcurveto
          18 vlineto
          25 110 38 78 53 46 rrcurveto
          42 21 21 16 13 vvcurveto
          21 -5 -8 10 -12 hhcurveto
          85 61 rmoveto
          -1 15 -8 10 -17 5 -83 59 -57 33 -29 8 -15 -1 -9 -10 -2 -19 -19 -23 46 -34 110 -46 7 -9 19 -9 33 -9 13 1 9 10 3 19 rrcurveto
          endchar
        </CharString>
        <CharString name="Emacron">
          63 319 577 rmoveto
          -15 -30 -17 -33 -43 hvcurveto
          -86 -97 -43 -105 -113 vvcurveto
          -5 -17 -7 -35 -10 vhcurveto
          -23 4 rlineto
          -18 -7 -9 -10 -15 vvcurveto
          -15 15 -11 31 -5 vhcurveto
          63 13 rlineto
          -96 33 52 -48 71 hhcurveto
          51 45 22 43 41 hvcurveto
          6 vlineto
          13 -7 9 -14 7 vhcurveto
          -12 hlineto
          -27 -43 -32 -14 -23 hhcurveto
          -34 6 rlineto
          -48 27 -24 32 38 vvcurveto
          9 vlineto
          3 22 14 44 24 vhcurveto
          59 22 29 15 7 vvcurveto
          19 vlineto
          14 -11 -10 7 -8 hhcurveto
          -29 -7 -41 -18 -55 -27 rrcurveto
          18 vlineto
          25 110 38 78 53 46 rrcurveto
          42 21 21 16 13 vvcurveto
          21 -5 -8 10 -12 hhcurveto
          -136 137 rmoveto
          -6 hlineto
          -38 9 rlineto
          -18 -8 -9 -11 -13 vvcurveto
          -20 22 -12 43 -5 vhcurveto
          33 41 3 7 48 hvcurveto
          63 31 10 21 hvcurveto
          21 -3 -10 10 -16 hhcurveto
          endchar
        </CharString>
        <CharString name="Eogonek">
          63 319 577 rmoveto
          -15 -30 -17 -33 -43 hvcurveto
          -86 -97 -43 -105 -113 vvcurveto
          -5 -17 -7 -35 -10 vhcurveto
          -23 4 rlineto
          -18 -7 -9 -10 -15 vvcurveto
          -15 15 -11 31 -5 vhcurveto
          63 13 30 -88 46 -48 61 -8 rlinecurve
          -17 -20 -8 -22 -23 vvcurveto
          -33 23 -27 46 -19 vhcurveto
          70 16 44 23 19 29 19 29 -7 7 -33 -15 rrcurveto
          -81 -19 -41 -5 10 vvcurveto
          10 vlineto
          64 78 21 11 19 15 18 20 rlinecurve
          6 vlineto
          13 -7 9 -14 7 vhcurveto
          -12 hlineto
          -27 -43 -32 -14 -23 hhcurveto
          -34 6 rlineto
          -48 27 -24 32 38 vvcurveto
          9 vlineto
          3 22 14 44 24 vhcurveto
          59 22 29 15 7 vvcurveto
          19 vlineto
          14 -11 -10 7 -8 hhcurveto
          -29 -7 -41 -18 -55 -27 rrcurveto
          18 vlineto
          25 110 38 78 53 46 rrcurveto
          42 21 21 16 13 vvcurveto
          21 -5 -8 10 -12 hhcurveto
          endchar
        </CharString>
        <CharString name="Eth">
          92 11 475 rmoveto
          -23 3 11 -12 17 hhcurveto
          17 10 8 -124 rlineto
          -31 hlineto
          -46 13 rlineto
          -10 hlineto
          -14 -11 -7 -10 -7 vvcurveto
          -25 31 -14 62 -5 vhcurveto
          19 hlineto
          3 -91 4 -72 4 -53 rrcurveto
          -5 -4 -3 -7 -9 vvcurveto
          2 hlineto
          -11 4 -8 7 -5 vhcurveto
          60 -7 39 1 38 8 37 16 rlinecurve
          119 55 59 85 116 vvcurveto
          49 -13 51 -27 53 vhcurveto
          100 -87 -91 50 -95 hhcurveto
          -18 -17 -4 -9 -17 hvcurveto
          -42 -27 -21 -32 -37 vvcurveto
          128 50 rmoveto
          15 11 -2 -4 9 hvcurveto
          137 -40 69 -79 -119 vvcurveto
          -111 -62 -72 -123 -33 vhcurveto
          -54 hlineto
          -7 83 -4 72 60 vvcurveto
          104 37 rlineto
          45 23 11 23 15 -9 10 -19 4 hvcurveto
          -20 -48 -12 -23 -76 hvcurveto
          -3 hlineto
          -7 34 -3 31 29 vvcurveto
          12 vlineto
          3 23 10 51 rlineto
          endchar
        </CharString>
        <CharString name="Euro">
          133 69 280 rmoveto
          6 50 77 6 rlineto
          15 6 7 8 11 vvcurveto
          19 -11 11 -23 4 vhcurveto
          -58 -4 4 25 26 99 71 57 117 17 rlinecurve
          80 -7 15 20 -49 45 -126 5 -87 -35 -47 -73 -31 -47 -21 -52 -13 -59 rrcurveto
          -6 hlineto
          -48 13 rlineto
          -14 -10 -10 -19 -7 hvcurveto
          7 -27 26 -15 43 -2 -7 -52 rcurveline
          -16 hlineto
          -35 6 rlineto
          -7 hlineto
          -12 -9 -6 -8 -8 vvcurveto
          -27 24 -14 47 -3 vhcurveto
          -2 vlineto
          -13 vlineto
          9 -71 rlineto
          -83 31 56 -42 79 hhcurveto
          73 84 34 68 95 hvcurveto
          21 18 20 40 15 hvcurveto
          23 -3 -11 11 -17 hhcurveto
          -4 hlineto
          -89 -98 -84 -45 -70 hhcurveto
          -42 hlineto
          -62 12 -31 41 69 vvcurveto
          22 vlineto
          1 11 21 3 16 3 13 4 rlinecurve
          48 24 11 23 hvcurveto
          13 vlineto
          -4 7 -6 6 -8 3 rrcurveto
          endchar
        </CharString>
        <CharString name="F">
          40 321 626 rmoveto
          -23 -21 -7 -15 -21 hvcurveto
          -91 -78 -46 -91 -103 vvcurveto
          -56 vlineto
          -32 -4 rlineto
          -18 hlineto
          -25 7 rlineto
          -15 -10 -9 -19 -7 hvcurveto
          -23 22 -14 43 -4 vhcurveto
          48 6 rlineto
          8 -53 4 -48 -43 vvcurveto
          -40 -5 -34 -11 -28 vhcurveto
          -17 9 10 -8 10 hhcurveto
          31 15 38 77 hvcurveto
          -12 162 rlineto
          7 vlineto
          33 15 50 10 67 6 18 -3 rcurveline
          13 10 9 19 6 hvcurveto
          18 -15 12 -29 5 vhcurveto
          -24 -52 -10 -19 -80 hvcurveto
          -4 41 hlineto
          23 3 25 7 27 vhcurveto
          106 48 43 53 37 hhcurveto
          4 hlineto
          33 -9 rlineto
          19 11 10 11 10 vvcurveto
          25 -6 -20 12 -34 hhcurveto
          endchar
        </CharString>
        <CharString name="G">
          113 316 751 rmoveto
          -47 -53 -30 -60 -59 hvcurveto
          -91 -126 -46 -135 -143 vvcurveto
          -15 vlineto
          -41 7 -46 14 -50 vhcurveto
          -117 53 66 -58 81 hhcurveto
          43 6 28 9 14 12 rrcurveto
          85 69 43 86 105 vvcurveto
          93 -41 69 -81 47 vhcurveto
          -6 hlineto
          -23 -43 -75 -150 -63 hvcurveto
          -23 3 11 -11 18 hhcurveto
          22 15 42 97 28 56 14 16 rlinecurve
          6 hlineto
          36 -36 18 -45 -53 vvcurveto
          -4 -41 rlineto
          -125 -30 -51 -62 -71 hhcurveto
          -32 6 rlineto
          -85 38 -43 85 133 vvcurveto
          83 17 83 33 82 vhcurveto
          34 87 48 60 61 34 rrcurveto
          49 11 24 14 15 vvcurveto
          21 -9 -9 10 -11 hhcurveto
          endchar
        </CharString>
        <CharString name="Gbreve">
          113 316 751 rmoveto
          -47 -53 -30 -60 -59 hvcurveto
          -91 -126 -46 -135 -143 vvcurveto
          -15 vlineto
          -41 7 -46 14 -50 vhcurveto
          -117 53 66 -58 81 hhcurveto
          43 6 28 9 14 12 rrcurveto
          85 69 43 86 105 vvcurveto
          93 -41 69 -81 47 vhcurveto
          -6 hlineto
          -23 -43 -75 -150 -63 hvcurveto
          -23 3 11 -11 18 hhcurveto
          22 15 42 97 28 56 14 16 rlinecurve
          6 hlineto
          36 -36 18 -45 -53 vvcurveto
          -4 -41 rlineto
          -125 -30 -51 -62 -71 hhcurveto
          -32 6 rlineto
          -85 38 -43 85 133 vvcurveto
          83 17 83 33 82 vhcurveto
          34 87 48 60 61 34 rrcurveto
          49 11 24 14 15 vvcurveto
          21 -9 -9 10 -11 hhcurveto
          -20 170 rmoveto
          -7 -63 -27 -31 -48 3 rrcurveto
          -22 -11 12 23 hvcurveto
          51 vlineto
          -37 1 -5 -20 2 -25 8 -29 rlinecurve
          8 -29 25 -14 42 1 14 -1 21 7 27 13 27 14 16 34 3 53 rrcurveto
          endchar
        </CharString>
        <CharString name="Gcircumflex">
          113 316 751 rmoveto
          -47 -53 -30 -60 -59 hvcurveto
          -91 -126 -46 -135 -143 vvcurveto
          -15 vlineto
          -41 7 -46 14 -50 vhcurveto
          -117 53 66 -58 81 hhcurveto
          43 6 28 9 14 12 rrcurveto
          85 69 43 86 105 vvcurveto
          93 -41 69 -81 47 vhcurveto
          -6 hlineto
          -23 -43 -75 -150 -63 hvcurveto
          -23 3 11 -11 18 hhcurveto
          22 15 42 97 28 56 14 16 rlinecurve
          6 hlineto
          36 -36 18 -45 -53 vvcurveto
          -4 -41 rlineto
          -125 -30 -51 -62 -71 hhcurveto
          -32 6 rlineto
          -85 38 -43 85 133 vvcurveto
          83 17 83 33 82 vhcurveto
          34 87 48 60 61 34 rrcurveto
          49 11 24 14 15 vvcurveto
          21 -9 -9 10 -11 hhcurveto
          -97 311 rmoveto
          -105 -146 rlineto
          -19 -7 -10 -7 -5 vvcurveto
          -11 10 -7 19 -4 vhcurveto
          27 -15 5 14 32 42 59 70 rlinecurve
          9 13 13 -14 18 -43 rrcurveto
          48 -57 24 -30 -1 vvcurveto
          26 2 rlineto
          16 2 8 5 8 vvcurveto
          -38 54 rlineto
          96 -64 -42 48 -20 hhcurveto
          endchar
        </CharString>
        <CharString name="Gcommaaccent">
          113 316 751 rmoveto
          -47 -53 -30 -60 -59 hvcurveto
          -91 -126 -46 -135 -143 vvcurveto
          -15 vlineto
          -41 7 -46 14 -50 vhcurveto
          -117 53 66 -58 81 hhcurveto
          43 6 28 9 14 12 rrcurveto
          85 69 43 86 105 vvcurveto
          93 -41 69 -81 47 vhcurveto
          -6 hlineto
          -23 -43 -75 -150 -63 hvcurveto
          -23 3 11 -11 18 hhcurveto
          22 15 42 97 28 56 14 16 rlinecurve
          6 hlineto
          36 -36 18 -45 -53 vvcurveto
          -4 -41 rlineto
          -125 -30 -51 -62 -71 hhcurveto
          -32 6 rlineto
          -85 38 -43 85 133 vvcurveto
          83 17 83 33 82 vhcurveto
          34 87 48 60 61 34 rrcurveto
          49 11 24 14 15 vvcurveto
          21 -9 -9 10 -11 hhcurveto
          -31 -946 rmoveto
          -51 21 -17 -31 15 -85 -41 -45 rcurveline
          11 -70 36 15 62 99 rrcurveto
          endchar
        </CharString>
        <CharString name="Gdotaccent">
          113 316 751 rmoveto
          -47 -53 -30 -60 -59 hvcurveto
          -91 -126 -46 -135 -143 vvcurveto
          -15 vlineto
          -41 7 -46 14 -50 vhcurveto
          -117 53 66 -58 81 hhcurveto
          43 6 28 9 14 12 rrcurveto
          85 69 43 86 105 vvcurveto
          93 -41 69 -81 47 vhcurveto
          -6 hlineto
          -23 -43 -75 -150 -63 hvcurveto
          -23 3 11 -11 18 hhcurveto
          22 15 42 97 28 56 14 16 rlinecurve
          6 hlineto
          36 -36 18 -45 -53 vvcurveto
          -4 -41 rlineto
          -125 -30 -51 -62 -71 hhcurveto
          -32 6 rlineto
          -85 38 -43 85 133 vvcurveto
          83 17 83 33 82 vhcurveto
          34 87 48 60 61 34 rrcurveto
          49 11 24 14 15 vvcurveto
          21 -9 -9 10 -11 hhcurveto
          -67 109 rmoveto
          -24 -18 -16 -32 -11 hvcurveto
          -31 6 13 -15 20 hhcurveto
          27 16 15 31 6 hvcurveto
          32 -3 -12 16 -20 hhcurveto
          endchar
        </CharString>
        <CharString name="H">
          55 99 557 rmoveto
          -21 -2 -11 -8 -15 vvcurveto
          7 -80 4 -95 2 -110 rrcurveto
          -2 vlineto
          -52 -31 -26 -23 -15 vvcurveto
          -15 8 -10 17 -6 vhcurveto
          9 2 44 23 rlineto
          -40 -5 -56 -10 -73 vhcurveto
          -23 4 9 -12 14 hhcurveto
          4 hlineto
          29 15 79 159 11 50 22 100 35 hvcurveto
          6 -102 hlineto
          -129 15 24 -65 32 hhcurveto
          15 10 9 19 7 hvcurveto
          -29 55 -15 59 61 vvcurveto
          43 vlineto
          85 12 100 23 113 vhcurveto
          18 -9 -10 9 -12 hhcurveto
          -13 -2 rlineto
          -13 -15 -68 -136 -16 hvcurveto
          -160 -62 rlineto
          -2 hlineto
          -6 156 rlineto
          81 -12 41 -23 vhcurveto
          endchar
        </CharString>
        <CharString name="Hbar">
          55 99 557 rmoveto
          -21 -2 -11 -8 -15 vvcurveto
          3 -35 2 -37 3 -41 rrcurveto
          -2 -3 -1 -4 -5 vvcurveto
          -5 1 -4 2 -4 vhcurveto
          3 -45 1 -49 1 -53 rrcurveto
          -2 vlineto
          -52 -31 -26 -23 -15 vvcurveto
          -15 8 -10 17 -6 vhcurveto
          9 2 44 23 rlineto
          -40 -5 -56 -10 -73 vhcurveto
          -23 4 9 -12 14 hhcurveto
          4 hlineto
          29 15 79 159 11 50 22 100 35 hvcurveto
          6 -102 hlineto
          -129 15 24 -65 32 hhcurveto
          15 10 9 19 7 hvcurveto
          -29 55 -15 59 61 vvcurveto
          43 vlineto
          85 12 100 23 113 vhcurveto
          18 -9 -10 9 -12 hhcurveto
          -13 -2 rlineto
          -10 -10 -35 -69 -11 hvcurveto
          -171 -11 rlineto
          -10 5 hlineto
          81 -12 41 -23 vhcurveto
          37 -187 rmoveto
          1 hlineto
          33 41 3 7 49 hvcurveto
          18 16 1 1 13 hvcurveto
          -1 -13 -2 -14 -2 -14 -160 -62 rcurveline
          -2 hlineto
          endchar
        </CharString>
        <CharString name="Hcircumflex">
          55 99 557 rmoveto
          -21 -2 -11 -8 -15 vvcurveto
          7 -80 4 -95 2 -110 rrcurveto
          -2 vlineto
          -52 -31 -26 -23 -15 vvcurveto
          -15 8 -10 17 -6 vhcurveto
          9 2 44 23 rlineto
          -40 -5 -56 -10 -73 vhcurveto
          -23 4 9 -12 14 hhcurveto
          4 hlineto
          29 15 79 159 11 50 22 100 35 hvcurveto
          6 -102 hlineto
          -129 15 24 -65 32 hhcurveto
          15 10 9 19 7 hvcurveto
          -29 55 -15 59 61 vvcurveto
          43 vlineto
          85 12 100 23 113 vhcurveto
          18 -9 -10 9 -12 hhcurveto
          -13 -2 rlineto
          -13 -15 -68 -136 -16 hvcurveto
          -160 -62 rlineto
          -2 hlineto
          -6 156 rlineto
          81 -12 41 -23 vhcurveto
          116 316 rmoveto
          -105 -146 rlineto
          -19 -7 -10 -7 -5 vvcurveto
          -11 10 -7 19 -4 vhcurveto
          27 -15 5 14 32 42 59 70 rlinecurve
          9 13 13 -14 18 -43 rrcurveto
          48 -57 24 -30 -1 vvcurveto
          26 2 rlineto
          16 2 8 5 8 vvcurveto
          -38 54 rlineto
          96 -64 -42 48 -20 hhcurveto
          endchar
        </CharString>
        <CharString name="I">
          -190 66 554 rmoveto
          -23 -11 -29 -59 hvcurveto
          -9 vlineto
          28 -260 rlineto
          -135 17 -67 33 vhcurveto
          23 4 12 9 14 vvcurveto
          -9 -7 36 71 -7 hvcurveto
          -4 72 -10 107 -17 143 rrcurveto
          19 vlineto
          6 59 rlineto
          17 -5 -11 8 -15 hhcurveto
          endchar
        </CharString>
        <CharString name="Iacute">
          -190 66 554 rmoveto
          -23 -11 -29 -59 hvcurveto
          -9 vlineto
          28 -260 rlineto
          -135 17 -67 33 vhcurveto
          23 4 12 9 14 vvcurveto
          -9 -7 36 71 -7 hvcurveto
          -4 72 -10 107 -17 143 rrcurveto
          19 vlineto
          6 59 rlineto
          17 -5 -11 8 -15 hhcurveto
          -125 139 rmoveto
          3 -23 10 -13 16 -1 35 11 21 11 7 11 11 3 55 18 97 34 7 28 rcurveline
          -2 23 -9 13 -17 1 -23 2 -68 -26 -113 -54 -19 -6 -10 -13 -1 -19 rrcurveto
          endchar
        </CharString>
        <CharString name="Ibreve">
          -190 66 554 rmoveto
          -23 -11 -29 -59 hvcurveto
          -9 vlineto
          28 -260 rlineto
          -135 17 -67 33 vhcurveto
          23 4 12 9 14 vvcurveto
          -9 -7 36 71 -7 hvcurveto
          -4 72 -10 107 -17 143 rrcurveto
          19 vlineto
          6 59 rlineto
          17 -5 -11 8 -15 hhcurveto
          85 237 rmoveto
          -7 -63 -27 -31 -48 3 rrcurveto
          -22 -11 12 23 hvcurveto
          51 vlineto
          -37 1 -5 -20 2 -25 8 -29 rlinecurve
          8 -29 25 -14 42 1 14 -1 21 7 27 13 27 14 16 34 3 53 rrcurveto
          endchar
        </CharString>
        <CharString name="Icircumflex">
          -190 66 554 rmoveto
          -23 -11 -29 -59 hvcurveto
          -9 vlineto
          28 -260 rlineto
          -135 17 -67 33 vhcurveto
          23 4 12 9 14 vvcurveto
          -9 -7 36 71 -7 hvcurveto
          -4 72 -10 107 -17 143 rrcurveto
          19 vlineto
          6 59 rlineto
          17 -5 -11 8 -15 hhcurveto
          -11 230 rmoveto
          -105 -146 rlineto
          -19 -7 -10 -7 -5 vvcurveto
          -11 10 -7 19 -4 vhcurveto
          27 -15 5 14 32 42 59 70 rlinecurve
          9 13 13 -14 18 -43 rrcurveto
          48 -57 24 -30 -1 vvcurveto
          26 2 rlineto
          16 2 8 5 8 vvcurveto
          -38 54 rlineto
          96 -64 -42 48 -20 hhcurveto
          endchar
        </CharString>
        <CharString name="Idieresis">
          -190 66 554 rmoveto
          -23 -11 -29 -59 hvcurveto
          -9 vlineto
          28 -260 rlineto
          -135 17 -67 33 vhcurveto
          23 4 12 9 14 vvcurveto
          -9 -7 36 71 -7 hvcurveto
          -4 72 -10 107 -17 143 rrcurveto
          19 vlineto
          6 59 rlineto
          17 -5 -11 8 -15 hhcurveto
          98 56 rmoveto
          1 9 -8 10 -16 11 rrcurveto
          -27 -15 -8 -17 -1 hvcurveto
          5 -22 9 -11 14 -1 23 1 13 10 2 18 rrcurveto
          -113 5 rmoveto
          1 14 -8 11 -19 8 -23 -5 -12 -10 -1 -16 1 -19 8 -10 13 -1 18 -1 13 9 9 20 rrcurveto
          endchar
        </CharString>
        <CharString name="Idotaccent">
          -190 66 554 rmoveto
          -23 -11 -29 -59 hvcurveto
          -9 vlineto
          28 -260 rlineto
          -135 17 -67 33 vhcurveto
          23 4 12 9 14 vvcurveto
          -9 -7 36 71 -7 hvcurveto
          -4 72 -10 107 -17 143 rrcurveto
          19 vlineto
          6 59 rlineto
          17 -5 -11 8 -15 hhcurveto
          31 306 rmoveto
          -24 -18 -16 -32 -11 hvcurveto
          -31 6 13 -15 20 hhcurveto
          27 16 15 31 6 hvcurveto
          32 -3 -12 16 -20 hhcurveto
          endchar
        </CharString>
        <CharString name="Igrave">
          -190 66 554 rmoveto
          -23 -11 -29 -59 hvcurveto
          -9 vlineto
          28 -260 rlineto
          -135 17 -67 33 vhcurveto
          23 4 12 9 14 vvcurveto
          -9 -7 36 71 -7 hvcurveto
          -4 72 -10 107 -17 143 rrcurveto
          19 vlineto
          6 59 rlineto
          17 -5 -11 8 -15 hhcurveto
          204 41 rmoveto
          -1 15 -8 10 -17 5 -83 59 -57 33 -29 8 -15 -1 -9 -10 -2 -19 -19 -23 46 -34 110 -46 7 -9 19 -9 33 -9 13 1 9 10 3 19 rrcurveto
          endchar
        </CharString>
        <CharString name="Iogonek">
          -190 66 554 rmoveto
          -23 -11 -29 -59 hvcurveto
          -9 vlineto
          28 -260 rlineto
          -82 6 -57 13 -32 vhcurveto
          -2 hlineto
          -57 -33 -28 -37 -42 vvcurveto
          -33 23 -27 46 -19 vhcurveto
          70 16 44 23 19 29 19 29 -7 7 -32 -15 rrcurveto
          -82 -19 -41 -5 10 vvcurveto
          10 vlineto
          63 76 rlineto
          21 4 10 9 13 vvcurveto
          -9 -7 36 71 -7 hvcurveto
          -4 72 -10 107 -17 143 rrcurveto
          19 vlineto
          6 59 rlineto
          17 -5 -11 8 -15 hhcurveto
          endchar
        </CharString>
        <CharString name="Itilde">
          -190 66 554 rmoveto
          -23 -11 -29 -59 hvcurveto
          -9 vlineto
          28 -260 rlineto
          -135 17 -67 33 vhcurveto
          23 4 12 9 14 vvcurveto
          -9 -7 36 71 -7 hvcurveto
          -4 72 -10 107 -17 143 rrcurveto
          19 vlineto
          6 59 rlineto
          17 -5 -11 8 -15 hhcurveto
          190 112 rmoveto
          -7 17 -4 21 -2 25 -30 55 -34 29 -37 2 -28 1 -23 -17 -19 -33 -18 -65 -18 -32 -19 1 rrcurveto
          -10 hlineto
          -44 27 -21 27 1 28 rrcurveto
          12 vlineto
          8 7 -32 33 -20 -4 -7 -41 rlinecurve
          4 -30 30 -67 39 -34 47 -3 rlinecurve
          29 -1 25 14 21 28 rrcurveto
          70 24 16 35 9 hhcurveto
          9 -1 35 -20 21 -30 7 -39 rlinecurve
          31 -23 16 -5 1 13 rrcurveto
          endchar
        </CharString>
        <CharString name="J">
          43 312 637 rmoveto
          -22 -11 -26 -52 hvcurveto
          2 -65 31 -375 rlineto
          -63 vlineto
          -27 -5 -15 -10 -5 vhcurveto
          -6 hlineto
          -13 -24 18 35 -35 hvcurveto
          -71 103 -55 60 -37 15 rrcurveto
          -17 -11 -13 -25 -6 hvcurveto
          7 -25 rlineto
          -21 8 19 -10 29 hhcurveto
          -131 91 68 -65 47 hhcurveto
          56 28 47 93 hvcurveto
          -23 247 -11 145 45 vvcurveto
          50 vlineto
          13 15 6 9 5 vvcurveto
          17 -10 10 -21 4 vhcurveto
          -17 hlineto
          endchar
        </CharString>
        <CharString name="Jcircumflex">
          43 312 637 rmoveto
          -22 -11 -26 -52 hvcurveto
          2 -65 31 -375 rlineto
          -63 vlineto
          -27 -5 -15 -10 -5 vhcurveto
          -6 hlineto
          -13 -24 18 35 -35 hvcurveto
          -71 103 -55 60 -37 15 rrcurveto
          -17 -11 -13 -25 -6 hvcurveto
          7 -25 rlineto
          -21 8 19 -10 29 hhcurveto
          -131 91 68 -65 47 hhcurveto
          56 28 47 93 hvcurveto
          -23 247 -11 145 45 vvcurveto
          50 vlineto
          13 15 6 9 5 vvcurveto
          17 -10 10 -21 4 vhcurveto
          -145 425 rmoveto
          -105 -146 rlineto
          -19 -7 -10 -7 -5 vvcurveto
          -11 10 -7 19 -4 vhcurveto
          27 -15 5 14 32 42 59 70 rlinecurve
          9 13 13 -14 18 -43 rrcurveto
          48 -57 24 -30 -1 vvcurveto
          26 2 rlineto
          16 2 8 5 8 vvcurveto
          -38 54 rlineto
          96 -64 -42 48 -20 hhcurveto
          endchar
        </CharString>
        <CharString name="K">
          163 129 647 rmoveto
          -8 -8 -3 -7 -9 hvcurveto
          -33 -75 -17 -103 -130 vvcurveto
          -142 vlineto
          -23 -11 -9 -18 -21 12 -20 25 -19 hvcurveto
          -119 vlineto
          -23 9 -11 19 21 10 11 23 vhcurveto
          116 6 vlineto
          -79 87 91 -39 95 hhcurveto
          15 hlineto
          58 29 8 17 hvcurveto
          8 vlineto
          15 -9 10 -18 7 vhcurveto
          -5 -9 -17 -2 -24 hhcurveto
          -38 hlineto
          -81 -79 39 78 -75 hvcurveto
          2 vlineto
          82 123 73 178 46 94 18 11 rlinecurve
          19 vlineto
          13 -7 -9 6 -11 hhcurveto
          -4 hlineto
          -11 -15 -13 -25 -20 hvcurveto
          -77 -191 -57 -116 -39 -39 rrcurveto
          -2 109 hlineto
          121 14 99 29 77 vhcurveto
          17 -7 -9 8 -12 hhcurveto
          endchar
        </CharString>
        <CharString name="Kcommaaccent">
          163 129 647 rmoveto
          -8 -8 -3 -7 -9 hvcurveto
          -33 -75 -17 -103 -130 vvcurveto
          -142 vlineto
          -23 -11 -9 -18 -21 12 -20 25 -19 hvcurveto
          -119 vlineto
          -23 9 -11 19 21 10 11 23 vhcurveto
          116 6 vlineto
          -79 87 91 -39 95 hhcurveto
          15 hlineto
          58 29 8 17 hvcurveto
          8 vlineto
          15 -9 10 -18 7 vhcurveto
          -5 -9 -17 -2 -24 hhcurveto
          -38 hlineto
          -81 -79 39 78 -75 hvcurveto
          2 vlineto
          82 123 73 178 46 94 18 11 rlinecurve
          19 vlineto
          13 -7 -9 6 -11 hhcurveto
          -4 hlineto
          -11 -15 -13 -25 -20 hvcurveto
          -77 -191 -57 -116 -39 -39 rrcurveto
          -2 109 hlineto
          121 14 99 29 77 vhcurveto
          17 -7 -9 8 -12 hhcurveto
          158 -762 rmoveto
          -51 21 -17 -31 15 -85 -41 -45 rcurveline
          11 -70 36 15 62 99 rrcurveto
          endchar
        </CharString>
        <CharString name="L">
          66 511 rmoveto
          -21 -3 -10 -9 -17 vvcurveto
          6 -100 rlineto
          -15 vlineto
          -21 -343 rlineto
          -15 9 -10 18 -7 vhcurveto
          48 13 rlineto
          19 hlineto
          102 -10 rlineto
          57 6 28 16 25 vvcurveto
          -4 12 -7 9 -11 7 rrcurveto
          -7 hlineto
          -50 -15 rlineto
          -8 hlineto
          -117 9 rlineto
          -8 hlineto
          -4 -3 rlineto
          3 -6 vlineto
          15 175 7 106 37 vvcurveto
          -4 54 rlineto
          50 -5 -10 25 -16 hhcurveto
          endchar
        </CharString>
        <CharString name="Lacute">
          66 511 rmoveto
          -21 -3 -10 -9 -17 vvcurveto
          6 -100 rlineto
          -15 vlineto
          -21 -343 rlineto
          -15 9 -10 18 -7 vhcurveto
          48 13 rlineto
          19 hlineto
          102 -10 rlineto
          57 6 28 16 25 vvcurveto
          -4 12 -7 9 -11 7 rrcurveto
          -7 hlineto
          -50 -15 rlineto
          -8 hlineto
          -117 9 rlineto
          -8 hlineto
          -4 -3 rlineto
          3 -6 vlineto
          15 175 7 106 37 vvcurveto
          -4 54 rlineto
          50 -5 -10 25 -16 hhcurveto
          -39 221 rmoveto
          3 -23 10 -13 16 -1 35 11 21 11 7 11 11 3 55 18 97 34 7 28 rcurveline
          -2 23 -9 13 -17 1 -23 2 -68 -26 -113 -54 -19 -6 -10 -13 -1 -19 rrcurveto
          endchar
        </CharString>
        <CharString name="Lcommaaccent">
          66 511 rmoveto
          -21 -3 -10 -9 -17 vvcurveto
          6 -100 rlineto
          -15 vlineto
          -21 -343 rlineto
          -15 9 -10 18 -7 vhcurveto
          48 13 rlineto
          19 hlineto
          102 -10 rlineto
          57 6 28 16 25 vvcurveto
          -4 12 -7 9 -11 7 rrcurveto
          -7 hlineto
          -50 -15 rlineto
          -8 hlineto
          -117 9 rlineto
          -8 hlineto
          -4 -3 rlineto
          3 -6 vlineto
          15 175 7 106 37 vvcurveto
          -4 54 rlineto
          50 -5 -10 25 -16 hhcurveto
          133 -626 rmoveto
          -51 21 -17 -31 15 -85 -41 -45 rcurveline
          11 -70 36 15 62 99 rrcurveto
          endchar
        </CharString>
        <CharString name="Ldot">
          66 511 rmoveto
          -21 -3 -10 -9 -17 vvcurveto
          6 -100 rlineto
          -15 vlineto
          -21 -343 rlineto
          -15 9 -10 18 -7 vhcurveto
          48 13 rlineto
          19 hlineto
          102 -10 rlineto
          57 6 28 16 25 vvcurveto
          -4 12 -7 9 -11 7 rrcurveto
          -7 hlineto
          -50 -15 rlineto
          -8 hlineto
          -117 9 rlineto
          -8 hlineto
          -4 -3 rlineto
          3 -6 vlineto
          15 175 7 106 37 vvcurveto
          -4 54 rlineto
          50 -5 -10 25 -16 hhcurveto
          143 -225 rmoveto
          -23 -18 -15 -31 -11 hvcurveto
          -31 6 13 -15 20 hhcurveto
          26 16 15 31 6 hvcurveto
          31 -3 -11 15 -21 hhcurveto
          endchar
        </CharString>
        <CharString name="Lslash">
          95 277 rmoveto
          4 52 2 35 18 vvcurveto
          -4 54 rlineto
          50 -5 -10 25 -16 hhcurveto
          -21 -3 -10 -9 -17 vvcurveto
          6 -100 rlineto
          -15 vlineto
          -6 -95 -24 -1 rlineto
          -6 hlineto
          -38 9 rlineto
          -18 -7 -9 -11 -13 vvcurveto
          -20 22 -13 43 -5 vhcurveto
          26 hlineto
          -11 -187 rlineto
          -15 9 -10 18 -7 vhcurveto
          48 13 rlineto
          19 hlineto
          102 -10 rlineto
          57 6 28 16 25 vvcurveto
          -4 12 -7 9 -11 7 rrcurveto
          -7 hlineto
          -50 -15 rlineto
          -8 hlineto
          -117 9 rlineto
          -8 hlineto
          -4 -3 rlineto
          3 -6 vlineto
          12 152 12 2 12 2 12 1 rlinecurve
          63 31 10 21 hvcurveto
          21 -3 -10 11 -16 hhcurveto
          endchar
        </CharString>
        <CharString name="M">
          68 307 730 rmoveto
          -31 -19 -56 -113 -6 hvcurveto
          -6 vlineto
          -4 -16 4 -3 -11 -63 -11 -49 -13 -35 rlinecurve
          -15 -60 -15 -43 -16 -25 -7 7 -18 50 -29 93 rrcurveto
          102 -20 -23 51 -26 hhcurveto
          -18 -9 -13 -25 hvcurveto
          -19 vlineto
          27 -265 rlineto
          -68 -8 -67 -17 -65 vhcurveto
          -33 2 12 -17 21 hhcurveto
          3 hlineto
          23 16 82 165 8 hvcurveto
          7 hlineto
          -55 21 18 -27 13 hhcurveto
          16 4 15 4 28 59 39 115 rlinecurve
          6 hlineto
          17 -128 17 -97 18 -65 27 -78 20 -41 13 -4 rrcurveto
          19 hlineto
          14 11 7 9 9 vvcurveto
          -50 125 rlineto
          -41 216 -21 144 71 vvcurveto
          25 190 rlineto
          10 -8 10 -17 9 vhcurveto
          endchar
        </CharString>
        <CharString name="N">
          65 95 552 rmoveto
          -23 -3 -11 -11 -17 vvcurveto
          25 -133 13 -108 -84 vvcurveto
          -93 -12 -63 -23 -31 vhcurveto
          -3 hlineto
          -19 16 rlineto
          -6 hlineto
          -16 -10 -10 -21 -5 hvcurveto
          -38 14 17 -19 21 hhcurveto
          25 3 rlineto
          50 38 25 85 131 vvcurveto
          -6 127 rlineto
          6 4 vlineto
          40 -109 37 -82 35 -55 rrcurveto
          -63 28 22 -31 15 hhcurveto
          15 11 8 17 6 hvcurveto
          -10 85 -5 65 47 vvcurveto
          53 vlineto
          42 1 2 21 3 hhcurveto
          46 25 60 50 75 vhcurveto
          23 -4 -10 11 -17 hhcurveto
          -73 -61 -37 -105 -149 vvcurveto
          -56 vlineto
          -15 18 -88 233 -60 122 -31 10 rlinecurve
          endchar
        </CharString>
        <CharString name="Nacute">
          65 95 552 rmoveto
          -23 -3 -11 -11 -17 vvcurveto
          25 -133 13 -108 -84 vvcurveto
          -93 -12 -63 -23 -31 vhcurveto
          -3 hlineto
          -19 16 rlineto
          -6 hlineto
          -16 -10 -10 -21 -5 hvcurveto
          -38 14 17 -19 21 hhcurveto
          25 3 rlineto
          50 38 25 85 131 vvcurveto
          -6 127 rlineto
          6 4 vlineto
          40 -109 37 -82 35 -55 rrcurveto
          -63 28 22 -31 15 hhcurveto
          15 11 8 17 6 hvcurveto
          -10 85 -5 65 47 vvcurveto
          53 vlineto
          42 1 2 21 3 hhcurveto
          46 25 60 50 75 vhcurveto
          23 -4 -10 11 -17 hhcurveto
          -73 -61 -37 -105 -149 vvcurveto
          -56 vlineto
          -15 18 -88 233 -60 122 -31 10 rlinecurve
          11 121 rmoveto
          3 -23 10 -13 16 -1 35 11 21 11 7 11 11 3 55 18 97 34 7 28 rcurveline
          -2 23 -9 13 -17 1 -23 2 -68 -26 -113 -54 -19 -6 -10 -13 -1 -19 rrcurveto
          endchar
        </CharString>
        <CharString name="Ncaron">
          65 95 552 rmoveto
          -23 -3 -11 -11 -17 vvcurveto
          25 -133 13 -108 -84 vvcurveto
          -93 -12 -63 -23 -31 vhcurveto
          -3 hlineto
          -19 16 rlineto
          -6 hlineto
          -16 -10 -10 -21 -5 hvcurveto
          -38 14 17 -19 21 hhcurveto
          25 3 rlineto
          50 38 25 85 131 vvcurveto
          -6 127 rlineto
          6 4 vlineto
          40 -109 37 -82 35 -55 rrcurveto
          -63 28 22 -31 15 hhcurveto
          15 11 8 17 6 hvcurveto
          -10 85 -5 65 47 vvcurveto
          53 vlineto
          42 1 2 21 3 hhcurveto
          46 25 60 50 75 vhcurveto
          23 -4 -10 11 -17 hhcurveto
          -73 -61 -37 -105 -149 vvcurveto
          -56 vlineto
          -15 18 -88 233 -60 122 -31 10 rlinecurve
          115 145 rmoveto
          23 46 44 88 70 hvcurveto
          40 48 rlineto
          8 -9 5 -18 1 vhcurveto
          -2 hlineto
          -17 -31 -30 -59 -45 hvcurveto
          -27 -31 -17 -18 -7 -4 -67 80 -42 41 -17 2 -11 2 rcurveline
          -21 -5 -11 -6 -9 vvcurveto
          -5 11 -6 21 -7 vhcurveto
          115 -132 rlineto
          endchar
        </CharString>
        <CharString name="Ncommaaccent">
          65 95 552 rmoveto
          -23 -3 -11 -11 -17 vvcurveto
          25 -133 13 -108 -84 vvcurveto
          -93 -12 -63 -23 -31 vhcurveto
          -3 hlineto
          -19 16 rlineto
          -6 hlineto
          -16 -10 -10 -21 -5 hvcurveto
          -38 14 17 -19 21 hhcurveto
          25 3 rlineto
          50 38 25 85 131 vvcurveto
          -6 127 rlineto
          6 4 vlineto
          40 -109 37 -82 35 -55 rrcurveto
          -63 28 22 -31 15 hhcurveto
          15 11 8 17 6 hvcurveto
          -10 85 -5 65 47 vvcurveto
          53 vlineto
          42 1 2 21 3 hhcurveto
          46 25 60 50 75 vhcurveto
          23 -4 -10 11 -17 hhcurveto
          -73 -61 -37 -105 -149 vvcurveto
          -56 vlineto
          -15 18 -88 233 -60 122 -31 10 rlinecurve
          160 -667 rmoveto
          -51 21 -17 -31 15 -85 -41 -45 rcurveline
          11 -70 36 15 62 99 rrcurveto
          endchar
        </CharString>
        <CharString name="Ntilde">
          65 95 552 rmoveto
          -23 -3 -11 -11 -17 vvcurveto
          25 -133 13 -108 -84 vvcurveto
          -93 -12 -63 -23 -31 vhcurveto
          -3 hlineto
          -19 16 rlineto
          -6 hlineto
          -16 -10 -10 -21 -5 hvcurveto
          -38 14 17 -19 21 hhcurveto
          25 3 rlineto
          50 38 25 85 131 vvcurveto
          -6 127 rlineto
          6 4 vlineto
          40 -109 37 -82 35 -55 rrcurveto
          -63 28 22 -31 15 hhcurveto
          15 11 8 17 6 hvcurveto
          -10 85 -5 65 47 vvcurveto
          53 vlineto
          42 1 2 21 3 hhcurveto
          46 25 60 50 75 vhcurveto
          23 -4 -10 11 -17 hhcurveto
          -73 -61 -37 -105 -149 vvcurveto
          -56 vlineto
          -15 18 -88 233 -60 122 -31 10 rlinecurve
          386 108 rmoveto
          -7 17 -4 21 -2 25 -30 55 -34 29 -37 2 -28 1 -23 -17 -19 -33 -18 -65 -18 -32 -19 1 rrcurveto
          -10 hlineto
          -44 27 -21 27 1 28 rrcurveto
          12 vlineto
          8 7 -32 33 -20 -4 -7 -41 rlinecurve
          4 -30 30 -67 39 -34 47 -3 rlinecurve
          29 -1 25 14 21 28 rrcurveto
          70 24 16 35 9 hhcurveto
          9 -1 35 -20 21 -30 7 -39 rlinecurve
          31 -23 16 -5 1 13 rrcurveto
          endchar
        </CharString>
        <CharString name="O">
          73 146 541 rmoveto
          -81 -27 -40 -69 -113 vvcurveto
          -10 vlineto
          -37 5 -39 10 -39 vhcurveto
          -150 44 72 -75 100 hhcurveto
          63 13 rlineto
          67 31 33 62 91 vvcurveto
          67 -23 77 -46 87 vhcurveto
          73 -54 -42 37 -29 hhcurveto
          17 -16 -15 8 -13 hhcurveto
          -10 hlineto
          -34 -100 rmoveto
          14 25 19 7 13 hhcurveto
          2 hlineto
          41 -12 rlineto
          79 -79 40 -90 -100 vvcurveto
          -31 vlineto
          -6 -44 rlineto
          -43 -15 -25 -22 -35 hhcurveto
          -38 hlineto
          -28 6 rlineto
          -83 56 -42 90 123 vvcurveto
          27 vlineto
          46 10 36 21 25 vhcurveto
          endchar
        </CharString>
        <CharString name="OE">
          390 641 586 rmoveto
          -15 -29 -17 -33 -43 hvcurveto
          -86 -97 -43 -105 -113 vvcurveto
          -3 -3 -2 -6 -2 vhcurveto
          -6 58 -22 65 -38 73 rrcurveto
          73 -54 -42 37 -29 hhcurveto
          17 -16 -15 8 -13 hhcurveto
          -10 hlineto
          -25 -4 rlineto
          -81 -27 -40 -69 -113 vvcurveto
          -10 vlineto
          -37 5 -39 10 -39 vhcurveto
          -150 44 72 -75 100 hhcurveto
          63 13 59 28 32 52 7 75 rlinecurve
          14 2 rlineto
          -95 33 52 -48 71 hhcurveto
          51 46 22 43 41 hvcurveto
          6 vlineto
          13 -7 9 -14 7 vhcurveto
          -13 hlineto
          -28 -43 -32 -14 -22 hhcurveto
          -34 7 rlineto
          -49 27 -24 32 38 vvcurveto
          9 vlineto
          3 22 14 45 24 vhcurveto
          58 22 29 15 7 vvcurveto
          19 vlineto
          14 -11 -9 7 -9 hhcurveto
          -28 -7 -42 -18 -55 -28 rrcurveto
          19 vlineto
          25 110 39 78 53 46 rrcurveto
          41 21 21 16 13 vvcurveto
          21 -4 -8 10 -13 hhcurveto
          -504 -141 rmoveto
          14 25 19 7 13 hhcurveto
          2 hlineto
          41 -12 75 -75 40 -85 4 -93 rlinecurve
          -6 1 rlineto
          -19 -7 -9 -10 -14 vvcurveto
          -13 11 -10 21 -6 vhcurveto
          -4 -32 rlineto
          -43 -15 -25 -22 -35 hhcurveto
          -38 hlineto
          -28 6 rlineto
          -83 56 -42 90 123 vvcurveto
          27 vlineto
          46 10 36 21 25 vhcurveto
          endchar
        </CharString>
        <CharString name="Oacute">
          73 146 541 rmoveto
          -81 -27 -40 -69 -113 vvcurveto
          -10 vlineto
          -37 5 -39 10 -39 vhcurveto
          -150 44 72 -75 100 hhcurveto
          63 13 rlineto
          67 31 33 62 91 vvcurveto
          67 -23 77 -46 87 vhcurveto
          73 -54 -42 37 -29 hhcurveto
          17 -16 -15 8 -13 hhcurveto
          -10 hlineto
          -34 -100 rmoveto
          14 25 19 7 13 hhcurveto
          2 hlineto
          41 -12 rlineto
          79 -79 40 -90 -100 vvcurveto
          -31 vlineto
          -6 -44 rlineto
          -43 -15 -25 -22 -35 hhcurveto
          -38 hlineto
          -28 6 rlineto
          -83 56 -42 90 123 vvcurveto
          27 vlineto
          46 10 36 21 25 vhcurveto
          -123 201 rmoveto
          3 -23 10 -13 16 -1 35 11 21 11 7 11 11 3 55 18 97 34 7 28 rcurveline
          -2 23 -9 13 -17 1 -23 2 -68 -26 -113 -54 -19 -6 -10 -13 -1 -19 rrcurveto
          endchar
        </CharString>
        <CharString name="Obreve">
          73 146 541 rmoveto
          -81 -27 -40 -69 -113 vvcurveto
          -10 vlineto
          -37 5 -39 10 -39 vhcurveto
          -150 44 72 -75 100 hhcurveto
          63 13 rlineto
          67 31 33 62 91 vvcurveto
          67 -23 77 -46 87 vhcurveto
          73 -54 -42 37 -29 hhcurveto
          17 -16 -15 8 -13 hhcurveto
          -10 hlineto
          -34 -100 rmoveto
          14 25 19 7 13 hhcurveto
          2 hlineto
          41 -12 rlineto
          79 -79 40 -90 -100 vvcurveto
          -31 vlineto
          -6 -44 rlineto
          -43 -15 -25 -22 -35 hhcurveto
          -38 hlineto
          -28 6 rlineto
          -83 56 -42 90 123 vvcurveto
          27 vlineto
          46 10 36 21 25 vhcurveto
          166 337 rmoveto
          -7 -63 -27 -31 -48 3 rrcurveto
          -22 -11 12 23 hvcurveto
          51 vlineto
          -37 1 -5 -20 2 -25 8 -29 rlinecurve
          8 -29 25 -14 42 1 14 -1 21 7 27 13 27 14 16 34 3 53 rrcurveto
          endchar
        </CharString>
        <CharString name="Ocircumflex">
          73 146 541 rmoveto
          -81 -27 -40 -69 -113 vvcurveto
          -10 vlineto
          -37 5 -39 10 -39 vhcurveto
          -150 44 72 -75 100 hhcurveto
          63 13 rlineto
          67 31 33 62 91 vvcurveto
          67 -23 77 -46 87 vhcurveto
          73 -54 -42 37 -29 hhcurveto
          17 -16 -15 8 -13 hhcurveto
          -10 hlineto
          -34 -100 rmoveto
          14 25 19 7 13 hhcurveto
          2 hlineto
          41 -12 rlineto
          79 -79 40 -90 -100 vvcurveto
          -31 vlineto
          -6 -44 rlineto
          -43 -15 -25 -22 -35 hhcurveto
          -38 hlineto
          -28 6 rlineto
          -83 56 -42 90 123 vvcurveto
          27 vlineto
          46 10 36 21 25 vhcurveto
          26 339 rmoveto
          -105 -146 rlineto
          -19 -7 -10 -7 -5 vvcurveto
          -11 10 -7 19 -4 vhcurveto
          27 -15 5 14 32 42 59 70 rlinecurve
          9 13 13 -14 18 -43 rrcurveto
          48 -57 24 -30 -1 vvcurveto
          26 2 rlineto
          16 2 8 5 8 vvcurveto
          -38 54 rlineto
          96 -64 -42 48 -20 hhcurveto
          endchar
        </CharString>
        <CharString name="Odieresis">
          73 146 541 rmoveto
          -81 -27 -40 -69 -113 vvcurveto
          -10 vlineto
          -37 5 -39 10 -39 vhcurveto
          -150 44 72 -75 100 hhcurveto
          63 13 rlineto
          67 31 33 62 91 vvcurveto
          67 -23 77 -46 87 vhcurveto
          73 -54 -42 37 -29 hhcurveto
          17 -16 -15 8 -13 hhcurveto
          -10 hlineto
          -34 -100 rmoveto
          14 25 19 7 13 hhcurveto
          2 hlineto
          41 -12 rlineto
          79 -79 40 -90 -100 vvcurveto
          -31 vlineto
          -6 -44 rlineto
          -43 -15 -25 -22 -35 hhcurveto
          -38 hlineto
          -28 6 rlineto
          -83 56 -42 90 123 vvcurveto
          27 vlineto
          46 10 36 21 25 vhcurveto
          145 142 rmoveto
          1 9 -8 10 -16 11 rrcurveto
          -27 -15 -8 -17 -1 hvcurveto
          5 -22 9 -11 14 -1 23 1 13 10 2 18 rrcurveto
          -113 5 rmoveto
          1 14 -8 11 -19 8 -23 -5 -12 -10 -1 -16 1 -19 8 -10 13 -1 18 -1 13 9 9 20 rrcurveto
          endchar
        </CharString>
        <CharString name="Ograve">
          73 146 541 rmoveto
          -81 -27 -40 -69 -113 vvcurveto
          -10 vlineto
          -37 5 -39 10 -39 vhcurveto
          -150 44 72 -75 100 hhcurveto
          63 13 rlineto
          67 31 33 62 91 vvcurveto
          67 -23 77 -46 87 vhcurveto
          73 -54 -42 37 -29 hhcurveto
          17 -16 -15 8 -13 hhcurveto
          -10 hlineto
          -34 -100 rmoveto
          14 25 19 7 13 hhcurveto
          2 hlineto
          41 -12 rlineto
          79 -79 40 -90 -100 vvcurveto
          -31 vlineto
          -6 -44 rlineto
          -43 -15 -25 -22 -35 hhcurveto
          -38 hlineto
          -28 6 rlineto
          -83 56 -42 90 123 vvcurveto
          27 vlineto
          46 10 36 21 25 vhcurveto
          209 206 rmoveto
          -1 15 -8 10 -17 5 -83 59 -57 33 -29 8 -15 -1 -9 -10 -2 -19 -19 -23 46 -34 110 -46 7 -9 19 -9 33 -9 13 1 9 10 3 19 rrcurveto
          endchar
        </CharString>
        <CharString name="Ohungarumlaut">
          73 146 541 rmoveto
          -81 -27 -40 -69 -113 vvcurveto
          -10 vlineto
          -37 5 -39 10 -39 vhcurveto
          -150 44 72 -75 100 hhcurveto
          63 13 rlineto
          67 31 33 62 91 vvcurveto
          67 -23 77 -46 87 vhcurveto
          73 -54 -42 37 -29 hhcurveto
          17 -16 -15 8 -13 hhcurveto
          -10 hlineto
          -34 -100 rmoveto
          14 25 19 7 13 hhcurveto
          2 hlineto
          41 -12 rlineto
          79 -79 40 -90 -100 vvcurveto
          -31 vlineto
          -6 -44 rlineto
          -43 -15 -25 -22 -35 hhcurveto
          -38 hlineto
          -28 6 rlineto
          -83 56 -42 90 123 vvcurveto
          27 vlineto
          46 10 36 21 25 vhcurveto
          -45 179 rmoveto
          10 -11 10 -3 9 3 rrcurveto
          17 17 8 12 8 vvcurveto
          15 15 29 31 44 47 -5 16 rcurveline
          -8 12 -9 4 -11 -5 -13 -5 -35 -39 -55 -73 -9 -9 -2 -10 5 -10 rrcurveto
          111 -22 rmoveto
          10 -11 10 -4 9 5 rrcurveto
          17 15 8 12 9 vvcurveto
          50 67 29 30 8 -5 -3 18 rcurveline
          -9 11 -10 3 -10 -4 -13 -6 -35 -39 -56 -73 -8 -9 -2 -9 5 -10 rrcurveto
          endchar
        </CharString>
        <CharString name="Omacron">
          73 146 541 rmoveto
          -81 -27 -40 -69 -113 vvcurveto
          -10 vlineto
          -37 5 -39 10 -39 vhcurveto
          -150 44 72 -75 100 hhcurveto
          63 13 rlineto
          67 31 33 62 91 vvcurveto
          67 -23 77 -46 87 vhcurveto
          73 -54 -42 37 -29 hhcurveto
          17 -16 -15 8 -13 hhcurveto
          -10 hlineto
          -34 -100 rmoveto
          14 25 19 7 13 hhcurveto
          2 hlineto
          41 -12 rlineto
          79 -79 40 -90 -100 vvcurveto
          -31 vlineto
          -6 -44 rlineto
          -43 -15 -25 -22 -35 hhcurveto
          -38 hlineto
          -28 6 rlineto
          -83 56 -42 90 123 vvcurveto
          27 vlineto
          46 10 36 21 25 vhcurveto
          10 227 rmoveto
          -6 hlineto
          -38 9 rlineto
          -18 -8 -9 -11 -13 vvcurveto
          -20 22 -12 43 -5 vhcurveto
          33 41 3 7 48 hvcurveto
          63 31 10 21 hvcurveto
          21 -3 -10 10 -16 hhcurveto
          endchar
        </CharString>
        <CharString name="Oslash">
          73 349 605 rmoveto
          -15 -11 -8 -17 -6 hvcurveto
          -42 -86 rlineto
          17 -19 -17 9 -14 hhcurveto
          17 -16 -15 8 -13 hhcurveto
          -10 hlineto
          -25 -4 rlineto
          -81 -27 -40 -69 -113 vvcurveto
          -10 vlineto
          -37 5 -39 10 -39 vhcurveto
          13 -45 16 -38 17 -32 rrcurveto
          -17 -39 -8 -22 -7 vvcurveto
          -16 10 -10 19 -3 vhcurveto
          21 6 15 38 rlineto
          -38 36 43 -19 51 hhcurveto
          63 13 rlineto
          67 31 33 62 91 vvcurveto
          67 -23 77 -46 87 vhcurveto
          -30 37 31 67 19 43 7 19 rlinecurve
          14 -9 10 -19 5 vhcurveto
          -140 -554 rmoveto
          -22 14 -19 16 -16 19 26 58 30 63 34 68 49 100 rcurveline
          43 -63 22 -68 -73 vvcurveto
          -31 vlineto
          -6 -44 rlineto
          -43 -15 -25 -22 -35 hhcurveto
          -38 hlineto
          -100 400 rmoveto
          14 25 19 7 13 hhcurveto
          2 hlineto
          41 -12 13 -14 -59 -120 -45 -94 -31 -69 rlinecurve
          -21 46 -10 54 63 vvcurveto
          27 vlineto
          46 10 36 21 25 vhcurveto
          endchar
        </CharString>
        <CharString name="Oslashacute">
          73 349 605 rmoveto
          -15 -11 -8 -17 -6 hvcurveto
          -42 -86 rlineto
          17 -19 -17 9 -14 hhcurveto
          17 -16 -15 8 -13 hhcurveto
          -10 hlineto
          -25 -4 rlineto
          -81 -27 -40 -69 -113 vvcurveto
          -10 vlineto
          -37 5 -39 10 -39 vhcurveto
          13 -45 16 -38 17 -32 rrcurveto
          -17 -39 -8 -22 -7 vvcurveto
          -16 10 -10 19 -3 vhcurveto
          21 6 15 38 rlineto
          -38 36 43 -19 51 hhcurveto
          63 13 rlineto
          67 31 33 62 91 vvcurveto
          67 -23 77 -46 87 vhcurveto
          -30 37 31 67 19 43 7 19 rlinecurve
          14 -9 10 -19 5 vhcurveto
          -140 -554 rmoveto
          -22 14 -19 16 -16 19 26 58 30 63 34 68 49 100 rcurveline
          43 -63 22 -68 -73 vvcurveto
          -31 vlineto
          -6 -44 rlineto
          -43 -15 -25 -22 -35 hhcurveto
          -38 hlineto
          -100 400 rmoveto
          14 25 19 7 13 hhcurveto
          2 hlineto
          41 -12 13 -14 -59 -120 -45 -94 -31 -69 rlinecurve
          -21 46 -10 54 63 vvcurveto
          27 vlineto
          46 10 36 21 25 vhcurveto
          -49 241 rmoveto
          3 -23 10 -13 16 -2 36 11 21 12 7 11 11 3 54 18 97 34 8 28 rcurveline
          -3 23 -9 13 -17 1 -23 2 -68 -26 -113 -55 -19 -5 -10 -13 -1 -19 rrcurveto
          endchar
        </CharString>
        <CharString name="Otilde">
          73 146 541 rmoveto
          -81 -27 -40 -69 -113 vvcurveto
          -10 vlineto
          -37 5 -39 10 -39 vhcurveto
          -150 44 72 -75 100 hhcurveto
          63 13 rlineto
          67 31 33 62 91 vvcurveto
          67 -23 77 -46 87 vhcurveto
          73 -54 -42 37 -29 hhcurveto
          17 -16 -15 8 -13 hhcurveto
          -10 hlineto
          -34 -100 rmoveto
          14 25 19 7 13 hhcurveto
          2 hlineto
          41 -12 rlineto
          79 -79 40 -90 -100 vvcurveto
          -31 vlineto
          -6 -44 rlineto
          -43 -15 -25 -22 -35 hhcurveto
          -38 hlineto
          -28 6 rlineto
          -83 56 -42 90 123 vvcurveto
          27 vlineto
          46 10 36 21 25 vhcurveto
          244 189 rmoveto
          -7 17 -4 21 -2 25 -30 55 -34 29 -37 2 -28 1 -23 -17 -19 -33 -18 -65 -18 -32 -19 1 rrcurveto
          -10 hlineto
          -44 27 -21 27 1 28 rrcurveto
          12 vlineto
          8 7 -32 33 -20 -4 -7 -41 rlinecurve
          4 -30 30 -67 39 -34 47 -3 rlinecurve
          29 -1 25 14 21 28 rrcurveto
          70 24 16 35 9 hhcurveto
          9 -1 35 -20 21 -30 7 -39 rlinecurve
          31 -23 16 -5 1 13 rrcurveto
          endchar
        </CharString>
        <CharString name="P">
          88 204 657 rmoveto
          -139 -12 -70 -43 -73 vvcurveto
          -39 13 -26 27 -13 vhcurveto
          23 4 12 9 15 vvcurveto
          -11 22 -5 16 9 vvcurveto
          6 vlineto
          33 46 22 91 10 vhcurveto
          41 hlineto
          93 -7 47 -31 -55 vvcurveto
          -13 vlineto
          -20 -7 -24 -14 -27 vhcurveto
          -27 -47 -37 -31 -48 -16 -29 119 rcurveline
          71 -10 35 -21 -23 -11 -10 -19 -33 11 -67 23 -100 vhcurveto
          -2 vlineto
          -44 15 rlineto
          -19 -7 -9 -10 -11 vvcurveto
          -6 vlineto
          6 -24 30 -15 54 -5 rrcurveto
          28 -90 14 -83 -77 vvcurveto
          -25 vlineto
          -15 8 -8 17 -2 vhcurveto
          22 11 13 27 hvcurveto
          13 vlineto
          63 -13 84 -27 103 vhcurveto
          7 11 8 23 7 vhcurveto
          94 66 47 72 77 vvcurveto
          10 vlineto
          -3 32 rlineto
          79 -31 -70 39 -108 hhcurveto
          -16 hlineto
          endchar
        </CharString>
        <CharString name="Q">
          213 320 644 rmoveto
          -26 -26 -8 -17 -26 hvcurveto
          -22 3 -59 -16 rlineto
          -79 -44 -40 -100 -156 vvcurveto
          -15 vlineto
          -54 8 -52 17 -50 vhcurveto
          -125 51 71 -63 91 hhcurveto
          43 46 19 38 48 hvcurveto
          113 -17 rlineto
          2 hlineto
          111 13 56 21 29 vvcurveto
          23 -5 -9 12 -15 hhcurveto
          -25 -47 -45 -13 -42 hhcurveto
          -31 -24 3 6 -17 hvcurveto
          44 91 22 80 70 vvcurveto
          7 vlineto
          32 -2 22 -4 11 vhcurveto
          183 -39 -68 92 -97 hhcurveto
          -125 -278 rmoveto
          56 10 51 21 46 vhcurveto
          44 29 30 22 29 hhcurveto
          10 hlineto
          10 15 -5 -11 21 hvcurveto
          67 -72 33 -88 -103 vvcurveto
          -6 vlineto
          -86 -23 -75 -46 -64 vhcurveto
          -137 56 -69 87 117 vvcurveto
          -94 -25 rmoveto
          113 22 77 44 41 vhcurveto
          7 hlineto
          -25 -56 -13 -58 -61 vvcurveto
          -16 vlineto
          -142 71 -105 142 -68 vhcurveto
          -6 vlineto
          -15 -15 -21 -8 -27 hhcurveto
          -6 hlineto
          -15 -12 2 4 -8 hvcurveto
          -96 43 -48 89 135 vvcurveto
          endchar
        </CharString>
        <CharString name="R">
          153 190 569 rmoveto
          -43 -38 -35 -69 -32 hvcurveto
          -6 hlineto
          -19 10 rlineto
          -27 -13 -30 -61 hvcurveto
          -9 vlineto
          -43 11 -55 21 -68 vhcurveto
          -150 8 19 -75 31 hhcurveto
          21 7 11 12 18 vvcurveto
          39 -9 58 -19 76 vhcurveto
          3 hlineto
          43 -23 rlineto
          -133 151 104 -67 55 hhcurveto
          23 4 11 10 15 vvcurveto
          11 -5 9 -10 7 vhcurveto
          -56 -100 65 129 -144 hvcurveto
          4 vlineto
          89 69 45 70 70 vvcurveto
          18 vlineto
          63 -40 39 -81 15 vhcurveto
          -85 -267 rmoveto
          138 12 27 69 42 hhcurveto
          6 hlineto
          40 -6 20 -18 -29 vvcurveto
          -37 vlineto
          -103 -38 -50 -51 -62 hhcurveto
          endchar
        </CharString>
        <CharString name="Racute">
          153 190 569 rmoveto
          -43 -38 -35 -69 -32 hvcurveto
          -6 hlineto
          -19 10 rlineto
          -27 -13 -30 -61 hvcurveto
          -9 vlineto
          -43 11 -55 21 -68 vhcurveto
          -150 8 19 -75 31 hhcurveto
          21 7 11 12 18 vvcurveto
          39 -9 58 -19 76 vhcurveto
          3 hlineto
          43 -23 rlineto
          -133 151 104 -67 55 hhcurveto
          23 4 11 10 15 vvcurveto
          11 -5 9 -10 7 vhcurveto
          -56 -100 65 129 -144 hvcurveto
          4 vlineto
          89 69 45 70 70 vvcurveto
          18 vlineto
          63 -40 39 -81 15 vhcurveto
          -85 -267 rmoveto
          138 12 27 69 42 hhcurveto
          6 hlineto
          40 -6 20 -18 -29 vvcurveto
          -37 vlineto
          -103 -38 -50 -51 -62 hhcurveto
          -59 397 rmoveto
          3 -23 10 -13 16 -1 35 11 21 11 7 11 11 3 55 18 97 34 7 28 rcurveline
          -2 23 -9 13 -17 1 -23 2 -68 -26 -113 -54 -19 -6 -10 -13 -1 -19 rrcurveto
          endchar
        </CharString>
        <CharString name="Rcaron">
          153 190 569 rmoveto
          -43 -38 -35 -69 -32 hvcurveto
          -6 hlineto
          -19 10 rlineto
          -27 -13 -30 -61 hvcurveto
          -9 vlineto
          -43 11 -55 21 -68 vhcurveto
          -150 8 19 -75 31 hhcurveto
          21 7 11 12 18 vvcurveto
          39 -9 58 -19 76 vhcurveto
          3 hlineto
          43 -23 rlineto
          -133 151 104 -67 55 hhcurveto
          23 4 11 10 15 vvcurveto
          11 -5 9 -10 7 vhcurveto
          -56 -100 65 129 -144 hvcurveto
          4 vlineto
          89 69 45 70 70 vvcurveto
          18 vlineto
          63 -40 39 -81 15 vhcurveto
          -85 -267 rmoveto
          138 12 27 69 42 hhcurveto
          6 hlineto
          40 -6 20 -18 -29 vvcurveto
          -37 vlineto
          -103 -38 -50 -51 -62 hhcurveto
          148 432 rmoveto
          23 46 44 88 70 hvcurveto
          40 48 rlineto
          8 -9 5 -18 1 vhcurveto
          -2 hlineto
          -17 -31 -30 -59 -45 hvcurveto
          -27 -31 -17 -18 -7 -4 -67 80 -42 41 -17 2 -11 2 rcurveline
          -21 -5 -11 -6 -9 vvcurveto
          -5 11 -6 21 -7 vhcurveto
          115 -132 rlineto
          endchar
        </CharString>
        <CharString name="Rcommaaccent">
          153 190 569 rmoveto
          -43 -38 -35 -69 -32 hvcurveto
          -6 hlineto
          -19 10 rlineto
          -27 -13 -30 -61 hvcurveto
          -9 vlineto
          -43 11 -55 21 -68 vhcurveto
          -150 8 19 -75 31 hhcurveto
          21 7 11 12 18 vvcurveto
          39 -9 58 -19 76 vhcurveto
          3 hlineto
          43 -23 rlineto
          -133 151 104 -67 55 hhcurveto
          23 4 11 10 15 vvcurveto
          11 -5 9 -10 7 vhcurveto
          -56 -100 65 129 -144 hvcurveto
          4 vlineto
          89 69 45 70 70 vvcurveto
          18 vlineto
          63 -40 39 -81 15 vhcurveto
          -85 -267 rmoveto
          138 12 27 69 42 hhcurveto
          6 hlineto
          40 -6 20 -18 -29 vvcurveto
          -37 vlineto
          -103 -38 -50 -51 -62 hhcurveto
          193 -380 rmoveto
          -51 21 -17 -31 15 -85 -41 -45 rcurveline
          11 -70 36 15 62 99 rrcurveto
          endchar
        </CharString>
        <CharString name="S">
          88 322 592 rmoveto
          -35 -41 -12 -25 -45 hvcurveto
          -103 -65 -51 -67 -68 vvcurveto
          4 -13 rlineto
          -51 36 -30 73 -9 vhcurveto
          131 3 rlineto
          4 hlineto
          51 -13 26 -23 -33 vvcurveto
          -23 -7 -22 -14 -20 vhcurveto
          -63 -53 -53 -31 -54 hhcurveto
          -27 hlineto
          -38 -27 26 52 -17 hvcurveto
          53 -10 26 -21 vhcurveto
          -12 hlineto
          -13 -9 -6 -8 -8 vvcurveto
          -27 4 -26 8 -26 vhcurveto
          -77 28 48 -38 68 hhcurveto
          24 3 29 6 35 10 rrcurveto
          112 57 56 63 70 vvcurveto
          -6 35 rlineto
          72 -26 -50 36 -74 hhcurveto
          -110 -6 rlineto
          -39 -20 15 29 hvcurveto
          6 vlineto
          7 29 29 61 57 47 85 32 rlinecurve
          53 26 10 19 hvcurveto
          22 -3 -11 11 -18 hhcurveto
          -10 hlineto
          endchar
        </CharString>
        <CharString name="Sacute">
          88 322 592 rmoveto
          -35 -41 -12 -25 -45 hvcurveto
          -103 -65 -51 -67 -68 vvcurveto
          4 -13 rlineto
          -51 36 -30 73 -9 vhcurveto
          131 3 rlineto
          4 hlineto
          51 -13 26 -23 -33 vvcurveto
          -23 -7 -22 -14 -20 vhcurveto
          -63 -53 -53 -31 -54 hhcurveto
          -27 hlineto
          -38 -27 26 52 -17 hvcurveto
          53 -10 26 -21 vhcurveto
          -12 hlineto
          -13 -9 -6 -8 -8 vvcurveto
          -27 4 -26 8 -26 vhcurveto
          -77 28 48 -38 68 hhcurveto
          24 3 29 6 35 10 rrcurveto
          112 57 56 63 70 vvcurveto
          -6 35 rlineto
          72 -26 -50 36 -74 hhcurveto
          -110 -6 rlineto
          -39 -20 15 29 hvcurveto
          6 vlineto
          7 29 29 61 57 47 85 32 rlinecurve
          53 26 10 19 hvcurveto
          22 -3 -11 11 -18 hhcurveto
          -241 98 rmoveto
          3 -23 10 -13 16 -1 35 11 21 11 7 11 11 3 55 18 97 34 7 28 rcurveline
          -2 23 -9 13 -17 1 -23 2 -68 -26 -113 -54 -19 -6 -10 -13 -1 -19 rrcurveto
          endchar
        </CharString>
        <CharString name="Scaron">
          88 322 592 rmoveto
          -35 -41 -12 -25 -45 hvcurveto
          -103 -65 -51 -67 -68 vvcurveto
          4 -13 rlineto
          -51 36 -30 73 -9 vhcurveto
          131 3 rlineto
          4 hlineto
          51 -13 26 -23 -33 vvcurveto
          -23 -7 -22 -14 -20 vhcurveto
          -63 -53 -53 -31 -54 hhcurveto
          -27 hlineto
          -38 -27 26 52 -17 hvcurveto
          53 -10 26 -21 vhcurveto
          -12 hlineto
          -13 -9 -6 -8 -8 vvcurveto
          -27 4 -26 8 -26 vhcurveto
          -77 28 48 -38 68 hhcurveto
          24 3 29 6 35 10 rrcurveto
          112 57 56 63 70 vvcurveto
          -6 35 rlineto
          72 -26 -50 36 -74 hhcurveto
          -110 -6 rlineto
          -39 -20 15 29 hvcurveto
          6 vlineto
          7 29 29 61 57 47 85 32 rlinecurve
          53 26 10 19 hvcurveto
          22 -3 -11 11 -18 hhcurveto
          -120 26 rmoveto
          23 46 44 88 70 hvcurveto
          40 48 rlineto
          8 -9 5 -18 1 vhcurveto
          -2 hlineto
          -17 -31 -30 -59 -45 hvcurveto
          -27 -31 -17 -18 -7 -4 -67 80 -42 41 -17 2 -11 2 rcurveline
          -21 -5 -11 -6 -9 vvcurveto
          -5 11 -6 21 -7 vhcurveto
          115 -132 rlineto
          endchar
        </CharString>
        <CharString name="Scedilla">
          88 322 592 rmoveto
          -35 -41 -12 -25 -45 hvcurveto
          -103 -65 -51 -67 -68 vvcurveto
          4 -13 rlineto
          -51 36 -30 73 -9 vhcurveto
          131 3 rlineto
          4 hlineto
          51 -13 26 -23 -33 vvcurveto
          -23 -7 -22 -14 -20 vhcurveto
          -63 -53 -53 -31 -54 hhcurveto
          -27 hlineto
          -38 -27 26 52 -17 hvcurveto
          53 -10 26 -21 vhcurveto
          -12 hlineto
          -13 -9 -6 -8 -8 vvcurveto
          -27 4 -26 8 -26 vhcurveto
          25 -69 42 -38 57 -7 rrcurveto
          -3 -10 -1 -14 -18 vvcurveto
          -28 17 -22 35 -15 vhcurveto
          64 -15 32 -16 -17 vvcurveto
          -10 vlineto
          -43 -24 -26 -22 -29 hhcurveto
          -11 hlineto
          -6 5 rlineto
          29 -3 -8 14 -13 hhcurveto
          -15 -3 -8 -8 -13 vvcurveto
          -3 vlineto
          -41 21 -24 41 -5 vhcurveto
          28 5 rlineto
          65 33 32 39 45 vvcurveto
          28 -15 23 -29 19 vhcurveto
          -69 19 -35 14 9 vvcurveto
          8 vlineto
          24 43 13 3 15 4 16 5 rlinecurve
          112 57 56 63 70 vvcurveto
          -6 35 rlineto
          72 -26 -50 36 -74 hhcurveto
          -110 -6 rlineto
          -39 -20 15 29 hvcurveto
          6 vlineto
          7 29 29 61 57 47 85 32 rlinecurve
          53 26 10 19 hvcurveto
          22 -3 -11 11 -18 hhcurveto
          -10 hlineto
          endchar
        </CharString>
        <CharString name="Scircumflex">
          88 322 592 rmoveto
          -35 -41 -12 -25 -45 hvcurveto
          -103 -65 -51 -67 -68 vvcurveto
          4 -13 rlineto
          -51 36 -30 73 -9 vhcurveto
          131 3 rlineto
          4 hlineto
          51 -13 26 -23 -33 vvcurveto
          -23 -7 -22 -14 -20 vhcurveto
          -63 -53 -53 -31 -54 hhcurveto
          -27 hlineto
          -38 -27 26 52 -17 hvcurveto
          53 -10 26 -21 vhcurveto
          -12 hlineto
          -13 -9 -6 -8 -8 vvcurveto
          -27 4 -26 8 -26 vhcurveto
          -77 28 48 -38 68 hhcurveto
          24 3 29 6 35 10 rrcurveto
          112 57 56 63 70 vvcurveto
          -6 35 rlineto
          72 -26 -50 36 -74 hhcurveto
          -110 -6 rlineto
          -39 -20 15 29 hvcurveto
          6 vlineto
          7 29 29 61 57 47 85 32 rlinecurve
          53 26 10 19 hvcurveto
          22 -3 -11 11 -18 hhcurveto
          -121 307 rmoveto
          -105 -146 rlineto
          -19 -7 -10 -7 -5 vvcurveto
          -11 10 -7 19 -4 vhcurveto
          27 -15 5 14 32 42 59 70 rlinecurve
          9 13 13 -14 18 -43 rrcurveto
          48 -57 24 -30 -1 vvcurveto
          26 2 rlineto
          16 2 8 5 8 vvcurveto
          -38 54 rlineto
          96 -64 -42 48 -20 hhcurveto
          endchar
        </CharString>
        <CharString name="Scommaaccent">
          88 322 592 rmoveto
          -35 -41 -12 -25 -45 hvcurveto
          -103 -65 -51 -67 -68 vvcurveto
          4 -13 rlineto
          -51 36 -30 73 -9 vhcurveto
          131 3 rlineto
          4 hlineto
          51 -13 26 -23 -33 vvcurveto
          -23 -7 -22 -14 -20 vhcurveto
          -63 -53 -53 -31 -54 hhcurveto
          -27 hlineto
          -38 -27 26 52 -17 hvcurveto
          53 -10 26 -21 vhcurveto
          -12 hlineto
          -13 -9 -6 -8 -8 vvcurveto
          -27 4 -26 8 -26 vhcurveto
          -77 28 48 -38 68 hhcurveto
          24 3 29 6 35 10 rrcurveto
          112 57 56 63 70 vvcurveto
          -6 35 rlineto
          72 -26 -50 36 -74 hhcurveto
          -110 -6 rlineto
          -39 -20 15 29 hvcurveto
          6 vlineto
          7 29 29 61 57 47 85 32 rlinecurve
          53 26 10 19 hvcurveto
          22 -3 -11 11 -18 hhcurveto
          -33 -707 rmoveto
          -51 21 -17 -31 15 -85 -41 -45 rcurveline
          11 -70 36 15 62 99 rrcurveto
          endchar
        </CharString>
        <CharString name="T">
          58 214 631 rmoveto
          -146 -11 -73 -24 -37 vvcurveto
          -15 10 -11 21 -6 vhcurveto
          9 4 rlineto
          15 60 14 119 11 vhcurveto
          14 -103 7 -129 -155 vvcurveto
          -232 vlineto
          -27 3 10 -13 18 hhcurveto
          17 11 15 29 3 hvcurveto
          302 -8 206 -17 111 vhcurveto
          4 2 175 10 rlineto
          59 29 13 25 hvcurveto
          17 -8 -8 8 -9 hhcurveto
          endchar
        </CharString>
        <CharString name="Tbar">
          58 287 415 rmoveto
          -4 66 -5 53 -6 41 4 2 rcurveline
          175 10 rlineto
          59 29 13 25 hvcurveto
          17 -8 -8 8 -9 hhcurveto
          -300 -19 rlineto
          -146 -11 -73 -24 -37 vvcurveto
          -15 10 -11 21 -6 vhcurveto
          9 4 rlineto
          15 60 14 119 11 vhcurveto
          7 -47 5 -54 3 -59 -53 -4 rcurveline
          -6 hlineto
          -38 9 rlineto
          -18 -7 -9 -11 -13 vvcurveto
          -20 22 -13 43 -5 vhcurveto
          18 20 1 2 23 hvcurveto
          3 -52 1 -55 -59 vvcurveto
          -232 vlineto
          -27 3 10 -13 18 hhcurveto
          17 11 15 29 3 hvcurveto
          161 -2 133 -5 106 vhcurveto
          2 1 rlineto
          63 31 11 21 hvcurveto
          21 -3 -10 10 -16 hhcurveto
          endchar
        </CharString>
        <CharString name="Tcaron">
          58 214 631 rmoveto
          -146 -11 -73 -24 -37 vvcurveto
          -15 10 -11 21 -6 vhcurveto
          9 4 rlineto
          15 60 14 119 11 vhcurveto
          14 -103 7 -129 -155 vvcurveto
          -232 vlineto
          -27 3 10 -13 18 hhcurveto
          17 11 15 29 3 hvcurveto
          302 -8 206 -17 111 vhcurveto
          4 2 175 10 rlineto
          59 29 13 25 hvcurveto
          17 -8 -8 8 -9 hhcurveto
          -308 47 rmoveto
          23 46 44 88 70 hvcurveto
          40 48 rlineto
          8 -9 5 -18 1 vhcurveto
          -2 hlineto
          -17 -31 -30 -59 -45 hvcurveto
          -27 -31 -17 -18 -7 -4 -67 80 -42 41 -17 2 -11 2 rcurveline
          -21 -5 -11 -6 -9 vvcurveto
          -5 11 -6 21 -7 vhcurveto
          115 -132 rlineto
          endchar
        </CharString>
        <CharString name="Tcommaaccent">
          58 214 631 rmoveto
          -146 -11 -73 -24 -37 vvcurveto
          -15 10 -11 21 -6 vhcurveto
          9 4 rlineto
          15 60 14 119 11 vhcurveto
          14 -103 7 -129 -155 vvcurveto
          -232 vlineto
          -27 3 10 -13 18 hhcurveto
          17 11 15 29 3 hvcurveto
          302 -8 206 -17 111 vhcurveto
          4 2 175 10 rlineto
          59 29 13 25 hvcurveto
          17 -8 -8 8 -9 hhcurveto
          -209 -824 rmoveto
          -51 21 -17 -31 15 -85 -41 -45 rcurveline
          11 -70 36 15 62 99 rrcurveto
          endchar
        </CharString>
        <CharString name="Thorn">
          65 606 rmoveto
          -19 -7 -9 -9 -13 vvcurveto
          15 -37 -6 -526 39 -47 21 28 1 101 rlinecurve
          29 28 13 27 25 hvcurveto
          58 72 29 65 57 vvcurveto
          4 vlineto
          68 -11 -28 34 -45 hhcurveto
          -3 hlineto
          -15 -1 -7 -2 -3 vvcurveto
          -18 -25 -31 -63 -32 hvcurveto
          180 16 -9 90 -34 hhcurveto
          59 -441 rmoveto
          13 125 21 70 28 17 rrcurveto
          9 hlineto
          9 8 -10 -21 5 hvcurveto
          -37 vlineto
          -25 -82 -31 -48 -35 -14 rrcurveto
          endchar
        </CharString>
        <CharString name="U">
          40 291 594 rmoveto
          -29 -15 -48 -96 hvcurveto
          13 -163 -15 -68 -31 -119 -32 -70 -35 -21 rlinecurve
          -18 hlineto
          -25 17 -13 35 54 vvcurveto
          37 vlineto
          16 267 rlineto
          6 vlineto
          25 -9 12 -19 vhcurveto
          -9 hlineto
          -15 -7 -8 -11 -13 vvcurveto
          -44 vlineto
          -15 -228 rlineto
          -19 vlineto
          3 -59 rlineto
          -87 15 34 -44 55 hhcurveto
          53 45 52 104 35 hvcurveto
          4 hlineto
          19 -93 22 -47 24 -1 rrcurveto
          4 hlineto
          18 3 9 9 13 vvcurveto
          4 vlineto
          -33 67 -17 96 127 vvcurveto
          13 147 rlineto
          109 -15 54 -29 vhcurveto
          endchar
        </CharString>
        <CharString name="Uacute">
          40 291 594 rmoveto
          -29 -15 -48 -96 hvcurveto
          13 -163 -15 -68 -31 -119 -32 -70 -35 -21 rlinecurve
          -18 hlineto
          -25 17 -13 35 54 vvcurveto
          37 vlineto
          16 267 rlineto
          6 vlineto
          25 -9 12 -19 vhcurveto
          -9 hlineto
          -15 -7 -8 -11 -13 vvcurveto
          -44 vlineto
          -15 -228 rlineto
          -19 vlineto
          3 -59 rlineto
          -87 15 34 -44 55 hhcurveto
          53 45 52 104 35 hvcurveto
          4 hlineto
          19 -93 22 -47 24 -1 rrcurveto
          4 hlineto
          18 3 9 9 13 vvcurveto
          4 vlineto
          -33 67 -17 96 127 vvcurveto
          13 147 rlineto
          109 -15 54 -29 vhcurveto
          -267 31 rmoveto
          3 -23 10 -13 16 -1 35 11 21 11 7 11 11 3 55 18 97 34 7 28 rcurveline
          -2 23 -9 13 -17 1 -23 2 -68 -26 -113 -54 -19 -6 -10 -13 -1 -19 rrcurveto
          endchar
        </CharString>
        <CharString name="Ubreve">
          40 291 594 rmoveto
          -29 -15 -48 -96 hvcurveto
          13 -163 -15 -68 -31 -119 -32 -70 -35 -21 rlinecurve
          -18 hlineto
          -25 17 -13 35 54 vvcurveto
          37 vlineto
          16 267 rlineto
          6 vlineto
          25 -9 12 -19 vhcurveto
          -9 hlineto
          -15 -7 -8 -11 -13 vvcurveto
          -44 vlineto
          -15 -228 rlineto
          -19 vlineto
          3 -59 rlineto
          -87 15 34 -44 55 hhcurveto
          53 45 52 104 35 hvcurveto
          4 hlineto
          19 -93 22 -47 24 -1 rrcurveto
          4 hlineto
          18 3 9 9 13 vvcurveto
          4 vlineto
          -33 67 -17 96 127 vvcurveto
          13 147 rlineto
          109 -15 54 -29 vhcurveto
          -26 197 rmoveto
          -7 -63 -27 -31 -48 3 rrcurveto
          -22 -11 12 23 hvcurveto
          51 vlineto
          -37 1 -5 -20 2 -25 8 -29 rlinecurve
          8 -29 25 -14 42 1 14 -1 21 7 27 13 27 14 16 34 3 53 rrcurveto
          endchar
        </CharString>
        <CharString name="Ucircumflex">
          40 291 594 rmoveto
          -29 -15 -48 -96 hvcurveto
          13 -163 -15 -68 -31 -119 -32 -70 -35 -21 rlinecurve
          -18 hlineto
          -25 17 -13 35 54 vvcurveto
          37 vlineto
          16 267 rlineto
          6 vlineto
          25 -9 12 -19 vhcurveto
          -9 hlineto
          -15 -7 -8 -11 -13 vvcurveto
          -44 vlineto
          -15 -228 rlineto
          -19 vlineto
          3 -59 rlineto
          -87 15 34 -44 55 hhcurveto
          53 45 52 104 35 hvcurveto
          4 hlineto
          19 -93 22 -47 24 -1 rrcurveto
          4 hlineto
          18 3 9 9 13 vvcurveto
          4 vlineto
          -33 67 -17 96 127 vvcurveto
          13 147 rlineto
          109 -15 54 -29 vhcurveto
          -122 237 rmoveto
          -105 -146 rlineto
          -19 -7 -10 -7 -5 vvcurveto
          -11 10 -7 19 -4 vhcurveto
          27 -15 5 14 32 42 59 70 rlinecurve
          9 13 13 -14 18 -43 rrcurveto
          48 -57 24 -30 -1 vvcurveto
          26 2 rlineto
          16 2 8 5 8 vvcurveto
          -38 54 rlineto
          96 -64 -42 48 -20 hhcurveto
          endchar
        </CharString>
        <CharString name="Udieresis">
          40 291 594 rmoveto
          -29 -15 -48 -96 hvcurveto
          13 -163 -15 -68 -31 -119 -32 -70 -35 -21 rlinecurve
          -18 hlineto
          -25 17 -13 35 54 vvcurveto
          37 vlineto
          16 267 rlineto
          6 vlineto
          25 -9 12 -19 vhcurveto
          -9 hlineto
          -15 -7 -8 -11 -13 vvcurveto
          -44 vlineto
          -15 -228 rlineto
          -19 vlineto
          3 -59 rlineto
          -87 15 34 -44 55 hhcurveto
          53 45 52 104 35 hvcurveto
          4 hlineto
          19 -93 22 -47 24 -1 rrcurveto
          4 hlineto
          18 3 9 9 13 vvcurveto
          4 vlineto
          -33 67 -17 96 127 vvcurveto
          13 147 rlineto
          109 -15 54 -29 vhcurveto
          -14 64 rmoveto
          1 9 -8 10 -16 11 rrcurveto
          -27 -15 -8 -17 -1 hvcurveto
          5 -22 9 -11 14 -1 23 1 13 10 2 18 rrcurveto
          -113 5 rmoveto
          1 14 -8 11 -19 8 -23 -5 -12 -10 -1 -16 1 -19 8 -10 13 -1 18 -1 13 9 9 20 rrcurveto
          endchar
        </CharString>
        <CharString name="Ugrave">
          40 291 594 rmoveto
          -29 -15 -48 -96 hvcurveto
          13 -163 -15 -68 -31 -119 -32 -70 -35 -21 rlinecurve
          -18 hlineto
          -25 17 -13 35 54 vvcurveto
          37 vlineto
          16 267 rlineto
          6 vlineto
          25 -9 12 -19 vhcurveto
          -9 hlineto
          -15 -7 -8 -11 -13 vvcurveto
          -44 vlineto
          -15 -228 rlineto
          -19 vlineto
          3 -59 rlineto
          -87 15 34 -44 55 hhcurveto
          53 45 52 104 35 hvcurveto
          4 hlineto
          19 -93 22 -47 24 -1 rrcurveto
          4 hlineto
          18 3 9 9 13 vvcurveto
          4 vlineto
          -33 67 -17 96 127 vvcurveto
          13 147 rlineto
          109 -15 54 -29 vhcurveto
          5 135 rmoveto
          -1 15 -8 10 -17 5 -83 59 -57 33 -29 8 -15 -1 -9 -10 -2 -19 -19 -23 46 -34 110 -46 7 -9 19 -9 33 -9 13 1 9 10 3 19 rrcurveto
          endchar
        </CharString>
        <CharString name="Uhungarumlaut">
          40 291 594 rmoveto
          -29 -15 -48 -96 hvcurveto
          13 -163 -15 -68 -31 -119 -32 -70 -35 -21 rlinecurve
          -18 hlineto
          -25 17 -13 35 54 vvcurveto
          37 vlineto
          16 267 rlineto
          6 vlineto
          25 -9 12 -19 vhcurveto
          -9 hlineto
          -15 -7 -8 -11 -13 vvcurveto
          -44 vlineto
          -15 -228 rlineto
          -19 vlineto
          3 -59 rlineto
          -87 15 34 -44 55 hhcurveto
          53 45 52 104 35 hvcurveto
          4 hlineto
          19 -93 22 -47 24 -1 rrcurveto
          4 hlineto
          18 3 9 9 13 vvcurveto
          4 vlineto
          -33 67 -17 96 127 vvcurveto
          13 147 rlineto
          109 -15 54 -29 vhcurveto
          -226 124 rmoveto
          10 -11 10 -3 9 3 rrcurveto
          17 17 8 12 8 vvcurveto
          15 15 29 31 44 47 -5 16 rcurveline
          -8 12 -9 4 -11 -5 -13 -5 -35 -39 -55 -73 -9 -9 -2 -10 5 -10 rrcurveto
          111 -22 rmoveto
          10 -11 10 -4 9 5 rrcurveto
          17 15 8 12 9 vvcurveto
          50 67 29 30 8 -5 -3 18 rcurveline
          -9 11 -10 3 -10 -4 -13 -6 -35 -39 -56 -73 -8 -9 -2 -9 5 -10 rrcurveto
          endchar
        </CharString>
        <CharString name="Umacron">
          40 291 594 rmoveto
          -29 -15 -48 -96 hvcurveto
          13 -163 -15 -68 -31 -119 -32 -70 -35 -21 rlinecurve
          -18 hlineto
          -25 17 -13 35 54 vvcurveto
          37 vlineto
          16 267 rlineto
          6 vlineto
          25 -9 12 -19 vhcurveto
          -9 hlineto
          -15 -7 -8 -11 -13 vvcurveto
          -44 vlineto
          -15 -228 rlineto
          -19 vlineto
          3 -59 rlineto
          -87 15 34 -44 55 hhcurveto
          53 45 52 104 35 hvcurveto
          4 hlineto
          19 -93 22 -47 24 -1 rrcurveto
          4 hlineto
          18 3 9 9 13 vvcurveto
          4 vlineto
          -33 67 -17 96 127 vvcurveto
          13 147 rlineto
          109 -15 54 -29 vhcurveto
          -176 152 rmoveto
          -6 hlineto
          -38 9 rlineto
          -18 -8 -9 -11 -13 vvcurveto
          -20 22 -12 43 -5 vhcurveto
          33 41 3 7 48 hvcurveto
          63 31 10 21 hvcurveto
          21 -3 -10 10 -16 hhcurveto
          endchar
        </CharString>
        <CharString name="Uogonek">
          40 291 594 rmoveto
          -29 -15 -48 -96 hvcurveto
          13 -163 -15 -68 -31 -119 -32 -70 -35 -21 rlinecurve
          -18 hlineto
          -25 17 -13 35 54 vvcurveto
          37 vlineto
          16 267 rlineto
          6 vlineto
          25 -9 12 -19 vhcurveto
          -9 hlineto
          -15 -7 -8 -11 -13 vvcurveto
          -44 vlineto
          -15 -228 rlineto
          -19 vlineto
          3 -59 rlineto
          -87 15 34 -44 55 hhcurveto
          53 45 52 104 35 hvcurveto
          4 hlineto
          9 -41 8 -32 9 -23 rrcurveto
          -57 -33 -28 -37 -43 vvcurveto
          -33 23 -26 46 -19 vhcurveto
          70 15 44 23 19 29 19 29 -7 7 -32 -15 rrcurveto
          -82 -19 -41 -4 10 vvcurveto
          10 vlineto
          54 66 3 -3 4 -1 4 -1 rlinecurve
          4 hlineto
          18 3 9 9 13 vvcurveto
          4 vlineto
          -33 67 -17 96 127 vvcurveto
          13 147 rlineto
          109 -15 54 -29 vhcurveto
          endchar
        </CharString>
        <CharString name="Uring">
          40 291 594 rmoveto
          -29 -15 -48 -96 hvcurveto
          13 -163 -15 -68 -31 -119 -32 -70 -35 -21 rlinecurve
          -18 hlineto
          -25 17 -13 35 54 vvcurveto
          37 vlineto
          16 267 rlineto
          6 vlineto
          25 -9 12 -19 vhcurveto
          -9 hlineto
          -15 -7 -8 -11 -13 vvcurveto
          -44 vlineto
          -15 -228 rlineto
          -19 vlineto
          3 -59 rlineto
          -87 15 34 -44 55 hhcurveto
          53 45 52 104 35 hvcurveto
          4 hlineto
          19 -93 22 -47 24 -1 rrcurveto
          4 hlineto
          18 3 9 9 13 vvcurveto
          4 vlineto
          -33 67 -17 96 127 vvcurveto
          13 147 rlineto
          109 -15 54 -29 vhcurveto
          -70 272 rmoveto
          -13 -12 -2 -3 -11 hvcurveto
          -65 -27 -33 -41 -53 vvcurveto
          -6 vlineto
          -8 3 -10 5 -11 vhcurveto
          -23 15 23 -12 33 hhcurveto
          23 23 6 13 23 hvcurveto
          55 38 28 37 36 vvcurveto
          -2 11 rlineto
          37 -21 -31 18 -43 hhcurveto
          -84 -131 rmoveto
          30 10 25 19 20 vhcurveto
          23 3 12 5 6 vvcurveto
          8 5 4 10 26 17 -10 -21 9 vhcurveto
          -10 vlineto
          -63 -27 -34 -32 -41 hhcurveto
          -19 -10 12 23 hvcurveto
          endchar
        </CharString>
        <CharString name="Utilde">
          40 291 594 rmoveto
          -29 -15 -48 -96 hvcurveto
          13 -163 -15 -68 -31 -119 -32 -70 -35 -21 rlinecurve
          -18 hlineto
          -25 17 -13 35 54 vvcurveto
          37 vlineto
          16 267 rlineto
          6 vlineto
          25 -9 12 -19 vhcurveto
          -9 hlineto
          -15 -7 -8 -11 -13 vvcurveto
          -44 vlineto
          -15 -228 rlineto
          -19 vlineto
          3 -59 rlineto
          -87 15 34 -44 55 hhcurveto
          53 45 52 104 35 hvcurveto
          4 hlineto
          19 -93 22 -47 24 -1 rrcurveto
          4 hlineto
          18 3 9 9 13 vvcurveto
          4 vlineto
          -33 67 -17 96 127 vvcurveto
          13 147 rlineto
          109 -15 54 -29 vhcurveto
          59 78 rmoveto
          -7 17 -4 21 -2 25 -30 55 -34 29 -37 2 -28 1 -23 -17 -19 -33 -18 -65 -18 -32 -19 1 rrcurveto
          -10 hlineto
          -44 27 -21 27 1 28 rrcurveto
          12 vlineto
          8 7 -32 33 -20 -4 -7 -41 rlinecurve
          4 -30 30 -67 39 -34 47 -3 rlinecurve
          29 -1 25 14 21 28 rrcurveto
          70 24 16 35 9 hhcurveto
          9 -1 35 -20 21 -30 7 -39 rlinecurve
          31 -23 16 -5 1 13 rrcurveto
          endchar
        </CharString>
        <CharString name="V">
          13 422 597 rmoveto
          -39 -46 -37 -73 -55 hvcurveto
          -25 -40 -25 -73 -25 -105 rrcurveto
          -67 -8 -6 -33 -4 hhcurveto
          -4 hlineto
          -96 247 rlineto
          69 -16 -17 34 -17 hhcurveto
          -21 -3 -11 -8 -14 vvcurveto
          -26 51 -141 102 -255 vhcurveto
          -67 15 15 -33 17 hhcurveto
          10 11 5 10 11 hvcurveto
          108 17 123 33 138 vhcurveto
          28 85 32 55 36 23 rrcurveto
          41 19 21 15 13 vvcurveto
          21 -4 -8 10 -13 hhcurveto
          endchar
        </CharString>
        <CharString name="W">
          270 255 716 rmoveto
          -16 -10 -10 -21 -5 hvcurveto
          8 -19 65 -16 48 -21 31 -25 rlinecurve
          121 -115 60 -126 -137 vvcurveto
          -61 -15 -52 -31 -41 vhcurveto
          -47 -43 -40 -24 -39 hhcurveto
          -23 -23 11 23 -23 hvcurveto
          -46 80 -23 77 74 vvcurveto
          6 110 rlineto
          43 -11 22 -22 vhcurveto
          -10 -2 rlineto
          -17 -8 -56 -113 hvcurveto
          -13 -140 -20 -79 -26 -19 rrcurveto
          -36 60 -18 92 123 vvcurveto
          9 vlineto
          37 10 31 19 26 vhcurveto
          21 -9 -9 10 -11 hhcurveto
          -38 -10 -20 -40 -1 -69 rrcurveto
          -58 vlineto
          -196 19 36 -98 52 hhcurveto
          6 hlineto
          40 31 42 83 23 hvcurveto
          2 hlineto
          -103 40 55 -51 71 hhcurveto
          28 4 rlineto
          131 49 66 92 134 vvcurveto
          135 -54 130 -108 125 vhcurveto
          71 -80 -67 35 -53 hhcurveto
          endchar
        </CharString>
        <CharString name="Wacute">
          270 255 716 rmoveto
          -16 -10 -10 -21 -5 hvcurveto
          8 -19 65 -16 48 -21 31 -25 rlinecurve
          121 -115 60 -126 -137 vvcurveto
          -61 -15 -52 -31 -41 vhcurveto
          -47 -43 -40 -24 -39 hhcurveto
          -23 -23 11 23 -23 hvcurveto
          -46 80 -23 77 74 vvcurveto
          6 110 rlineto
          43 -11 22 -22 vhcurveto
          -10 -2 rlineto
          -17 -8 -56 -113 hvcurveto
          -13 -140 -20 -79 -26 -19 rrcurveto
          -36 60 -18 92 123 vvcurveto
          9 vlineto
          37 10 31 19 26 vhcurveto
          21 -9 -9 10 -11 hhcurveto
          -38 -10 -20 -40 -1 -69 rrcurveto
          -58 vlineto
          -196 19 36 -98 52 hhcurveto
          6 hlineto
          40 31 42 83 23 hvcurveto
          2 hlineto
          -103 40 55 -51 71 hhcurveto
          28 4 rlineto
          131 49 66 92 134 vvcurveto
          135 -54 130 -108 125 vhcurveto
          71 -80 -67 35 -53 hhcurveto
          -68 135 rmoveto
          3 -23 10 -13 16 -1 35 11 21 11 7 11 11 3 55 18 97 34 7 28 rcurveline
          -2 23 -9 13 -17 1 -23 2 -68 -26 -113 -54 -19 -6 -10 -13 -1 -19 rrcurveto
          endchar
        </CharString>
        <CharString name="Wcircumflex">
          270 255 716 rmoveto
          -16 -10 -10 -21 -5 hvcurveto
          8 -19 65 -16 48 -21 31 -25 rlinecurve
          121 -115 60 -126 -137 vvcurveto
          -61 -15 -52 -31 -41 vhcurveto
          -47 -43 -40 -24 -39 hhcurveto
          -23 -23 11 23 -23 hvcurveto
          -46 80 -23 77 74 vvcurveto
          6 110 rlineto
          43 -11 22 -22 vhcurveto
          -10 -2 rlineto
          -17 -8 -56 -113 hvcurveto
          -13 -140 -20 -79 -26 -19 rrcurveto
          -36 60 -18 92 123 vvcurveto
          9 vlineto
          37 10 31 19 26 vhcurveto
          21 -9 -9 10 -11 hhcurveto
          -38 -10 -20 -40 -1 -69 rrcurveto
          -58 vlineto
          -196 19 36 -98 52 hhcurveto
          6 hlineto
          40 31 42 83 23 hvcurveto
          2 hlineto
          -103 40 55 -51 71 hhcurveto
          28 4 rlineto
          131 49 66 92 134 vvcurveto
          135 -54 130 -108 125 vhcurveto
          71 -80 -67 35 -53 hhcurveto
          40 346 rmoveto
          -105 -146 rlineto
          -19 -7 -10 -7 -5 vvcurveto
          -11 10 -7 19 -4 vhcurveto
          27 -15 5 14 32 42 59 70 rlinecurve
          9 13 13 -14 18 -43 rrcurveto
          48 -57 24 -30 -1 vvcurveto
          26 2 rlineto
          16 2 8 5 8 vvcurveto
          -38 54 rlineto
          96 -64 -42 48 -20 hhcurveto
          endchar
        </CharString>
        <CharString name="Wdieresis">
          270 255 716 rmoveto
          -16 -10 -10 -21 -5 hvcurveto
          8 -19 65 -16 48 -21 31 -25 rlinecurve
          121 -115 60 -126 -137 vvcurveto
          -61 -15 -52 -31 -41 vhcurveto
          -47 -43 -40 -24 -39 hhcurveto
          -23 -23 11 23 -23 hvcurveto
          -46 80 -23 77 74 vvcurveto
          6 110 rlineto
          43 -11 22 -22 vhcurveto
          -10 -2 rlineto
          -17 -8 -56 -113 hvcurveto
          -13 -140 -20 -79 -26 -19 rrcurveto
          -36 60 -18 92 123 vvcurveto
          9 vlineto
          37 10 31 19 26 vhcurveto
          21 -9 -9 10 -11 hhcurveto
          -38 -10 -20 -40 -1 -69 rrcurveto
          -58 vlineto
          -196 19 36 -98 52 hhcurveto
          6 hlineto
          40 31 42 83 23 hvcurveto
          2 hlineto
          -103 40 55 -51 71 hhcurveto
          28 4 rlineto
          131 49 66 92 134 vvcurveto
          135 -54 130 -108 125 vhcurveto
          71 -80 -67 35 -53 hhcurveto
          64 79 rmoveto
          1 9 -8 10 -16 11 rrcurveto
          -27 -15 -8 -17 -1 hvcurveto
          5 -22 9 -11 14 -1 23 1 13 10 2 18 rrcurveto
          -113 5 rmoveto
          1 14 -8 11 -19 8 -23 -5 -12 -10 -1 -16 1 -19 8 -10 13 -1 18 -1 13 9 9 20 rrcurveto
          endchar
        </CharString>
        <CharString name="Wgrave">
          270 255 716 rmoveto
          -16 -10 -10 -21 -5 hvcurveto
          8 -19 65 -16 48 -21 31 -25 rlinecurve
          121 -115 60 -126 -137 vvcurveto
          -61 -15 -52 -31 -41 vhcurveto
          -47 -43 -40 -24 -39 hhcurveto
          -23 -23 11 23 -23 hvcurveto
          -46 80 -23 77 74 vvcurveto
          6 110 rlineto
          43 -11 22 -22 vhcurveto
          -10 -2 rlineto
          -17 -8 -56 -113 hvcurveto
          -13 -140 -20 -79 -26 -19 rrcurveto
          -36 60 -18 92 123 vvcurveto
          9 vlineto
          37 10 31 19 26 vhcurveto
          21 -9 -9 10 -11 hhcurveto
          -38 -10 -20 -40 -1 -69 rrcurveto
          -58 vlineto
          -196 19 36 -98 52 hhcurveto
          6 hlineto
          40 31 42 83 23 hvcurveto
          2 hlineto
          -103 40 55 -51 71 hhcurveto
          28 4 rlineto
          131 49 66 92 134 vvcurveto
          135 -54 130 -108 125 vhcurveto
          71 -80 -67 35 -53 hhcurveto
          187 18 rmoveto
          -1 15 -8 10 -17 5 -83 59 -57 33 -29 8 -15 -1 -9 -10 -2 -19 -19 -23 46 -34 110 -46 7 -9 19 -9 33 -9 13 1 9 10 3 19 rrcurveto
          endchar
        </CharString>
        <CharString name="X">
          110 372 652 rmoveto
          -39 -45 -36 -59 -33 -73 -30 -66 -26 -81 -23 -97 rrcurveto
          -3 hlineto
          -16 21 rlineto
          179 -61 -36 90 -12 hhcurveto
          -16 hlineto
          -14 -11 -7 -9 -7 vvcurveto
          54 -172 49 -121 43 -70 -17 -133 -9 -118 -1 -103 rrcurveto
          -14 9 -10 18 -7 vhcurveto
          7 10 5 11 12 hvcurveto
          7 126 7 100 7 74 rrcurveto
          6 hlineto
          -41 45 44 -21 43 hhcurveto
          52 6 26 13 21 vvcurveto
          6 vlineto
          12 -5 8 -11 5 vhcurveto
          -6 hlineto
          -44 -9 rlineto
          -31 hlineto
          -35 -36 27 55 -35 hvcurveto
          40 212 62 159 85 106 rrcurveto
          6 vlineto
          13 -8 10 -17 6 vhcurveto
          endchar
        </CharString>
        <CharString name="Y">
          45 166 652 rmoveto
          -35 -23 -87 -175 -11 hvcurveto
          -9 vlineto
          -24 3 -25 7 -26 vhcurveto
          -63 20 34 -31 49 hhcurveto
          40 32 20 39 25 hvcurveto
          9 -12 hlineto
          -206 -33 -103 -67 vhcurveto
          -27 hlineto
          -15 -23 8 17 -31 hvcurveto
          -79 56 rlineto
          -23 -4 -11 -10 -15 vvcurveto
          3 -12 rlineto
          -69 75 66 -34 59 hhcurveto
          26 5 20 6 14 8 rrcurveto
          71 36 35 123 210 vvcurveto
          337 vlineto
          23 -3 -8 11 -14 hhcurveto
          -16 -2 rlineto
          -14 -7 -40 -79 hvcurveto
          -171 -18 -33 -85 -49 hhcurveto
          -38 -19 37 75 hvcurveto
          34 vlineto
          63 13 69 27 74 vhcurveto
          21 -9 -10 10 -12 hhcurveto
          endchar
        </CharString>
        <CharString name="Yacute">
          45 166 652 rmoveto
          -35 -23 -87 -175 -11 hvcurveto
          -9 vlineto
          -24 3 -25 7 -26 vhcurveto
          -63 20 34 -31 49 hhcurveto
          40 32 20 39 25 hvcurveto
          9 -12 hlineto
          -206 -33 -103 -67 vhcurveto
          -27 hlineto
          -15 -23 8 17 -31 hvcurveto
          -79 56 rlineto
          -23 -4 -11 -10 -15 vvcurveto
          3 -12 rlineto
          -69 75 66 -34 59 hhcurveto
          26 5 20 6 14 8 rrcurveto
          71 36 35 123 210 vvcurveto
          337 vlineto
          23 -3 -8 11 -14 hhcurveto
          -16 -2 rlineto
          -14 -7 -40 -79 hvcurveto
          -171 -18 -33 -85 -49 hhcurveto
          -38 -19 37 75 hvcurveto
          34 vlineto
          63 13 69 27 74 vhcurveto
          21 -9 -10 10 -12 hhcurveto
          -44 110 rmoveto
          3 -23 10 -13 16 -1 35 11 21 11 7 11 11 3 55 18 97 34 7 28 rcurveline
          -2 23 -9 13 -17 1 -23 2 -68 -26 -113 -54 -19 -6 -10 -13 -1 -19 rrcurveto
          endchar
        </CharString>
        <CharString name="Ycircumflex">
          45 166 652 rmoveto
          -35 -23 -87 -175 -11 hvcurveto
          -9 vlineto
          -24 3 -25 7 -26 vhcurveto
          -63 20 34 -31 49 hhcurveto
          40 32 20 39 25 hvcurveto
          9 -12 hlineto
          -206 -33 -103 -67 vhcurveto
          -27 hlineto
          -15 -23 8 17 -31 hvcurveto
          -79 56 rlineto
          -23 -4 -11 -10 -15 vvcurveto
          3 -12 rlineto
          -69 75 66 -34 59 hhcurveto
          26 5 20 6 14 8 rrcurveto
          71 36 35 123 210 vvcurveto
          337 vlineto
          23 -3 -8 11 -14 hhcurveto
          -16 -2 rlineto
          -14 -7 -40 -79 hvcurveto
          -171 -18 -33 -85 -49 hhcurveto
          -38 -19 37 75 hvcurveto
          34 vlineto
          63 13 69 27 74 vhcurveto
          21 -9 -10 10 -12 hhcurveto
          19 410 rmoveto
          -105 -146 rlineto
          -19 -7 -10 -7 -5 vvcurveto
          -11 10 -7 19 -4 vhcurveto
          27 -15 5 14 32 42 59 70 rlinecurve
          9 13 13 -14 18 -43 rrcurveto
          48 -57 24 -30 -1 vvcurveto
          26 2 rlineto
          16 2 8 5 8 vvcurveto
          -38 54 rlineto
          96 -64 -42 48 -20 hhcurveto
          endchar
        </CharString>
        <CharString name="Ydieresis">
          45 166 652 rmoveto
          -35 -23 -87 -175 -11 hvcurveto
          -9 vlineto
          -24 3 -25 7 -26 vhcurveto
          -63 20 34 -31 49 hhcurveto
          40 32 20 39 25 hvcurveto
          9 -12 hlineto
          -206 -33 -103 -67 vhcurveto
          -27 hlineto
          -15 -23 8 17 -31 hvcurveto
          -79 56 rlineto
          -23 -4 -11 -10 -15 vvcurveto
          3 -12 rlineto
          -69 75 66 -34 59 hhcurveto
          26 5 20 6 14 8 rrcurveto
          71 36 35 123 210 vvcurveto
          337 vlineto
          23 -3 -8 11 -14 hhcurveto
          -16 -2 rlineto
          -14 -7 -40 -79 hvcurveto
          -171 -18 -33 -85 -49 hhcurveto
          -38 -19 37 75 hvcurveto
          34 vlineto
          63 13 69 27 74 vhcurveto
          21 -9 -10 10 -12 hhcurveto
          126 132 rmoveto
          1 9 -8 10 -16 11 rrcurveto
          -27 -15 -8 -17 -1 hvcurveto
          5 -22 9 -11 14 -1 23 1 13 10 2 18 rrcurveto
          -113 5 rmoveto
          1 14 -8 11 -19 8 -23 -5 -12 -10 -1 -16 1 -19 8 -10 13 -1 18 -1 13 9 9 20 rrcurveto
          endchar
        </CharString>
        <CharString name="Ygrave">
          45 166 652 rmoveto
          -35 -23 -87 -175 -11 hvcurveto
          -9 vlineto
          -24 3 -25 7 -26 vhcurveto
          -63 20 34 -31 49 hhcurveto
          40 32 20 39 25 hvcurveto
          9 -12 hlineto
          -206 -33 -103 -67 vhcurveto
          -27 hlineto
          -15 -23 8 17 -31 hvcurveto
          -79 56 rlineto
          -23 -4 -11 -10 -15 vvcurveto
          3 -12 rlineto
          -69 75 66 -34 59 hhcurveto
          26 5 20 6 14 8 rrcurveto
          71 36 35 123 210 vvcurveto
          337 vlineto
          23 -3 -8 11 -14 hhcurveto
          -16 -2 rlineto
          -14 -7 -40 -79 hvcurveto
          -171 -18 -33 -85 -49 hhcurveto
          -38 -19 37 75 hvcurveto
          34 vlineto
          63 13 69 27 74 vhcurveto
          21 -9 -10 10 -12 hhcurveto
          164 82 rmoveto
          -1 15 -8 10 -17 5 -83 59 -57 33 -29 8 -15 -1 -9 -10 -2 -19 -19 -23 46 -34 110 -46 7 -9 19 -9 33 -9 13 1 9 10 3 19 rrcurveto
          endchar
        </CharString>
        <CharString name="Z">
          103 135 464 rmoveto
          -31 hlineto
          -23 -11 -9 -19 hvcurveto
          -4 vlineto
          -21 20 -10 39 vhcurveto
          3 hlineto
          3 4 210 6 rlineto
          9 hlineto
          -8 -11 -23 -23 -38 vhcurveto
          -57 -82 -72 -76 -87 -70 -13 3 rcurveline
          -47 -11 -24 -23 -34 vvcurveto
          -21 3 9 -11 15 hhcurveto
          9 23 11 21 37 hvcurveto
          31 -19 rlineto
          -103 101 82 -51 61 hhcurveto
          13 hlineto
          67 5 33 15 24 vvcurveto
          14 -9 10 -19 7 vhcurveto
          -10 -25 -25 -5 -25 hhcurveto
          -47 6 -21 2 -62 47 -101 91 rlinecurve
          6 29 31 58 55 vhcurveto
          100 114 56 87 13 61 rrcurveto
          23 -20 11 -40 vhcurveto
          -21 hlineto
          endchar
        </CharString>
        <CharString name="Zacute">
          103 135 464 rmoveto
          -31 hlineto
          -23 -11 -9 -19 hvcurveto
          -4 vlineto
          -21 20 -10 39 vhcurveto
          3 hlineto
          3 4 210 6 rlineto
          9 hlineto
          -8 -11 -23 -23 -38 vhcurveto
          -57 -82 -72 -76 -87 -70 -13 3 rcurveline
          -47 -11 -24 -23 -34 vvcurveto
          -21 3 9 -11 15 hhcurveto
          9 23 11 21 37 hvcurveto
          31 -19 rlineto
          -103 101 82 -51 61 hhcurveto
          13 hlineto
          67 5 33 15 24 vvcurveto
          14 -9 10 -19 7 vhcurveto
          -10 -25 -25 -5 -25 hhcurveto
          -47 6 -21 2 -62 47 -101 91 rlinecurve
          6 29 31 58 55 vhcurveto
          100 114 56 87 13 61 rrcurveto
          23 -20 11 -40 vhcurveto
          -21 hlineto
          -236 116 rmoveto
          3 -23 10 -13 16 -1 35 11 21 11 7 11 11 3 55 18 97 34 7 28 rcurveline
          -2 23 -9 13 -17 1 -23 2 -68 -26 -113 -54 -19 -6 -10 -13 -1 -19 rrcurveto
          endchar
        </CharString>
        <CharString name="Zcaron">
          103 135 464 rmoveto
          -31 hlineto
          -23 -11 -9 -19 hvcurveto
          -4 vlineto
          -21 20 -10 39 vhcurveto
          3 hlineto
          3 4 210 6 rlineto
          9 hlineto
          -8 -11 -23 -23 -38 vhcurveto
          -57 -82 -72 -76 -87 -70 -13 3 rcurveline
          -47 -11 -24 -23 -34 vvcurveto
          -21 3 9 -11 15 hhcurveto
          9 23 11 21 37 hvcurveto
          31 -19 rlineto
          -103 101 82 -51 61 hhcurveto
          13 hlineto
          67 5 33 15 24 vvcurveto
          14 -9 10 -19 7 vhcurveto
          -10 -25 -25 -5 -25 hhcurveto
          -47 6 -21 2 -62 47 -101 91 rlinecurve
          6 29 31 58 55 vhcurveto
          100 114 56 87 13 61 rrcurveto
          23 -20 11 -40 vhcurveto
          -21 hlineto
          -71 83 rmoveto
          23 46 44 88 70 hvcurveto
          40 48 rlineto
          8 -9 5 -18 1 vhcurveto
          -2 hlineto
          -17 -31 -30 -59 -45 hvcurveto
          -27 -31 -17 -18 -7 -4 -67 80 -42 41 -17 2 -11 2 rcurveline
          -21 -5 -11 -6 -9 vvcurveto
          -5 11 -6 21 -7 vhcurveto
          115 -132 rlineto
          endchar
        </CharString>
        <CharString name="Zdotaccent">
          103 135 464 rmoveto
          -31 hlineto
          -23 -11 -9 -19 hvcurveto
          -4 vlineto
          -21 20 -10 39 vhcurveto
          3 hlineto
          3 4 210 6 rlineto
          9 hlineto
          -8 -11 -23 -23 -38 vhcurveto
          -57 -82 -72 -76 -87 -70 -13 3 rcurveline
          -47 -11 -24 -23 -34 vvcurveto
          -21 3 9 -11 15 hhcurveto
          9 23 11 21 37 hvcurveto
          31 -19 rlineto
          -103 101 82 -51 61 hhcurveto
          13 hlineto
          67 5 33 15 24 vvcurveto
          14 -9 10 -19 7 vhcurveto
          -10 -25 -25 -5 -25 hhcurveto
          -47 6 -21 2 -62 47 -101 91 rlinecurve
          6 29 31 58 55 vhcurveto
          100 114 56 87 13 61 rrcurveto
          23 -20 11 -40 vhcurveto
          -21 hlineto
          -106 157 rmoveto
          -24 -18 -16 -32 -11 hvcurveto
          -31 6 13 -15 20 hhcurveto
          27 16 15 31 6 hvcurveto
          32 -3 -12 16 -20 hhcurveto
          endchar
        </CharString>
        <CharString name="a">
          -75 206 386 rmoveto
          -21 -24 -10 -21 -26 hvcurveto
          -75 -93 -38 -94 -94 vvcurveto
          -43 18 -26 35 -10 vhcurveto
          38 32 37 75 27 hvcurveto
          7 hlineto
          -70 25 -52 50 -34 vhcurveto
          6 hlineto
          16 9 10 19 2 hvcurveto
          -2 15 rlineto
          -33 20 -17 51 83 vvcurveto
          6 183 9 19 rlineto
          23 -15 12 -29 vhcurveto
          -121 -272 rmoveto
          13 78 26 60 38 43 rrcurveto
          4 hlineto
          -27 -25 -76 -50 -125 vhcurveto
          -10 19 hlineto
          endchar
        </CharString>
        <CharString name="aacute">
          -75 206 386 rmoveto
          -21 -24 -10 -21 -26 hvcurveto
          -75 -93 -38 -94 -94 vvcurveto
          -43 18 -26 35 -10 vhcurveto
          38 32 37 75 27 hvcurveto
          7 hlineto
          -70 25 -52 50 -34 vhcurveto
          6 hlineto
          16 9 10 19 2 hvcurveto
          -2 15 rlineto
          -33 20 -17 51 83 vvcurveto
          6 183 9 19 rlineto
          23 -15 12 -29 vhcurveto
          -121 -272 rmoveto
          13 78 26 60 38 43 rrcurveto
          4 hlineto
          -27 -25 -76 -50 -125 vhcurveto
          -10 19 hlineto
          -46 412 rmoveto
          3 -23 10 -13 16 -1 35 11 21 11 7 11 11 3 55 18 97 34 7 28 rcurveline
          -2 23 -9 13 -17 1 -23 2 -68 -26 -113 -54 -19 -6 -10 -13 -1 -19 rrcurveto
          endchar
        </CharString>
        <CharString name="abreve">
          -75 206 386 rmoveto
          -21 -24 -10 -21 -26 hvcurveto
          -75 -93 -38 -94 -94 vvcurveto
          -43 18 -26 35 -10 vhcurveto
          38 32 37 75 27 hvcurveto
          7 hlineto
          -70 25 -52 50 -34 vhcurveto
          6 hlineto
          16 9 10 19 2 hvcurveto
          -2 15 rlineto
          -33 20 -17 51 83 vvcurveto
          6 183 9 19 rlineto
          23 -15 12 -29 vhcurveto
          -121 -272 rmoveto
          13 78 26 60 38 43 rrcurveto
          4 hlineto
          -27 -25 -76 -50 -125 vhcurveto
          -10 19 hlineto
          127 460 rmoveto
          -7 -63 -27 -31 -48 3 rrcurveto
          -22 -11 12 23 hvcurveto
          51 vlineto
          -37 1 -5 -20 2 -25 8 -29 rlinecurve
          8 -29 25 -14 42 1 14 -1 21 7 27 13 27 14 16 34 3 53 rrcurveto
          endchar
        </CharString>
        <CharString name="acircumflex">
          -75 206 386 rmoveto
          -21 -24 -10 -21 -26 hvcurveto
          -75 -93 -38 -94 -94 vvcurveto
          -43 18 -26 35 -10 vhcurveto
          38 32 37 75 27 hvcurveto
          7 hlineto
          -70 25 -52 50 -34 vhcurveto
          6 hlineto
          16 9 10 19 2 hvcurveto
          -2 15 rlineto
          -33 20 -17 51 83 vvcurveto
          6 183 9 19 rlineto
          23 -15 12 -29 vhcurveto
          -121 -272 rmoveto
          13 78 26 60 38 43 rrcurveto
          4 hlineto
          -27 -25 -76 -50 -125 vhcurveto
          -10 19 hlineto
          44 545 rmoveto
          -105 -146 rlineto
          -19 -7 -10 -7 -5 vvcurveto
          -11 10 -7 19 -4 vhcurveto
          27 -15 5 14 32 42 59 70 rlinecurve
          9 13 13 -14 18 -43 rrcurveto
          48 -57 24 -30 -1 vvcurveto
          26 2 rlineto
          16 2 8 5 8 vvcurveto
          -38 54 rlineto
          96 -64 -42 48 -20 hhcurveto
          endchar
        </CharString>
        <CharString name="acute">
          5 35 541 rmoveto
          3 -23 10 -13 16 -1 35 11 21 11 7 11 11 3 55 18 97 34 7 28 rcurveline
          -2 23 -9 13 -17 1 -23 2 -68 -26 -113 -54 -19 -6 -10 -13 -1 -19 rrcurveto
          endchar
        </CharString>
        <CharString name="adieresis">
          -75 206 386 rmoveto
          -21 -24 -10 -21 -26 hvcurveto
          -75 -93 -38 -94 -94 vvcurveto
          -43 18 -26 35 -10 vhcurveto
          38 32 37 75 27 hvcurveto
          7 hlineto
          -70 25 -52 50 -34 vhcurveto
          6 hlineto
          16 9 10 19 2 hvcurveto
          -2 15 rlineto
          -33 20 -17 51 83 vvcurveto
          6 183 9 19 rlineto
          23 -15 12 -29 vhcurveto
          -121 -272 rmoveto
          13 78 26 60 38 43 rrcurveto
          4 hlineto
          -27 -25 -76 -50 -125 vhcurveto
          -10 19 hlineto
          154 388 rmoveto
          1 9 -8 10 -16 11 rrcurveto
          -27 -15 -8 -17 -1 hvcurveto
          5 -22 9 -11 14 -1 23 1 13 10 2 18 rrcurveto
          -113 5 rmoveto
          1 14 -8 11 -19 8 -23 -5 -12 -10 -1 -16 1 -19 8 -10 13 -1 18 -1 13 9 9 20 rrcurveto
          endchar
        </CharString>
        <CharString name="ae">
          142 284 346 rmoveto
          -19 -14 -7 -13 -10 hvcurveto
          6 vlineto
          9 19 rlineto
          23 -15 12 -29 -21 -24 -10 -21 -26 vhcurveto
          -75 -93 -38 -94 -94 vvcurveto
          -43 18 -26 35 -10 vhcurveto
          38 32 37 75 27 hvcurveto
          7 hlineto
          -70 25 -52 50 -34 vhcurveto
          6 hlineto
          16 9 10 19 2 hvcurveto
          -2 15 -20 11 -14 24 -9 35 rlinecurve
          -52 22 31 -26 39 hhcurveto
          21 5 17 6 15 8 rrcurveto
          56 39 28 28 17 vvcurveto
          19 -7 -10 10 -14 hhcurveto
          -6 hlineto
          -46 -43 -33 -23 -21 hhcurveto
          -12 hlineto
          -15 -15 30 60 -14 hvcurveto
          4 vlineto
          3 2 rlineto
          91 10 46 15 19 vvcurveto
          -2 16 -63 93 -45 46 -27 1 rlinecurve
          -199 -232 rmoveto
          13 78 26 60 38 43 rrcurveto
          4 hlineto
          -27 -25 -76 -50 -125 vhcurveto
          -10 19 hlineto
          209 189 rmoveto
          14 -12 16 -19 17 -25 rrcurveto
          -7 -19 -4 -37 -2 vhcurveto
          -4 31 hlineto
          4 38 rlineto
          endchar
        </CharString>
        <CharString name="aeacute">
          142 284 346 rmoveto
          -19 -14 -7 -13 -10 hvcurveto
          6 vlineto
          9 19 rlineto
          23 -15 12 -29 -21 -24 -10 -21 -26 vhcurveto
          -75 -93 -38 -94 -94 vvcurveto
          -43 18 -26 35 -10 vhcurveto
          38 32 37 75 27 hvcurveto
          7 hlineto
          -70 25 -52 50 -34 vhcurveto
          6 hlineto
          16 9 10 19 2 hvcurveto
          -2 15 -20 11 -14 24 -9 35 rlinecurve
          -52 22 31 -26 39 hhcurveto
          21 5 17 6 15 8 rrcurveto
          56 39 28 28 17 vvcurveto
          19 -7 -10 10 -14 hhcurveto
          -6 hlineto
          -46 -43 -33 -23 -21 hhcurveto
          -12 hlineto
          -15 -15 30 60 -14 hvcurveto
          4 vlineto
          3 2 rlineto
          91 10 46 15 19 vvcurveto
          -2 16 -63 93 -45 46 -27 1 rlinecurve
          -199 -232 rmoveto
          13 78 26 60 38 43 rrcurveto
          4 hlineto
          -27 -25 -76 -50 -125 vhcurveto
          -10 19 hlineto
          209 189 rmoveto
          14 -12 16 -19 17 -25 rrcurveto
          -7 -19 -4 -37 -2 vhcurveto
          -4 31 hlineto
          4 38 rlineto
          -159 266 rmoveto
          3 -23 10 -13 16 -1 35 11 21 11 7 11 11 3 55 18 97 34 7 28 rcurveline
          -2 23 -9 13 -17 1 -23 2 -68 -26 -113 -54 -19 -6 -10 -13 -1 -19 rrcurveto
          endchar
        </CharString>
        <CharString name="agrave">
          -75 206 386 rmoveto
          -21 -24 -10 -21 -26 hvcurveto
          -75 -93 -38 -94 -94 vvcurveto
          -43 18 -26 35 -10 vhcurveto
          38 32 37 75 27 hvcurveto
          7 hlineto
          -70 25 -52 50 -34 vhcurveto
          6 hlineto
          16 9 10 19 2 hvcurveto
          -2 15 rlineto
          -33 20 -17 51 83 vvcurveto
          6 183 9 19 rlineto
          23 -15 12 -29 vhcurveto
          -121 -272 rmoveto
          13 78 26 60 38 43 rrcurveto
          4 hlineto
          -27 -25 -76 -50 -125 vhcurveto
          -10 19 hlineto
          259 338 rmoveto
          -1 15 -8 10 -17 5 -83 59 -57 33 -29 8 -15 -1 -9 -10 -2 -19 -19 -23 46 -34 110 -46 7 -9 19 -9 33 -9 13 1 9 10 3 19 rrcurveto
          endchar
        </CharString>
        <CharString name="amacron">
          -75 206 386 rmoveto
          -21 -24 -10 -21 -26 hvcurveto
          -75 -93 -38 -94 -94 vvcurveto
          -43 18 -26 35 -10 vhcurveto
          38 32 37 75 27 hvcurveto
          7 hlineto
          -70 25 -52 50 -34 vhcurveto
          6 hlineto
          16 9 10 19 2 hvcurveto
          -2 15 rlineto
          -33 20 -17 51 83 vvcurveto
          6 183 9 19 rlineto
          23 -15 12 -29 vhcurveto
          -121 -272 rmoveto
          13 78 26 60 38 43 rrcurveto
          4 hlineto
          -27 -25 -76 -50 -125 vhcurveto
          -10 19 hlineto
          19 438 rmoveto
          -6 hlineto
          -38 9 rlineto
          -18 -8 -9 -11 -13 vvcurveto
          -20 22 -12 43 -5 vhcurveto
          33 41 3 7 48 hvcurveto
          63 31 10 21 hvcurveto
          21 -3 -10 10 -16 hhcurveto
          endchar
        </CharString>
        <CharString name="ampersand">
          13 111 715 rmoveto
          -38 -23 -50 -100 -8 hvcurveto
          -54 13 -85 25 -117 vhcurveto
          -3 vlineto
          -35 -127 -18 -95 -63 vvcurveto
          -6 vlineto
          -27 3 -21 6 -15 vhcurveto
          -45 19 27 -23 35 hhcurveto
          47 47 28 57 48 hvcurveto
          -19 31 18 -10 7 hhcurveto
          17 11 10 21 6 hvcurveto
          -3 10 rlineto
          -37 24 -19 15 5 vvcurveto
          33 95 17 75 55 vvcurveto
          -3 33 -5 32 -8 29 rrcurveto
          54 -29 -29 27 -30 hhcurveto
          -17 -9 -8 -10 -10 vvcurveto
          6 -21 rlineto
          40 -17 20 -32 -45 vvcurveto
          -54 vlineto
          -47 -10 -49 -21 -50 vhcurveto
          -10 6 -2 3 -55 108 -30 73 -3 38 rlinecurve
          3 vlineto
          43 143 22 93 42 vvcurveto
          -9 54 rlineto
          50 -25 -25 25 -25 hhcurveto
          -6 -63 rmoveto
          13 10 -16 -31 5 hvcurveto
          -38 vlineto
          -51 -11 -45 -21 -41 vhcurveto
          -2 hlineto
          -9 49 -4 41 35 vvcurveto
          47 6 32 13 18 vhcurveto
          -4 -460 rmoveto
          4 -2 23 -61 31 -60 40 -58 rlinecurve
          -46 -23 -31 -23 -37 hhcurveto
          -15 hlineto
          -15 9 -8 19 28 vvcurveto
          25 vlineto
          58 10 56 19 55 vhcurveto
          endchar
        </CharString>
        <CharString name="aogonek">
          -75 206 386 rmoveto
          -21 -24 -10 -21 -26 hvcurveto
          -75 -93 -38 -94 -94 vvcurveto
          -43 18 -26 35 -10 vhcurveto
          38 32 37 75 27 hvcurveto
          7 hlineto
          -45 10 -37 20 -29 vhcurveto
          -51 -31 -26 -37 -41 vvcurveto
          -33 23 -26 46 -19 vhcurveto
          70 15 44 23 19 29 19 29 -7 7 -32 -15 rrcurveto
          -82 -19 -41 -4 10 vvcurveto
          10 vlineto
          53 65 10 -8 rlineto
          6 hlineto
          16 9 10 19 2 hvcurveto
          -2 15 rlineto
          -33 20 -17 51 83 vvcurveto
          6 183 9 19 rlineto
          23 -15 12 -29 vhcurveto
          -121 -272 rmoveto
          13 78 26 60 38 43 rrcurveto
          4 hlineto
          -27 -25 -76 -50 -125 vhcurveto
          -10 19 hlineto
          endchar
        </CharString>
        <CharString name="aring">
          -75 224 566 rmoveto
          -10 -10 -2 -3 -9 hvcurveto
          -52 -30 -26 -43 -57 vvcurveto
          -6 vlineto
          -9 2 -10 5 -12 vhcurveto
          5 -13 8 -10 10 -6 -12 -10 rcurveline
          -75 -93 -38 -94 -94 vvcurveto
          -43 18 -26 35 -10 vhcurveto
          38 32 37 75 27 hvcurveto
          7 hlineto
          -70 25 -52 50 -34 vhcurveto
          6 hlineto
          16 9 10 19 2 hvcurveto
          -2 15 rlineto
          -33 20 -17 51 83 vvcurveto
          6 183 9 19 rlineto
          13 -4 9 -9 6 vhcurveto
          43 40 21 39 37 vvcurveto
          -2 12 rlineto
          39 -16 -25 20 -34 hhcurveto
          -67 -140 rmoveto
          32 8 27 15 21 vhcurveto
          18 3 9 5 6 vvcurveto
          9 4 5 9 20 14 -11 -23 7 vhcurveto
          -10 vlineto
          -67 -21 -27 -34 -33 hhcurveto
          -15 -8 12 25 hvcurveto
          -72 -312 rmoveto
          13 78 26 60 38 43 rrcurveto
          4 hlineto
          -27 -25 -76 -50 -125 vhcurveto
          -10 19 hlineto
          endchar
        </CharString>
        <CharString name="asciicircum">
          267 280 695 rmoveto
          -125 -246 rlineto
          -23 -12 -11 -11 -9 vvcurveto
          -17 11 -13 23 -7 vhcurveto
          12 2 19 5 46 77 73 147 rlinecurve
          7 -7 19 -34 30 -59 rrcurveto
          -108 49 33 -54 18 hhcurveto
          4 hlineto
          18 3 9 9 13 vvcurveto
          -43 90 rlineto
          161 -76 -50 80 -24 hhcurveto
          endchar
        </CharString>
        <CharString name="asciitilde">
          267 542 537 rmoveto
          -9 12 -5 14 -3 16 -41 37 -46 19 -51 1 -38 1 -32 -11 -25 -22 -25 -43 -24 -22 -24 1 rrcurveto
          -15 hlineto
          -59 17 -29 19 3 19 rrcurveto
          7 vlineto
          8 5 -42 22 -26 -3 -10 -27 rlinecurve
          5 -20 41 -45 52 -23 64 -1 rlinecurve
          40 -1 34 9 29 19 rrcurveto
          47 32 22 23 12 hhcurveto
          11 -1 47 -13 30 -20 11 -26 rlinecurve
          41 -15 21 -3 1 8 rrcurveto
          endchar
        </CharString>
        <CharString name="asterisk">
          273 277 620 rmoveto
          -19 -15 -21 -42 -12 hvcurveto
          -60 -10 -6 -30 -3 hhcurveto
          -3 hlineto
          39 -39 -24 20 -9 hhcurveto
          -15 -10 -8 -17 -6 hvcurveto
          -11 13 -17 25 -22 vhcurveto
          -9 vlineto
          -19 -3 -10 -9 -13 vvcurveto
          -7 19 -38 37 -71 vhcurveto
          -2 vlineto
          -2 -4 rlineto
          -65 -37 -33 -44 -53 vvcurveto
          -40 3 11 -20 21 hhcurveto
          21 32 40 79 43 hvcurveto
          7 11 -32 -64 17 hvcurveto
          -50 11 -25 23 17 10 11 22 2 vhcurveto
          32 vlineto
          -13 160 rlineto
          4 5 2 10 vhcurveto
          7 hlineto
          -54 69 53 -27 38 hhcurveto
          31 7 15 12 18 vvcurveto
          -3 15 rlineto
          61 -31 -56 30 -79 hhcurveto
          -9 -3 rlineto
          -11 -20 20 40 -31 hvcurveto
          21 79 10 61 43 vvcurveto
          19 -10 13 -19 6 vhcurveto
          -75 -234 rmoveto
          -6 -2 vlineto
          -3 -5 6 13 -5 hvcurveto
          2 vlineto
          endchar
        </CharString>
        <CharString name="at">
          222 302 637 rmoveto
          -33 -36 -11 -22 -39 hvcurveto
          -100 -89 -50 -121 -153 vvcurveto
          -16 vlineto
          2 -56 rlineto
          -163 32 75 -81 118 hhcurveto
          27 34 10 21 39 hvcurveto
          111 82 55 89 95 vvcurveto
          29 -5 25 -11 21 vhcurveto
          6 65 rlineto
          7 vlineto
          -6 68 rlineto
          133 -39 -70 67 -100 hhcurveto
          -210 -390 rmoveto
          53 8 48 15 43 vhcurveto
          125 44 55 63 66 hhcurveto
          35 hlineto
          34 -10 rlineto
          73 -33 37 -69 -107 vvcurveto
          -65 -9 -13 -33 -16 hhcurveto
          -6 hlineto
          -7 -5 13 25 -4 hvcurveto
          6 vlineto
          16 94 rlineto
          33 -14 17 -27 vhcurveto
          -9 hlineto
          -19 -19 -5 -10 -18 hvcurveto
          -86 -65 -43 -69 -72 vvcurveto
          -61 7 25 -31 43 hhcurveto
          4 hlineto
          32 33 31 61 35 hvcurveto
          2 hlineto
          -17 22 15 -8 7 hhcurveto
          14 20 5 10 26 hvcurveto
          2 hlineto
          -6 -47 rlineto
          -125 -54 -67 -62 -81 hhcurveto
          -42 6 rlineto
          -83 31 -42 80 129 vvcurveto
          154 35 rmoveto
          77 34 31 38 29 hhcurveto
          -76 -26 -61 -53 -47 vhcurveto
          -10 -7 5 10 -4 hvcurveto
          29 vlineto
          endchar
        </CharString>
        <CharString name="atilde">
          -75 206 386 rmoveto
          -21 -24 -10 -21 -26 hvcurveto
          -75 -93 -38 -94 -94 vvcurveto
          -43 18 -26 35 -10 vhcurveto
          38 32 37 75 27 hvcurveto
          7 hlineto
          -70 25 -52 50 -34 vhcurveto
          6 hlineto
          16 9 10 19 2 hvcurveto
          -2 15 rlineto
          -33 20 -17 51 83 vvcurveto
          6 183 9 19 rlineto
          23 -15 12 -29 vhcurveto
          -121 -272 rmoveto
          13 78 26 60 38 43 rrcurveto
          4 hlineto
          -27 -25 -76 -50 -125 vhcurveto
          -10 19 hlineto
          261 366 rmoveto
          -5 17 -4 21 -2 24 -26 55 -29 28 -32 2 -24 1 -20 -16 -16 -33 -16 -64 -16 -32 -16 1 rrcurveto
          -9 hlineto
          -37 27 -19 27 1 27 rrcurveto
          12 vlineto
          7 6 -27 33 -17 -4 -7 -40 rlinecurve
          4 -30 26 -65 33 -34 41 -3 rlinecurve
          25 -1 22 14 17 27 rrcurveto
          69 21 15 34 7 hhcurveto
          8 -1 29 -19 18 -29 7 -39 rlinecurve
          27 -22 13 -5 1 12 rrcurveto
          endchar
        </CharString>
        <CharString name="b">
          27 475 rmoveto
          -18 -7 -9 -9 -13 vvcurveto
          15 -37 50 -359 rlineto
          -27 17 -16 33 -7 vhcurveto
          29 27 13 27 25 hvcurveto
          59 71 29 65 58 vvcurveto
          3 vlineto
          69 -12 -28 34 -44 hhcurveto
          -4 hlineto
          -14 -1 -7 -2 -3 vvcurveto
          -19 -25 -31 -63 -31 hvcurveto
          -6 31 rlineto
          136 -10 -22 68 -35 hhcurveto
          104 -406 rmoveto
          13 125 21 70 29 17 rrcurveto
          8 hlineto
          9 8 -10 -21 6 hvcurveto
          -38 vlineto
          -26 -81 -30 -48 -35 -14 rrcurveto
          endchar
        </CharString>
        <CharString name="backslash">
          -12 335 574 rmoveto
          -15 -11 -8 -17 -5 hvcurveto
          -171 -349 -86 -186 -22 vvcurveto
          -15 10 -9 19 -3 vhcurveto
          21 6 33 85 44 96 55 107 rlinecurve
          78 160 45 96 12 31 rrcurveto
          14 -10 9 -19 5 vhcurveto
          endchar
        </CharString>
        <CharString name="bar">
          -200 76 551 rmoveto
          -21 -3 -10 -9 -17 vvcurveto
          9 -396 rlineto
          -116 vlineto
          -11 6 -9 12 -8 vhcurveto
          13 hlineto
          19 10 11 23 hvcurveto
          123 vlineto
          -10 381 rlineto
          14 -9 10 -19 7 vhcurveto
          endchar
        </CharString>
        <CharString name="braceleft">
          63 344 726 rmoveto
          -75 -51 -38 -69 -86 vvcurveto
          -39 13 -38 27 -36 vhcurveto
          -71 -55 -41 -43 -9 -29 rrcurveto
          -14 9 -10 18 -7 vhcurveto
          44 2 rlineto
          4 -2 hlineto
          -36 -100 -18 -88 -75 vvcurveto
          -76 17 -68 33 -60 vhcurveto
          37 -57 50 -39 63 -19 rrcurveto
          6 hlineto
          19 19 rlineto
          19 vlineto
          -6 9 rlineto
          -106 47 -53 81 115 vvcurveto
          44 vlineto
          87 26 95 52 103 vhcurveto
          19 vlineto
          -5 11 -9 7 -14 3 -12 -2 rcurveline
          -4 2 hlineto
          5 9 14 11 25 15 rrcurveto
          45 15 23 15 14 vvcurveto
          23 -13 11 -27 -27 -16 24 48 -4 vhcurveto
          61 19 50 37 39 vhcurveto
          33 12 17 13 15 vvcurveto
          21 -3 -8 10 -14 hhcurveto
          endchar
        </CharString>
        <CharString name="braceright">
          27 217 744 rmoveto
          -17 -11 -11 -21 -5 hvcurveto
          -10 vlineto
          33 -35 17 -35 -36 vvcurveto
          -25 vlineto
          -49 -26 -79 -53 -109 vhcurveto
          -23 27 -19 54 -15 vhcurveto
          -2 vlineto
          -12 -73 rlineto
          -21 vlineto
          33 -166 17 -97 -28 vvcurveto
          -46 -15 -31 -29 -17 vhcurveto
          -56 -9 -28 -14 -17 vvcurveto
          -16 7 -10 14 -5 vhcurveto
          69 12 rlineto
          65 29 33 51 73 vvcurveto
          -4 41 rlineto
          -31 156 -15 93 29 vvcurveto
          6 vlineto
          20 11 21 22 21 vhcurveto
          10 vlineto
          19 -31 19 -62 19 vhcurveto
          45 100 23 79 58 vvcurveto
          6 vlineto
          -13 93 -25 53 -37 11 rrcurveto
          endchar
        </CharString>
        <CharString name="bracketleft">
          -22 129 586 rmoveto
          -42 -26 -21 -87 -147 vvcurveto
          -81 vlineto
          -9 -156 rlineto
          -63 vlineto
          -25 2 11 -12 19 hhcurveto
          21 10 rlineto
          -46 67 54 -23 39 hhcurveto
          23 5 11 10 16 vvcurveto
          7 -5 10 -10 11 vhcurveto
          -57 -57 26 52 -59 hvcurveto
          15 vlineto
          10 163 rlineto
          81 vlineto
          123 11 70 23 17 vhcurveto
          73 10 37 15 21 vvcurveto
          10 vlineto
          15 -11 -9 7 -9 hhcurveto
          endchar
        </CharString>
        <CharString name="bracketright">
          -75 141 600 rmoveto
          -23 -4 -11 -9 -15 vvcurveto
          -18 28 -20 56 -22 vhcurveto
          4 hlineto
          -25 -165 -13 -111 -57 vvcurveto
          3 -135 rlineto
          -85 -47 -43 -29 -12 vvcurveto
          -23 5 9 -11 14 hhcurveto
          108 55 54 36 18 vvcurveto
          -6 119 rlineto
          19 vlineto
          89 15 122 29 155 vhcurveto
          -9 21 -51 14 -36 15 -23 15 rlinecurve
          endchar
        </CharString>
        <CharString name="breve">
          94 251 481 rmoveto
          -7 -63 -27 -31 -48 3 rrcurveto
          -22 -11 12 23 hvcurveto
          51 vlineto
          -37 1 -5 -20 2 -25 8 -29 rlinecurve
          8 -29 25 -14 42 1 14 -1 21 7 27 13 27 14 16 34 3 53 rrcurveto
          endchar
        </CharString>
        <CharString name="brokenbar">
          -212 47 251 rmoveto
          -11 -239 rlineto
          -14 10 -10 19 -7 vhcurveto
          16 10 10 21 5 hvcurveto
          8 239 rlineto
          7 40 rmoveto
          -5 90 -2 54 rlineto
          85 -11 42 -21 -19 -11 -8 -17 -5 vhcurveto
          10 -162 2 -88 rlineto
          endchar
        </CharString>
        <CharString name="bullet">
          -105 145 331 rmoveto
          -43 -31 -27 -55 -19 hvcurveto
          -55 10 23 -27 36 hhcurveto
          47 28 27 55 11 hvcurveto
          55 -5 -20 27 -37 hhcurveto
          endchar
        </CharString>
        <CharString name="c">
          121 339 rmoveto
          -64 -29 -32 -53 -78 vvcurveto
          -22 vlineto
          -108 21 45 -54 68 hhcurveto
          15 11 2 4 9 hvcurveto
          51 23 30 26 9 29 rrcurveto
          19 -8 -11 9 -13 hhcurveto
          -6 hlineto
          -35 -37 -28 -18 -19 hhcurveto
          -10 hlineto
          -32 -23 37 73 -13 hvcurveto
          33 vlineto
          33 14 28 27 21 vhcurveto
          43 5 22 11 19 vvcurveto
          21 -2 -9 10 -17 hhcurveto
          endchar
        </CharString>
        <CharString name="cacute">
          121 339 rmoveto
          -64 -29 -32 -53 -78 vvcurveto
          -22 vlineto
          -108 21 45 -54 68 hhcurveto
          15 11 2 4 9 hvcurveto
          51 23 30 26 9 29 rrcurveto
          19 -8 -11 9 -13 hhcurveto
          -6 hlineto
          -35 -37 -28 -18 -19 hhcurveto
          -10 hlineto
          -32 -23 37 73 -13 hvcurveto
          33 vlineto
          33 14 28 27 21 vhcurveto
          43 5 22 11 19 vvcurveto
          21 -2 -9 10 -17 hhcurveto
          -145 111 rmoveto
          3 -23 10 -13 16 -1 35 11 21 11 7 11 11 3 55 18 97 34 7 28 rcurveline
          -2 23 -9 13 -17 1 -23 2 -68 -26 -113 -54 -19 -6 -10 -13 -1 -19 rrcurveto
          endchar
        </CharString>
        <CharString name="caron">
          172 285 387 rmoveto
          23 46 44 88 70 hvcurveto
          40 48 rlineto
          8 -9 5 -18 1 vhcurveto
          -2 hlineto
          -17 -31 -30 -59 -45 hvcurveto
          -27 -31 -17 -18 -7 -4 -67 80 -42 41 -17 2 -11 2 rcurveline
          -21 -5 -11 -6 -9 vvcurveto
          -5 11 -6 21 -7 vhcurveto
          115 -132 rlineto
          endchar
        </CharString>
        <CharString name="ccaron">
          121 339 rmoveto
          -64 -29 -32 -53 -78 vvcurveto
          -22 vlineto
          -108 21 45 -54 68 hhcurveto
          15 11 2 4 9 hvcurveto
          51 23 30 26 9 29 rrcurveto
          19 -8 -11 9 -13 hhcurveto
          -6 hlineto
          -35 -37 -28 -18 -19 hhcurveto
          -10 hlineto
          -32 -23 37 73 -13 hvcurveto
          33 vlineto
          33 14 28 27 21 vhcurveto
          43 5 22 11 19 vvcurveto
          21 -2 -9 10 -17 hhcurveto
          -11 42 rmoveto
          23 46 44 88 70 hvcurveto
          40 48 rlineto
          8 -9 5 -18 1 vhcurveto
          -2 hlineto
          -17 -31 -30 -59 -45 hvcurveto
          -27 -31 -17 -18 -7 -4 -67 80 -42 41 -17 2 -11 2 rcurveline
          -21 -5 -11 -6 -9 vvcurveto
          -5 11 -6 21 -7 vhcurveto
          115 -132 rlineto
          endchar
        </CharString>
        <CharString name="ccedilla">
          121 339 rmoveto
          -64 -29 -32 -53 -78 vvcurveto
          -22 vlineto
          15 -77 27 -50 39 -23 rrcurveto
          -3 -9 -2 -15 -22 vvcurveto
          -27 17 -22 34 -16 vhcurveto
          65 -14 32 -16 -17 vvcurveto
          -10 vlineto
          -43 -25 -26 -22 -28 hhcurveto
          -11 hlineto
          -7 5 rlineto
          28 -3 -8 14 -12 hhcurveto
          -15 -3 -8 -8 -13 vvcurveto
          -2 vlineto
          -42 20 -23 41 -5 vhcurveto
          29 5 rlineto
          64 33 32 38 45 vvcurveto
          29 -14 23 -29 18 vhcurveto
          -69 19 -35 15 9 vvcurveto
          7 vlineto
          16 29 13 1 11 2 9 3 rlinecurve
          51 23 30 26 9 29 rrcurveto
          19 -8 -11 9 -13 hhcurveto
          -6 hlineto
          -35 -37 -28 -18 -19 hhcurveto
          -10 hlineto
          -32 -23 37 73 -13 hvcurveto
          33 vlineto
          33 14 28 27 21 vhcurveto
          43 5 22 11 19 vvcurveto
          21 -2 -9 10 -17 hhcurveto
          endchar
        </CharString>
        <CharString name="ccircumflex">
          121 339 rmoveto
          -64 -29 -32 -53 -78 vvcurveto
          -22 vlineto
          -108 21 45 -54 68 hhcurveto
          15 11 2 4 9 hvcurveto
          51 23 30 26 9 29 rrcurveto
          19 -8 -11 9 -13 hhcurveto
          -6 hlineto
          -35 -37 -28 -18 -19 hhcurveto
          -10 hlineto
          -32 -23 37 73 -13 hvcurveto
          33 vlineto
          33 14 28 27 21 vhcurveto
          43 5 22 11 19 vvcurveto
          21 -2 -9 10 -17 hhcurveto
          -26 407 rmoveto
          -105 -146 rlineto
          -19 -7 -10 -7 -5 vvcurveto
          -11 10 -7 19 -4 vhcurveto
          27 -15 5 14 32 42 59 70 rlinecurve
          9 13 13 -14 18 -43 rrcurveto
          48 -57 24 -30 -1 vvcurveto
          26 2 rlineto
          16 2 8 5 8 vvcurveto
          -38 54 rlineto
          96 -64 -42 48 -20 hhcurveto
          endchar
        </CharString>
        <CharString name="cdotaccent">
          121 339 rmoveto
          -64 -29 -32 -53 -78 vvcurveto
          -22 vlineto
          -108 21 45 -54 68 hhcurveto
          15 11 2 4 9 hvcurveto
          51 23 30 26 9 29 rrcurveto
          19 -8 -11 9 -13 hhcurveto
          -6 hlineto
          -35 -37 -28 -18 -19 hhcurveto
          -10 hlineto
          -32 -23 37 73 -13 hvcurveto
          33 vlineto
          33 14 28 27 21 vhcurveto
          43 5 22 11 19 vvcurveto
          21 -2 -9 10 -17 hhcurveto
          4 205 rmoveto
          -24 -18 -16 -32 -11 hvcurveto
          -31 6 13 -15 20 hhcurveto
          27 16 15 31 6 hvcurveto
          32 -3 -12 16 -20 hhcurveto
          endchar
        </CharString>
        <CharString name="cedilla">
          -6 111 21 rmoveto
          -11 -5 -5 -20 -35 vvcurveto
          -27 17 -22 34 -16 vhcurveto
          64 -14 32 -16 -17 vvcurveto
          -10 vlineto
          -43 -24 -26 -22 -28 hhcurveto
          -12 hlineto
          -6 5 rlineto
          28 -3 -8 14 -13 hhcurveto
          -15 -3 -7 -8 -13 vvcurveto
          -2 vlineto
          -42 20 -23 41 -5 vhcurveto
          29 5 rlineto
          64 33 32 38 45 vvcurveto
          29 -15 23 -29 18 vhcurveto
          -69 19 -34 15 9 vvcurveto
          7 vlineto
          28 51 rlineto
          endchar
        </CharString>
        <CharString name="cent">
          170 490 rmoveto
          -21 -3 -10 -9 -17 vvcurveto
          1 -67 rlineto
          -3 hlineto
          -65 -29 -32 -53 -78 vvcurveto
          -22 vlineto
          19 -94 37 -53 53 -13 2 -15 6 -25 9 -37 rrcurveto
          13 hlineto
          17 9 27 53 1 hvcurveto
          1 1 0 1 1 hvcurveto
          51 23 31 26 9 29 rrcurveto
          19 -9 -10 9 -12 hhcurveto
          -7 hlineto
          -22 -21 -19 -15 -16 -9 -4 92 -5 75 -5 58 17 5 12 5 7 5 15 11 0 16 -15 20 -41 -5 rcurveline
          -5 51 -5 31 -6 9 rrcurveto
          -70 -238 rmoveto
          33 13 28 27 21 vhcurveto
          2 hlineto
          5 -153 rlineto
          -67 vlineto
          -21 12 -16 35 -10 58 rrcurveto
          endchar
        </CharString>
        <CharString name="circumflex">
          159 229 752 rmoveto
          -105 -146 rlineto
          -19 -7 -10 -7 -5 vvcurveto
          -11 10 -7 19 -4 vhcurveto
          27 -15 5 14 32 42 59 70 rlinecurve
          9 13 13 -14 18 -43 rrcurveto
          48 -57 24 -30 -1 vvcurveto
          26 2 rlineto
          16 2 8 5 8 vvcurveto
          -38 54 rlineto
          96 -64 -42 48 -20 hhcurveto
          endchar
        </CharString>
        <CharString name="colon">
          -212 86 221 rmoveto
          -10 -10 -8 -17 -9 hvcurveto
          -27 3 9 -14 17 hhcurveto
          21 7 10 10 14 vvcurveto
          23 -3 -11 12 -17 hhcurveto
          3 -112 rmoveto
          -15 -10 -10 -19 -7 hvcurveto
          -23 7 11 -11 17 hhcurveto
          19 3 9 9 13 vvcurveto
          17 -10 13 -21 8 vhcurveto
          endchar
        </CharString>
        <CharString name="comma">
          -122 135 182 rmoveto
          -15 -11 -10 -21 -5 hvcurveto
          -4 vlineto
          21 -34 10 -25 -16 vvcurveto
          -37 vlineto
          -33 -8 -35 -17 -35 vhcurveto
          -41 -66 rlineto
          -14 10 -10 21 -7 vhcurveto
          12 6 rlineto
          57 61 28 66 73 vvcurveto
          -7 79 -21 47 -34 15 rrcurveto
          endchar
        </CharString>
        <CharString name="commaaccent">
          10 220 -115 rmoveto
          -51 21 -17 -31 15 -85 -41 -45 rcurveline
          11 -70 36 15 62 99 -15 96 rcurveline
          endchar
        </CharString>
        <CharString name="copyright">
          577 434 519 rmoveto
          -21 -20 -8 -17 -18 hvcurveto
          -59 -87 -29 -95 -103 vvcurveto
          -13 vlineto
          9 -71 rlineto
          -83 32 55 -42 79 hhcurveto
          73 84 34 68 96 hvcurveto
          21 18 20 40 15 hvcurveto
          23 -3 -11 11 -18 hhcurveto
          -3 hlineto
          -89 -99 -84 -45 -70 hhcurveto
          -41 hlineto
          -63 12 -31 41 69 vvcurveto
          22 vlineto
          6 75 rlineto
          119 29 25 59 21 hhcurveto
          10 hlineto
          7 -7 rlineto
          -37 vlineto
          -4 -75 rlineto
          -13 10 -7 19 -1 vhcurveto
          6 hlineto
          25 14 12 34 54 vvcurveto
          65 -7 -26 33 -45 hhcurveto
          -135 132 rmoveto
          -178 -37 -89 -96 -154 vvcurveto
          -13 vlineto
          -51 12 -53 23 -55 vhcurveto
          -207 96 156 -103 217 hhcurveto
          136 18 rlineto
          145 43 73 84 125 vvcurveto
          93 -50 106 -100 119 vhcurveto
          101 -117 -91 50 -63 hhcurveto
          23 -35 -32 11 -30 hhcurveto
          -20 hlineto
          -117 -90 rmoveto
          327 37 197 -140 66 -315 -46 -65 rcurveline
          -27 -38 -41 -50 -71 -34 -101 -18 rlinecurve
          -139 23 -159 85 -87 108 -17 132 rlinecurve
          -17 133 33 91 82 51 rrcurveto
          endchar
        </CharString>
        <CharString name="currency">
          212 399 567 rmoveto
          -33 -38 -23 -26 -14 -13 -12 5 -13 3 -15 2 rrcurveto
          -18 hlineto
          -5 -5 0 -1 -5 hvcurveto
          -77 -7 -15 -11 -14 -11 -13 -13 rlinecurve
          51 -47 -29 26 -9 hhcurveto
          -16 hlineto
          -14 -11 -7 -10 -7 vvcurveto
          30 -34 28 -34 26 -34 rrcurveto
          -23 -43 -12 -51 -58 vvcurveto
          -12 vlineto
          -16 3 -19 5 -21 vhcurveto
          7 -18 6 -15 7 -11 -10 -21 rcurveline
          -64 -53 -11 -31 42 -9 rrcurveto
          7 24 22 43 41 hvcurveto
          20 21 27 2 54 13 83 23 rlinecurve
          10 6 40 -31 50 -38 59 -43 rlinecurve
          52 5 26 14 21 vvcurveto
          6 vlineto
          11 -5 9 -11 5 vhcurveto
          -6 hlineto
          -44 -9 -111 101 29 115 2 82 -26 47 rlinecurve
          27 31 24 28 21 26 rrcurveto
          6 vlineto
          13 -8 10 -17 6 vhcurveto
          -297 -322 rmoveto
          60 12 49 23 38 vhcurveto
          40 28 rlineto
          17 28 7 57 -2 vhcurveto
          31 20 -21 -41 11 hvcurveto
          -19 vlineto
          -31 -125 -63 -62 -93 2 rrcurveto
          -23 -12 23 46 hvcurveto
          endchar
        </CharString>
        <CharString name="d">
          -47 254 549 rmoveto
          -25 -19 -54 -109 -15 hvcurveto
          -54 -10 -27 -19 vhcurveto
          -97 -81 -49 -77 -73 vvcurveto
          -63 9 25 -31 41 hhcurveto
          35 30 27 54 25 hvcurveto
          10 hlineto
          -54 17 23 -27 29 hhcurveto
          27 3 13 9 15 vvcurveto
          13 -8 11 -17 8 vhcurveto
          -25 -13 41 81 hvcurveto
          78 vlineto
          44 278 rlineto
          21 -9 -11 11 -11 hhcurveto
          -175 -467 rmoveto
          39 30 50 61 61 vhcurveto
          6 hlineto
          -129 -29 -25 -64 -21 hhcurveto
          -6 hlineto
          -16 16 rlineto
          endchar
        </CharString>
        <CharString name="dagger">
          -12 137 607 rmoveto
          -25 -12 -24 -48 hvcurveto
          9 -125 rlineto
          -32 hlineto
          -46 12 rlineto
          -10 hlineto
          -14 -11 -7 -9 -7 vvcurveto
          -25 31 -15 63 -4 vhcurveto
          18 hlineto
          6 -147 7 -97 9 -47 rrcurveto
          -60 12 -30 23 vhcurveto
          2 hlineto
          15 10 9 18 4 hvcurveto
          -19 152 -10 122 93 vvcurveto
          104 37 rlineto
          46 23 11 23 15 -10 9 -19 5 hvcurveto
          -20 -48 -12 -23 -76 hvcurveto
          -2 hlineto
          -7 34 -3 31 28 vvcurveto
          13 vlineto
          6 44 rlineto
          15 -9 9 -19 4 vhcurveto
          endchar
        </CharString>
        <CharString name="daggerdbl">
          -12 172 294 rmoveto
          -1 25 0 23 22 vvcurveto
          104 37 rlineto
          46 23 11 23 15 -10 9 -19 5 hvcurveto
          -20 -48 -12 -23 -76 hvcurveto
          -2 hlineto
          -7 34 -3 31 28 vvcurveto
          13 vlineto
          6 44 rlineto
          15 -9 9 -19 4 vhcurveto
          -25 -12 -24 -48 hvcurveto
          9 -125 rlineto
          -32 hlineto
          -46 12 rlineto
          -10 hlineto
          -14 -11 -7 -9 -7 vvcurveto
          -25 31 -15 63 -4 vhcurveto
          18 hlineto
          3 -69 -15 -2 rlineto
          -6 hlineto
          -38 10 rlineto
          -18 -9 -9 -10 -12 vvcurveto
          -20 22 -13 43 -5 vhcurveto
          7 9 0 1 9 hvcurveto
          4 -77 5 -54 6 -31 rrcurveto
          -60 12 -30 23 vhcurveto
          2 hlineto
          15 10 9 18 4 hvcurveto
          -12 89 -8 79 -4 69 23 5 26 8 29 10 rrcurveto
          62 31 11 21 hvcurveto
          21 -3 -9 10 -15 hhcurveto
          endchar
        </CharString>
        <CharString name="degree">
          -62 166 532 rmoveto
          -13 -12 -2 -3 -11 hvcurveto
          -65 -27 -33 -41 -53 vvcurveto
          -6 vlineto
          -7 3 -10 5 -12 vhcurveto
          -23 15 23 -12 33 hhcurveto
          23 23 6 13 23 hvcurveto
          56 38 28 37 36 vvcurveto
          -3 11 rlineto
          37 -21 -31 18 -43 hhcurveto
          -84 -131 rmoveto
          30 10 25 19 20 vhcurveto
          23 3 12 5 6 vvcurveto
          8 5 4 10 26 18 -10 -21 9 vhcurveto
          -10 vlineto
          -63 -27 -34 -32 -42 hhcurveto
          -19 -10 12 23 hvcurveto
          endchar
        </CharString>
        <CharString name="dieresis">
          -23 270 474 rmoveto
          1 9 -8 10 -16 11 rrcurveto
          -27 -15 -8 -17 -1 hvcurveto
          5 -22 9 -11 14 -1 23 1 13 10 2 18 rrcurveto
          -113 5 rmoveto
          1 14 -8 11 -19 8 -23 -5 -12 -10 -1 -16 1 -19 8 -10 13 -1 18 -1 13 9 9 20 rrcurveto
          endchar
        </CharString>
        <CharString name="divide">
          -63 137 315 rmoveto
          -10 -9 -8 -17 -9 hvcurveto
          -27 2 9 -14 17 hhcurveto
          21 7 11 10 14 vvcurveto
          23 -3 -11 12 -18 hhcurveto
          4 -206 rmoveto
          -14 -10 -10 -19 -7 hvcurveto
          -23 7 11 -11 17 hhcurveto
          18 3 9 9 13 vvcurveto
          17 -10 13 -21 8 vhcurveto
          -59 110 rmoveto
          -6 hlineto
          -37 8 rlineto
          -19 -7 -9 -11 -13 vvcurveto
          -20 22 -12 43 -5 vhcurveto
          33 41 3 7 49 hvcurveto
          62 31 10 21 hvcurveto
          21 -3 -10 10 -15 hhcurveto
          endchar
        </CharString>
        <CharString name="dollar">
          97 230 920 rmoveto
          -23 -12 -17 -33 hvcurveto
          -103 vlineto
          -3 -110 rlineto
          -127 -59 -64 -67 -76 vvcurveto
          -70 58 -63 115 -55 vhcurveto
          -17 -285 rlineto
          -2 hlineto
          -19 17 -10 29 42 vvcurveto
          4 62 rlineto
          10 -8 8 -15 7 vhcurveto
          -2 hlineto
          -25 -13 -28 -55 -80 28 -54 56 -29 hvcurveto
          -2 -229 -4 -50 rlineto
          4 hlineto
          -21 1 9 -10 15 hhcurveto
          22 11 16 32 hvcurveto
          25 vlineto
          4 221 rlineto
          3 22 11 43 17 vhcurveto
          103 69 51 66 63 vvcurveto
          62 -65 60 -129 59 vhcurveto
          13 294 rlineto
          17 23 8 45 vhcurveto
          9 hlineto
          25 -7 rlineto
          -19 17 11 -9 7 hhcurveto
          23 4 11 9 15 vvcurveto
          -6 15 rlineto
          33 -19 -33 17 -45 hhcurveto
          -62 -6 rlineto
          -4 hlineto
          4 38 rlineto
          22 vlineto
          2 150 rlineto
          23 -5 -9 11 -13 hhcurveto
          -169 -456 rmoveto
          45 43 42 85 38 vhcurveto
          -13 -257 rlineto
          -77 37 -38 39 41 vvcurveto
          171 -210 rmoveto
          90 -37 45 -37 -39 vvcurveto
          -15 vlineto
          -3 -22 -38 -59 -48 -41 -58 -25 rlinecurve
          -3 hlineto
          13 275 rlineto
          endchar
        </CharString>
        <CharString name="dotaccent">
          -185 90 550 rmoveto
          -24 -18 -16 -32 -11 hvcurveto
          -31 6 13 -15 20 hhcurveto
          27 16 15 31 6 hvcurveto
          32 -3 -12 16 -20 hhcurveto
          endchar
        </CharString>
        <CharString name="dotlessi">
          -220 69 381 rmoveto
          -28 -14 -35 -71 hvcurveto
          -35 vlineto
          -160 9 18 -80 27 hhcurveto
          16 11 6 13 7 hvcurveto
          -19 90 -9 72 53 vvcurveto
          47 vlineto
          9 71 rlineto
          19 -7 -9 10 -11 hhcurveto
          endchar
        </CharString>
        <CharString name="e">
          109 359 rmoveto
          -43 -22 -38 -77 hvcurveto
          -25 vlineto
          -10 -4 rlineto
          4 vlineto
          -23 -5 -11 -9 -15 vvcurveto
          -20 15 -13 31 -5 vhcurveto
          -101 21 37 -51 55 hhcurveto
          21 4 17 6 15 9 rrcurveto
          56 39 28 27 17 vvcurveto
          19 -7 -10 10 -14 hhcurveto
          -6 hlineto
          -46 -43 -33 -23 -21 hhcurveto
          -12 hlineto
          -15 -15 30 60 -14 hvcurveto
          4 vlineto
          3 3 rlineto
          91 10 46 14 19 vvcurveto
          -2 17 -63 92 -45 47 -27 1 rlinecurve
          6 -72 rmoveto
          14 -11 16 -19 17 -26 rrcurveto
          -7 -19 -4 -37 -1 vhcurveto
          -4 31 hlineto
          4 37 rlineto
          endchar
        </CharString>
        <CharString name="eacute">
          109 359 rmoveto
          -43 -22 -38 -77 hvcurveto
          -25 vlineto
          -10 -4 rlineto
          4 vlineto
          -23 -5 -11 -9 -15 vvcurveto
          -20 15 -13 31 -5 vhcurveto
          -101 21 37 -51 55 hhcurveto
          21 4 17 6 15 9 rrcurveto
          56 39 28 27 17 vvcurveto
          19 -7 -10 10 -14 hhcurveto
          -6 hlineto
          -46 -43 -33 -23 -21 hhcurveto
          -12 hlineto
          -15 -15 30 60 -14 hvcurveto
          4 vlineto
          3 3 rlineto
          91 10 46 14 19 vvcurveto
          -2 17 -63 92 -45 47 -27 1 rlinecurve
          6 -72 rmoveto
          14 -11 16 -19 17 -26 rrcurveto
          -7 -19 -4 -37 -1 vhcurveto
          -4 31 hlineto
          4 37 rlineto
          -61 162 rmoveto
          2 -18 7 -10 11 -1 24 9 14 8 5 9 8 2 37 15 67 27 5 22 rcurveline
          -1 19 -7 9 -12 1 -16 2 -46 -20 -77 -43 -13 -5 -7 -11 -1 -15 rrcurveto
          endchar
        </CharString>
        <CharString name="ebreve">
          109 359 rmoveto
          -43 -22 -38 -77 hvcurveto
          -25 vlineto
          -10 -4 rlineto
          4 vlineto
          -23 -5 -11 -9 -15 vvcurveto
          -20 15 -13 31 -5 vhcurveto
          -101 21 37 -51 55 hhcurveto
          21 4 17 6 15 9 rrcurveto
          56 39 28 27 17 vvcurveto
          19 -7 -10 10 -14 hhcurveto
          -6 hlineto
          -46 -43 -33 -23 -21 hhcurveto
          -12 hlineto
          -15 -15 30 60 -14 hvcurveto
          4 vlineto
          3 3 rlineto
          91 10 46 14 19 vvcurveto
          -2 17 -63 92 -45 47 -27 1 rlinecurve
          6 -72 rmoveto
          14 -11 16 -19 17 -26 rrcurveto
          -7 -19 -4 -37 -1 vhcurveto
          -4 31 hlineto
          4 37 rlineto
          92 274 rmoveto
          -7 -63 -27 -31 -48 3 rrcurveto
          -22 -11 12 23 hvcurveto
          51 vlineto
          -37 1 -5 -20 2 -25 8 -29 rlinecurve
          8 -29 25 -14 42 1 14 -1 21 7 27 13 27 14 16 34 3 53 rrcurveto
          endchar
        </CharString>
        <CharString name="ecaron">
          109 359 rmoveto
          -43 -22 -38 -77 hvcurveto
          -25 vlineto
          -10 -4 rlineto
          4 vlineto
          -23 -5 -11 -9 -15 vvcurveto
          -20 15 -13 31 -5 vhcurveto
          -101 21 37 -51 55 hhcurveto
          21 4 17 6 15 9 rrcurveto
          56 39 28 27 17 vvcurveto
          19 -7 -10 10 -14 hhcurveto
          -6 hlineto
          -46 -43 -33 -23 -21 hhcurveto
          -12 hlineto
          -15 -15 30 60 -14 hvcurveto
          4 vlineto
          3 3 rlineto
          91 10 46 14 19 vvcurveto
          -2 17 -63 92 -45 47 -27 1 rlinecurve
          6 -72 rmoveto
          14 -11 16 -19 17 -26 rrcurveto
          -7 -19 -4 -37 -1 vhcurveto
          -4 31 hlineto
          4 37 rlineto
          45 100 rmoveto
          23 46 44 88 70 hvcurveto
          40 48 rlineto
          8 -9 5 -18 1 vhcurveto
          -2 hlineto
          -17 -31 -30 -59 -45 hvcurveto
          -27 -31 -17 -18 -7 -4 -67 80 -42 41 -17 2 -11 2 rcurveline
          -21 -5 -11 -6 -9 vvcurveto
          -5 11 -6 21 -7 vhcurveto
          115 -132 rlineto
          endchar
        </CharString>
        <CharString name="ecircumflex">
          109 359 rmoveto
          -43 -22 -38 -77 hvcurveto
          -25 vlineto
          -10 -4 rlineto
          4 vlineto
          -23 -5 -11 -9 -15 vvcurveto
          -20 15 -13 31 -5 vhcurveto
          -101 21 37 -51 55 hhcurveto
          21 4 17 6 15 9 rrcurveto
          56 39 28 27 17 vvcurveto
          19 -7 -10 10 -14 hhcurveto
          -6 hlineto
          -46 -43 -33 -23 -21 hhcurveto
          -12 hlineto
          -15 -15 30 60 -14 hvcurveto
          4 vlineto
          3 3 rlineto
          91 10 46 14 19 vvcurveto
          -2 17 -63 92 -45 47 -27 1 rlinecurve
          6 -72 rmoveto
          14 -11 16 -19 17 -26 rrcurveto
          -7 -19 -4 -37 -1 vhcurveto
          -4 31 hlineto
          4 37 rlineto
          -7 262 rmoveto
          -91 -96 rlineto
          -17 -5 -8 -4 -3 vvcurveto
          -7 8 -5 17 -3 vhcurveto
          24 -10 4 9 28 28 51 46 rlinecurve
          7 9 12 -10 15 -28 rrcurveto
          41 -37 21 -20 -1 vvcurveto
          23 2 rlineto
          14 1 7 4 5 vvcurveto
          -33 35 rlineto
          63 -55 -37 32 -17 hhcurveto
          endchar
        </CharString>
        <CharString name="edieresis">
          109 359 rmoveto
          -43 -22 -38 -77 hvcurveto
          -25 vlineto
          -10 -4 rlineto
          4 vlineto
          -23 -5 -11 -9 -15 vvcurveto
          -20 15 -13 31 -5 vhcurveto
          -101 21 37 -51 55 hhcurveto
          21 4 17 6 15 9 rrcurveto
          56 39 28 27 17 vvcurveto
          19 -7 -10 10 -14 hhcurveto
          -6 hlineto
          -46 -43 -33 -23 -21 hhcurveto
          -12 hlineto
          -15 -15 30 60 -14 hvcurveto
          4 vlineto
          3 3 rlineto
          91 10 46 14 19 vvcurveto
          -2 17 -63 92 -45 47 -27 1 rlinecurve
          6 -72 rmoveto
          14 -11 16 -19 17 -26 rrcurveto
          -7 -19 -4 -37 -1 vhcurveto
          -4 31 hlineto
          4 37 rlineto
          105 131 rmoveto
          1 9 -8 10 -16 11 rrcurveto
          -27 -15 -8 -17 -1 hvcurveto
          5 -22 9 -11 14 -1 23 1 13 10 2 18 rrcurveto
          -113 5 rmoveto
          1 14 -8 11 -19 8 -23 -5 -12 -10 -1 -16 1 -19 8 -10 13 -1 18 -1 13 9 9 20 rrcurveto
          endchar
        </CharString>
        <CharString name="edotaccent">
          109 359 rmoveto
          -43 -22 -38 -77 hvcurveto
          -25 vlineto
          -10 -4 rlineto
          4 vlineto
          -23 -5 -11 -9 -15 vvcurveto
          -20 15 -13 31 -5 vhcurveto
          -101 21 37 -51 55 hhcurveto
          21 4 17 6 15 9 rrcurveto
          56 39 28 27 17 vvcurveto
          19 -7 -10 10 -14 hhcurveto
          -6 hlineto
          -46 -43 -33 -23 -21 hhcurveto
          -12 hlineto
          -15 -15 30 60 -14 hvcurveto
          4 vlineto
          3 3 rlineto
          91 10 46 14 19 vvcurveto
          -2 17 -63 92 -45 47 -27 1 rlinecurve
          6 -72 rmoveto
          14 -11 16 -19 17 -26 rrcurveto
          -7 -19 -4 -37 -1 vhcurveto
          -4 31 hlineto
          4 37 rlineto
          60 263 rmoveto
          -24 -18 -16 -32 -11 hvcurveto
          -31 6 13 -15 20 hhcurveto
          27 16 15 31 6 hvcurveto
          32 -3 -12 16 -20 hhcurveto
          endchar
        </CharString>
        <CharString name="egrave">
          109 359 rmoveto
          -43 -22 -38 -77 hvcurveto
          -25 vlineto
          -10 -4 rlineto
          4 vlineto
          -23 -5 -11 -9 -15 vvcurveto
          -20 15 -13 31 -5 vhcurveto
          -101 21 37 -51 55 hhcurveto
          21 4 17 6 15 9 rrcurveto
          56 39 28 27 17 vvcurveto
          19 -7 -10 10 -14 hhcurveto
          -6 hlineto
          -46 -43 -33 -23 -21 hhcurveto
          -12 hlineto
          -15 -15 30 60 -14 hvcurveto
          4 vlineto
          3 3 rlineto
          91 10 46 14 19 vvcurveto
          -2 17 -63 92 -45 47 -27 1 rlinecurve
          6 -72 rmoveto
          14 -11 16 -19 17 -26 rrcurveto
          -7 -19 -4 -37 -1 vhcurveto
          -4 31 hlineto
          4 37 rlineto
          79 172 rmoveto
          11 -5 7 -9 3 vhcurveto
          -44 43 -30 24 -16 5 -8 -1 -5 -7 -1 -13 -10 -17 24 -24 59 -33 4 -7 11 -6 17 -7 7 1 4 7 2 14 rrcurveto
          endchar
        </CharString>
        <CharString name="eight">
          -22 289 532 rmoveto
          -21 -2 -11 -9 -17 vvcurveto
          -13 vlineto
          7 -6 rlineto
          -24 -40 -72 -79 -119 vhcurveto
          -42 26 -21 29 32 vvcurveto
          9 vlineto
          42 29 28 59 15 vhcurveto
          6 hlineto
          9 13 -4 -8 18 hvcurveto
          19 7 10 10 14 vvcurveto
          9 vlineto
          21 -19 -22 10 -25 hhcurveto
          -32 -3 rlineto
          -83 -31 -42 -48 -64 vvcurveto
          -4 vlineto
          -46 31 -48 61 -50 vhcurveto
          -32 -88 -16 -62 -37 vvcurveto
          -13 vlineto
          -68 11 29 -34 48 hhcurveto
          16 hlineto
          81 37 40 50 65 vvcurveto
          40 -15 38 -29 35 vhcurveto
          -37 31 -19 18 4 vvcurveto
          87 135 44 86 38 vvcurveto
          27 -3 -11 14 -19 hhcurveto
          -123 -360 rmoveto
          44 -32 22 -31 -30 vvcurveto
          -15 vlineto
          -3 -17 rlineto
          -50 -21 -25 -25 -29 hhcurveto
          -7 hlineto
          -14 8 -7 13 17 vvcurveto
          16 vlineto
          39 13 49 25 58 vhcurveto
          endchar
        </CharString>
        <CharString name="ellipsis">
          182 100 59 rmoveto
          -17 -13 -11 -23 -8 hvcurveto
          -23 5 9 -12 14 hhcurveto
          19 12 12 23 4 hvcurveto
          23 -3 -8 11 -14 hhcurveto
          182 hmoveto
          -17 -12 -11 -23 -8 hvcurveto
          -23 4 10 -12 15 hhcurveto
          18 11 12 23 4 hvcurveto
          23 -1 -9 11 -15 hhcurveto
          184 hmoveto
          -17 -13 -11 -23 -7 hvcurveto
          -23 4 9 -12 14 hhcurveto
          19 12 12 23 4 hvcurveto
          23 -3 -8 11 -14 hhcurveto
          endchar
        </CharString>
        <CharString name="emacron">
          109 359 rmoveto
          -43 -22 -38 -77 hvcurveto
          -25 vlineto
          -10 -4 rlineto
          4 vlineto
          -23 -5 -11 -9 -15 vvcurveto
          -20 15 -13 31 -5 vhcurveto
          -101 21 37 -51 55 hhcurveto
          21 4 17 6 15 9 rrcurveto
          56 39 28 27 17 vvcurveto
          19 -7 -10 10 -14 hhcurveto
          -6 hlineto
          -46 -43 -33 -23 -21 hhcurveto
          -12 hlineto
          -15 -15 30 60 -14 hvcurveto
          4 vlineto
          3 3 rlineto
          91 10 46 14 19 vvcurveto
          -2 17 -63 92 -45 47 -27 1 rlinecurve
          6 -72 rmoveto
          14 -11 16 -19 17 -26 rrcurveto
          -7 -19 -4 -37 -1 vhcurveto
          -4 31 hlineto
          4 37 rlineto
          -38 215 rmoveto
          -6 hlineto
          -38 9 rlineto
          -18 -8 -9 -11 -13 vvcurveto
          -20 22 -12 43 -5 vhcurveto
          33 41 3 7 48 hvcurveto
          63 31 10 21 hvcurveto
          21 -3 -10 10 -16 hhcurveto
          endchar
        </CharString>
        <CharString name="emdash">
          172 136 275 rmoveto
          -6 hlineto
          -38 9 rlineto
          -18 -8 -9 -11 -13 vvcurveto
          -20 22 -12 43 -5 vhcurveto
          33 88 4 7 143 hvcurveto
          62 31 10 21 hvcurveto
          21 -3 -10 11 -15 hhcurveto
          endchar
        </CharString>
        <CharString name="endash">
          52 136 275 rmoveto
          -6 hlineto
          -38 9 rlineto
          -18 -8 -9 -11 -13 vvcurveto
          -20 22 -12 43 -5 vhcurveto
          33 41 3 7 48 hvcurveto
          63 31 10 21 hvcurveto
          21 -3 -10 10 -16 hhcurveto
          endchar
        </CharString>
        <CharString name="eogonek">
          192 9 rmoveto
          20 10 rlineto
          56 39 28 27 17 vvcurveto
          19 -7 -10 10 -14 hhcurveto
          -6 hlineto
          -46 -43 -33 -23 -21 hhcurveto
          -12 hlineto
          -15 -15 30 60 -14 hvcurveto
          4 vlineto
          3 3 rlineto
          91 10 46 14 19 vvcurveto
          -2 17 -63 92 -45 47 -27 1 rlinecurve
          -43 -22 -38 -77 hvcurveto
          -25 vlineto
          -10 -4 rlineto
          4 vlineto
          -23 -5 -11 -9 -15 vvcurveto
          -20 15 -13 31 -5 vhcurveto
          17 -82 27 -49 39 -16 rrcurveto
          -41 -29 -21 -32 -37 vvcurveto
          -33 23 -26 46 -19 vhcurveto
          70 15 44 23 19 29 19 29 -7 7 -32 -15 rrcurveto
          -82 -19 -41 -4 10 vvcurveto
          10 vlineto
          76 92 rlineto
          -87 281 rmoveto
          14 -11 16 -19 17 -26 rrcurveto
          -7 -19 -4 -37 -1 vhcurveto
          -4 31 hlineto
          4 37 rlineto
          endchar
        </CharString>
        <CharString name="equal">
          10 115 214 rmoveto
          -14 -10 -9 -19 -7 hvcurveto
          -29 8 27 -15 46 hhcurveto
          135 9 rlineto
          14 6 7 8 11 vvcurveto
          19 -11 12 -23 4 vhcurveto
          -125 -10 rlineto
          -3 -81 rmoveto
          -19 hlineto
          -34 6 rlineto
          -6 hlineto
          -13 -8 -6 -8 -9 vvcurveto
          -29 27 -15 54 vhcurveto
          45 5 33 5 22 7 rrcurveto
          48 24 11 22 hvcurveto
          13 vlineto
          -3 7 -7 6 -9 3 rrcurveto
          endchar
        </CharString>
        <CharString name="eth">
          47 210 346 rmoveto
          -16 -10 -12 -23 -3 hvcurveto
          -23 31 -11 62 vhcurveto
          3 -20 2 -20 -21 vvcurveto
          -32 -10 vlineto
          42 -41 -44 21 -47 hhcurveto
          -68 -8 -34 -27 -45 vvcurveto
          -6 vlineto
          -57 41 -49 81 -41 vhcurveto
          52 -5 rlineto
          75 45 59 118 13 hvcurveto
          35 vlineto
          17 -1 16 -1 15 vhcurveto
          58 -10 19 21 -20 52 rrcurveto
          -6 hlineto
          -65 5 -13 39 -19 35 -25 29 rlinecurve
          11 -15 -11 5 -8 hhcurveto
          -20 -6 -10 -9 -12 vvcurveto
          44 -57 4 -10 3 -10 3 -10 rlinecurve
          -8 -256 rmoveto
          -18 -11 -15 -9 -20 hhcurveto
          -6 hlineto
          -46 -34 34 67 -22 hvcurveto
          7 vlineto
          19 13 10 27 1 vhcurveto
          52 38 -36 -71 24 hvcurveto
          endchar
        </CharString>
        <CharString name="exclam">
          -240 45 679 rmoveto
          -21 -3 -10 -9 -17 vvcurveto
          4 -184 5 -106 6 -29 rrcurveto
          -79 12 -40 25 13 9 8 17 7 vhcurveto
          -11 91 -7 137 -5 182 rrcurveto
          15 -9 10 -18 7 vhcurveto
          40 -657 rmoveto
          -17 -11 -10 -21 -6 hvcurveto
          -19 7 10 -10 14 hhcurveto
          3 hlineto
          14 10 10 19 7 hvcurveto
          21 -6 -10 10 -15 hhcurveto
          endchar
        </CharString>
        <CharString name="exclamdown">
          -240 57 43 rmoveto
          18 5 9 8 11 vvcurveto
          5 135 8 101 11 67 rrcurveto
          12 -7 -10 6 -13 hhcurveto
          -25 -12 -29 -59 hvcurveto
          -6 -21 -5 -78 -4 -136 rrcurveto
          -13 10 -7 21 -2 vhcurveto
          41 486 rmoveto
          15 10 8 15 6 hvcurveto
          14 -7 -10 7 -14 hhcurveto
          -4 hlineto
          -14 -10 -7 -14 -7 hvcurveto
          -15 6 12 -8 17 hhcurveto
          endchar
        </CharString>
        <CharString name="f">
          -97 175 450 rmoveto
          -54 -33 -49 -99 -11 hvcurveto
          4 -62 rlineto
          -54 -5 -27 -13 -20 vvcurveto
          -21 3 8 -10 14 hhcurveto
          65 10 19 -85 rlineto
          -64 10 -32 21 vhcurveto
          23 4 12 9 14 vvcurveto
          -25 163 rlineto
          75 9 37 18 27 vvcurveto
          18 -11 -11 9 -13 hhcurveto
          -14 -31 -29 -7 -27 hhcurveto
          -3 50 rlineto
          34 7 28 15 22 vhcurveto
          12 hlineto
          4 -3 rlineto
          -41 6 11 -21 17 hhcurveto
          21 3 10 9 15 vvcurveto
          4 vlineto
          67 -12 -22 33 -31 hhcurveto
          endchar
        </CharString>
        <CharString name="fi">
          -11 287 334 rmoveto
          -22 -13 -24 -48 -5 hvcurveto
          6 -7 -6 3 -7 hhcurveto
          -14 -31 -29 -7 -27 hhcurveto
          -3 50 rlineto
          34 7 28 15 22 vhcurveto
          12 hlineto
          4 -3 rlineto
          -41 6 11 -21 17 hhcurveto
          21 3 10 9 15 vvcurveto
          4 vlineto
          67 -12 -22 33 -31 hhcurveto
          -54 -33 -49 -99 -11 hvcurveto
          4 -62 rlineto
          -54 -5 -27 -13 -20 vvcurveto
          -21 3 8 -10 14 hhcurveto
          65 10 19 -85 rlineto
          -64 10 -32 21 vhcurveto
          23 4 12 9 14 vvcurveto
          -25 163 47 6 32 9 17 11 rlinecurve
          -24 vlineto
          -160 9 18 -80 27 hhcurveto
          16 11 6 13 7 hvcurveto
          -19 90 -9 72 53 vvcurveto
          48 vlineto
          9 71 rlineto
          19 -7 -9 10 -12 hhcurveto
          -37 140 rmoveto
          -13 -11 -8 -17 -7 hvcurveto
          -20 12 -13 25 -5 vhcurveto
          14 10 10 19 7 hvcurveto
          17 -12 12 -25 5 vhcurveto
          endchar
        </CharString>
        <CharString name="five">
          5 219 446 rmoveto
          -28 -46 -8 -17 -64 hvcurveto
          -54 -27 -10 -21 hvcurveto
          25 -150 rlineto
          -69 13 -34 27 vhcurveto
          6 hlineto
          71 57 50 36 41 hhcurveto
          2 hlineto
          32 19 -20 -40 5 hvcurveto
          -19 vlineto
          -10 -3 -10 -5 -11 vhcurveto
          -50 -33 -37 -25 -40 hhcurveto
          -25 hlineto
          -34 10 rlineto
          -15 -12 -11 -21 -8 hvcurveto
          -19 26 -12 53 -6 vhcurveto
          50 9 rlineto
          95 37 48 54 71 vvcurveto
          6 vlineto
          83 -12 -37 42 -63 hhcurveto
          -36 -46 -21 -41 -56 hvcurveto
          -6 hlineto
          -16 119 rlineto
          19 69 50 9 31 hhcurveto
          6 hlineto
          48 -3 12 9 7 9 2 10 rlinecurve
          23 -22 11 -43 vhcurveto
          -6 hlineto
          endchar
        </CharString>
        <CharString name="fl">
          -6 277 509 rmoveto
          -21 -3 -10 -9 -17 vvcurveto
          5 -221 rlineto
          8 -7 -8 4 -9 hhcurveto
          -14 -31 -29 -7 -27 hhcurveto
          -3 50 rlineto
          34 7 28 15 22 vhcurveto
          12 hlineto
          4 -3 rlineto
          -41 6 11 -21 17 hhcurveto
          21 3 10 9 15 vvcurveto
          4 vlineto
          67 -12 -22 33 -31 hhcurveto
          -54 -33 -49 -99 -11 hvcurveto
          4 -62 rlineto
          -54 -5 -27 -13 -20 vvcurveto
          -21 3 8 -10 14 hhcurveto
          65 10 19 -85 rlineto
          -64 10 -32 21 vhcurveto
          23 4 12 9 14 vvcurveto
          -25 163 51 6 34 10 16 15 rlinecurve
          4 -137 rlineto
          -117 vlineto
          -11 6 -9 13 -7 vhcurveto
          12 hlineto
          19 10 11 23 hvcurveto
          122 vlineto
          -10 381 rlineto
          15 -9 10 -19 7 vhcurveto
          endchar
        </CharString>
        <CharString name="florin">
          -97 175 450 rmoveto
          -54 -33 -49 -99 -11 hvcurveto
          4 -62 rlineto
          -54 -5 -27 -13 -20 vvcurveto
          -21 3 8 -10 14 hhcurveto
          65 10 19 -85 34 -183 -12 -74 -57 35 rlinecurve
          -23 -52 35 -9 93 34 -29 343 rcurveline
          75 9 37 18 27 vvcurveto
          18 -11 -11 9 -13 hhcurveto
          -14 -31 -29 -7 -27 hhcurveto
          -3 50 rlineto
          34 7 28 15 22 vhcurveto
          12 hlineto
          4 -3 rlineto
          -41 6 11 -21 17 hhcurveto
          21 3 10 9 15 vvcurveto
          4 vlineto
          67 -12 -22 33 -31 hhcurveto
          endchar
        </CharString>
        <CharString name="four">
          133 334 667 rmoveto
          -17 -4 -8 -4 -4 vvcurveto
          -35 -18 -147 -294 hvcurveto
          -9 vlineto
          -122 34 rlineto
          37 127 19 83 40 vvcurveto
          55 -18 36 -35 15 vhcurveto
          -15 -11 -10 -21 -5 hvcurveto
          14 -26 7 -18 -9 vvcurveto
          -37 vlineto
          -42 -17 -71 -33 -100 vhcurveto
          -29 -54 -14 -30 -7 vvcurveto
          -17 10 -13 21 -8 vhcurveto
          19 13 11 21 9 11 5 3 rlinecurve
          12 hlineto
          10 46 -13 -25 82 hvcurveto
          6 -347 rlineto
          -23 3 11 -11 17 hhcurveto
          19 7 10 10 14 vvcurveto
          -6 344 rlineto
          6 hlineto
          19 22 4 9 24 hvcurveto
          40 15 28 24 17 32 rrcurveto
          16 -10 10 -21 5 vhcurveto
          -4 hlineto
          -37 -41 -37 -19 -35 hhcurveto
          -12 41 hlineto
          232 10 125 21 18 vhcurveto
          11 7 5 8 10 vvcurveto
          9 vlineto
          15 -11 -9 7 -8 hhcurveto
          endchar
        </CharString>
        <CharString name="fraction">
          -12 342 605 rmoveto
          -15 -10 -8 -17 -6 hvcurveto
          -171 -350 -85 -185 -21 vvcurveto
          -16 10 -10 19 -3 vhcurveto
          21 6 33 85 44 96 54 107 rlinecurve
          79 160 45 96 11 31 rrcurveto
          14 -10 10 -19 5 vhcurveto
          endchar
        </CharString>
        <CharString name="g">
          -97 180 384 rmoveto
          -24 -22 -8 -17 -20 hvcurveto
          -63 -63 -31 -74 -85 vvcurveto
          -22 vlineto
          -71 7 27 -35 45 hhcurveto
          6 hlineto
          20 22 14 29 23 hvcurveto
          4 -25 hlineto
          -4 -108 -31 -19 rlineto
          -89 -73 -45 -68 -63 vvcurveto
          -6 vlineto
          -41 27 -27 54 -13 vhcurveto
          37 28 18 35 19 hvcurveto
          17 18 71 142 21 hvcurveto
          4 hlineto
          17 16 -10 -19 13 hvcurveto
          -50 14 13 -25 11 hhcurveto
          25 3 12 10 18 vvcurveto
          88 -21 -40 44 -60 hhcurveto
          6 160 -4 202 4 29 rlineto
          -4 hlineto
          10 -2 5 -4 vhcurveto
          29 -15 15 -31 vhcurveto
          -100 -234 rmoveto
          117 23 31 58 40 hhcurveto
          -50 vlineto
          -137 -27 -23 -69 -19 hhcurveto
          -10 hlineto
          -7 -5 11 22 -3 hvcurveto
          -16 -408 rmoveto
          44 30 49 61 53 vhcurveto
          6 hlineto
          -114 -14 -23 -57 -32 hhcurveto
          -15 -10 8 17 -3 hvcurveto
          endchar
        </CharString>
        <CharString name="gbreve">
          -97 180 384 rmoveto
          -24 -22 -8 -17 -20 hvcurveto
          -63 -63 -31 -74 -85 vvcurveto
          -22 vlineto
          -71 7 27 -35 45 hhcurveto
          6 hlineto
          20 22 14 29 23 hvcurveto
          4 -25 hlineto
          -4 -108 -31 -19 rlineto
          -89 -73 -45 -68 -63 vvcurveto
          -6 vlineto
          -41 27 -27 54 -13 vhcurveto
          37 28 18 35 19 hvcurveto
          17 18 71 142 21 hvcurveto
          4 hlineto
          17 16 -10 -19 13 hvcurveto
          -50 14 13 -25 11 hhcurveto
          25 3 12 10 18 vvcurveto
          88 -21 -40 44 -60 hhcurveto
          6 160 -4 202 4 29 rlineto
          -4 hlineto
          10 -2 5 -4 vhcurveto
          29 -15 15 -31 vhcurveto
          -100 -234 rmoveto
          117 23 31 58 40 hhcurveto
          -50 vlineto
          -137 -27 -23 -69 -19 hhcurveto
          -10 hlineto
          -7 -5 11 22 -3 hvcurveto
          -16 -408 rmoveto
          44 30 49 61 53 vhcurveto
          6 hlineto
          -114 -14 -23 -57 -32 hhcurveto
          -15 -10 8 17 -3 hvcurveto
          159 899 rmoveto
          -7 -63 -27 -31 -48 3 rrcurveto
          -22 -11 12 23 hvcurveto
          51 vlineto
          -37 1 -5 -20 2 -25 8 -29 rlinecurve
          8 -29 25 -14 42 1 14 -1 21 7 27 13 27 14 16 34 3 53 rrcurveto
          endchar
        </CharString>
        <CharString name="gcircumflex">
          -97 180 384 rmoveto
          -24 -22 -8 -17 -20 hvcurveto
          -63 -63 -31 -74 -85 vvcurveto
          -22 vlineto
          -71 7 27 -35 45 hhcurveto
          6 hlineto
          20 22 14 29 23 hvcurveto
          4 -25 hlineto
          -4 -108 -31 -19 rlineto
          -89 -73 -45 -68 -63 vvcurveto
          -6 vlineto
          -41 27 -27 54 -13 vhcurveto
          37 28 18 35 19 hvcurveto
          17 18 71 142 21 hvcurveto
          4 hlineto
          17 16 -10 -19 13 hvcurveto
          -50 14 13 -25 11 hhcurveto
          25 3 12 10 18 vvcurveto
          88 -21 -40 44 -60 hhcurveto
          6 160 -4 202 4 29 rlineto
          -4 hlineto
          10 -2 5 -4 vhcurveto
          29 -15 15 -31 vhcurveto
          -100 -234 rmoveto
          117 23 31 58 40 hhcurveto
          -50 vlineto
          -137 -27 -23 -69 -19 hhcurveto
          -10 hlineto
          -7 -5 11 22 -3 hvcurveto
          -16 -408 rmoveto
          44 30 49 61 53 vhcurveto
          6 hlineto
          -114 -14 -23 -57 -32 hhcurveto
          -15 -10 8 17 -3 hvcurveto
          34 973 rmoveto
          -105 -146 rlineto
          -19 -7 -10 -7 -5 vvcurveto
          -11 10 -7 19 -4 vhcurveto
          27 -15 5 14 32 42 59 70 rlinecurve
          9 13 13 -14 18 -43 rrcurveto
          48 -57 24 -30 -1 vvcurveto
          26 2 rlineto
          16 2 8 5 8 vvcurveto
          -38 54 rlineto
          96 -64 -42 48 -20 hhcurveto
          endchar
        </CharString>
        <CharString name="gcommaaccent">
          -97 180 384 rmoveto
          -24 -22 -8 -17 -20 hvcurveto
          -63 -63 -31 -74 -85 vvcurveto
          -22 vlineto
          -71 7 27 -35 45 hhcurveto
          6 hlineto
          20 22 14 29 23 hvcurveto
          4 -25 hlineto
          -4 -108 -31 -19 rlineto
          -89 -73 -45 -68 -63 vvcurveto
          -6 vlineto
          -41 27 -27 54 -13 vhcurveto
          37 28 18 35 19 hvcurveto
          17 18 71 142 21 hvcurveto
          4 hlineto
          17 16 -10 -19 13 hvcurveto
          -50 14 13 -25 11 hhcurveto
          25 3 12 10 18 vvcurveto
          88 -21 -40 44 -60 hhcurveto
          6 160 -4 202 4 29 rlineto
          -4 hlineto
          10 -2 5 -4 vhcurveto
          29 -15 15 -31 vhcurveto
          -100 -234 rmoveto
          117 23 31 58 40 hhcurveto
          -50 vlineto
          -137 -27 -23 -69 -19 hhcurveto
          -10 hlineto
          -7 -5 11 22 -3 hvcurveto
          -16 -408 rmoveto
          44 30 49 61 53 vhcurveto
          6 hlineto
          -114 -14 -23 -57 -32 hhcurveto
          -15 -10 8 17 -3 hvcurveto
          89 864 rmoveto
          -15 -10 -9 -18 -7 hvcurveto
          -15 1 3 -8 5 hhcurveto
          -43 10 -22 21 21 11 11 23 vhcurveto
          6 vlineto
          50 -6 -13 25 -21 hhcurveto
          endchar
        </CharString>
        <CharString name="gdotaccent">
          -97 180 384 rmoveto
          -24 -22 -8 -17 -20 hvcurveto
          -63 -63 -31 -74 -85 vvcurveto
          -22 vlineto
          -71 7 27 -35 45 hhcurveto
          6 hlineto
          20 22 14 29 23 hvcurveto
          4 -25 hlineto
          -4 -108 -31 -19 rlineto
          -89 -73 -45 -68 -63 vvcurveto
          -6 vlineto
          -41 27 -27 54 -13 vhcurveto
          37 28 18 35 19 hvcurveto
          17 18 71 142 21 hvcurveto
          4 hlineto
          17 16 -10 -19 13 hvcurveto
          -50 14 13 -25 11 hhcurveto
          25 3 12 10 18 vvcurveto
          88 -21 -40 44 -60 hhcurveto
          6 160 -4 202 4 29 rlineto
          -4 hlineto
          10 -2 5 -4 vhcurveto
          29 -15 15 -31 vhcurveto
          -100 -234 rmoveto
          117 23 31 58 40 hhcurveto
          -50 vlineto
          -137 -27 -23 -69 -19 hhcurveto
          -10 hlineto
          -7 -5 11 22 -3 hvcurveto
          -16 -408 rmoveto
          44 30 49 61 53 vhcurveto
          6 hlineto
          -114 -14 -23 -57 -32 hhcurveto
          -15 -10 8 17 -3 hvcurveto
          80 856 rmoveto
          -24 -18 -16 -32 -11 hvcurveto
          -31 6 13 -15 20 hhcurveto
          27 16 15 31 6 hvcurveto
          32 -3 -12 16 -20 hhcurveto
          endchar
        </CharString>
        <CharString name="germandbls">
          0 119 60 rmoveto
          17 -35 21 -13 23 9 rrcurveto
          111 73 55 80 88 vvcurveto
          15 vlineto
          73 -9 -34 37 -57 hhcurveto
          -47 -10 rlineto
          27 80 14 52 25 vvcurveto
          3 vlineto
          48 -6 -19 24 -31 hhcurveto
          -97 -8 -50 -166 -3 -324 -18 -106 -6 -58 5 -9 6 -9 13 0 21 10 25 163 rcurveline
          4 150 10 112 17 73 33 93 21 25 11 -43 -3 -42 -22 -64 -41 -86 14 -95 rcurveline
          68 47 40 34 31 hhcurveto
          4 hlineto
          29 15 -15 -31 -26 -8 -31 -15 -37 hvcurveto
          -48 -75 -49 -43 -51 -9 rrcurveto
          endchar
        </CharString>
        <CharString name="grave">
          83 310 424 rmoveto
          -1 15 -8 10 -17 5 -83 59 -57 33 -29 8 -15 -1 -9 -10 -2 -19 -19 -23 46 -34 110 -46 7 -9 19 -9 33 -9 13 1 9 10 3 19 rrcurveto
          endchar
        </CharString>
        <CharString name="greater">
          -41 87 319 rmoveto
          -18 -12 -19 -38 -5 hvcurveto
          -48 51 -45 103 -42 vhcurveto
          3 hlineto
          -5 -5 -8 -10 -12 vhcurveto
          -73 -65 -36 -47 -1 -28 rrcurveto
          -13 9 -9 19 -3 vhcurveto
          13 3 rlineto
          4 15 20 40 25 hvcurveto
          81 80 40 47 13 vvcurveto
          -15 22 -93 35 -54 30 -16 25 rlinecurve
          7 38 rlineto
          19 -7 -10 10 -15 hhcurveto
          endchar
        </CharString>
        <CharString name="guillemotleft">
          107 236 356 rmoveto
          -7 -1 -17 -14 -26 -26 rrcurveto
          -94 -60 -47 -35 -11 vvcurveto
          -13 2 -6 4 vhcurveto
          -3 23 -13 46 -22 vhcurveto
          -72 87 48 -36 9 hhcurveto
          19 7 9 9 11 vvcurveto
          13 -5 10 -11 6 vhcurveto
          71 -87 -45 35 -5 hhcurveto
          9 vlineto
          3 4 rlineto
          83 50 42 35 21 vvcurveto
          9 vlineto
          15 -10 -10 7 -11 hhcurveto
          155 9 rmoveto
          -7 -1 -16 -13 -27 -26 rrcurveto
          -93 -60 -47 -35 -11 vvcurveto
          -13 2 -6 4 vhcurveto
          -4 23 -13 46 -21 vhcurveto
          -73 87 48 -37 9 hhcurveto
          18 8 9 10 11 vvcurveto
          13 -5 10 -10 5 vhcurveto
          71 -87 -46 35 -4 hhcurveto
          10 vlineto
          2 2 rlineto
          83 51 42 36 20 vvcurveto
          10 vlineto
          14 -10 -10 7 -11 hhcurveto
          endchar
        </CharString>
        <CharString name="guillemotright">
          154 107 349 rmoveto
          -71 -12 31 -42 134 -71 rrcurveto
          4 hlineto
          -6 -5 -8 -11 -11 vhcurveto
          -72 -66 -36 -47 -1 -29 rrcurveto
          -12 9 -8 18 -5 vhcurveto
          13 4 rlineto
          5 14 20 39 25 hvcurveto
          81 80 41 47 14 vvcurveto
          -16 21 -92 36 -54 31 -17 25 rlinecurve
          165 27 rmoveto
          -71 -11 31 -41 134 -73 rrcurveto
          4 hlineto
          -5 -5 -8 -11 -12 vhcurveto
          -72 -66 -36 -47 -1 -27 rrcurveto
          -13 9 -9 18 -3 vhcurveto
          13 3 rlineto
          5 14 20 40 25 hvcurveto
          81 80 41 47 13 vvcurveto
          -16 22 -92 35 -54 30 -17 25 rlinecurve
          endchar
        </CharString>
        <CharString name="guilsinglleft">
          -50 230 347 rmoveto
          -7 -1 -17 -14 -26 -26 rrcurveto
          -94 -60 -47 -35 -11 vvcurveto
          -13 2 -6 4 vhcurveto
          -3 23 -13 46 -21 vhcurveto
          -73 87 48 -36 8 hhcurveto
          19 7 10 9 11 vvcurveto
          13 -5 10 -11 6 vhcurveto
          71 -87 -46 35 -5 hhcurveto
          9 vlineto
          4 4 rlineto
          83 50 42 35 21 vvcurveto
          9 vlineto
          15 -10 -10 7 -11 hhcurveto
          endchar
        </CharString>
        <CharString name="guilsinglright">
          -41 107 349 rmoveto
          -71 -12 31 -42 134 -71 rrcurveto
          4 hlineto
          -6 -5 -8 -11 -11 vhcurveto
          -72 -66 -36 -47 -1 -29 rrcurveto
          -12 9 -8 18 -5 vhcurveto
          13 4 rlineto
          5 14 20 39 25 hvcurveto
          81 80 41 47 14 vvcurveto
          -16 21 -92 36 -54 31 -17 25 rlinecurve
          endchar
        </CharString>
</ttFont>
